{
.appVersion = "1165";
classes = (
{
code = "zero\012one\012two\012three\012four\012five\012six\012seven\012eight\012nine";
name = figures;
},
{
code = "zero.dnom\012one.dnom\012two.dnom\012three.dnom\012four.dnom\012five.dnom\012six.dnom\012seven.dnom\012eight.dnom\012nine.dnom";
name = dnom;
},
{
code = "zero.numr\012one.numr\012two.numr\012three.numr\012four.numr\012five.numr\012six.numr\012seven.numr\012eight.numr\012nine.numr";
name = numr;
},
{
automatic = 1;

glyphs = (
{
glyphname = A;
lastChange = "2018-09-18 23:36:09 +0000";
layers = (
{
anchors = (
{
name = bottom;
position = "{298, 0}";
},
{
name = ogonek;
position = "{613, 0}";
},
{
name = top;
position = "{403, 686}";
}
);
layerId = "F2AF9F09-4B67-43C0-B796-5CA32800A179";
paths = (
{
closed = 1;
nodes = (
"59 0 LINE",
"159 183 LINE",
"477 183 LINE",
"513 0 LINE",
"613 0 LINE",
"468 686 LINE",
"345 686 LINE",
"-41 0 LINE"
);
},
{
closed = 1;
nodes = (
"310 459 LINE",
"336 507 OFFCURVE",
"363 556 OFFCURVE",
"389 604 CURVE",
"394 604 LINE",
"404 554 OFFCURVE",
"413 505 OFFCURVE",
"423 455 CURVE",
"460 266 LINE",
"204 266 LINE"
);
}
);
width = 667;
},
{
anchors = (
{
name = bottom;
position = "{305, 0}";
},
{
name = ogonek;
position = "{628, 0}";
},
{
name = top;
position = "{408, 686}";
}
);
layerId = "A5125C76-E837-47F7-9C8F-34BD6CC95EDD";
paths = (
{
closed = 1;
nodes = (
"72 0 LINE",
"163 167 LINE",
"480 167 LINE",
"514 0 LINE",
"628 0 LINE",
"483 686 LINE",
"342 686 LINE",
"-45 0 LINE"
);
},
{
closed = 1;
nodes = (
"318 449 LINE SMOOTH",
"342 493 OFFCURVE",
"376 558 OFFCURVE",
"394 591 CURVE",
"399 591 LINE",
"406 556 OFFCURVE",
"416 491 OFFCURVE",
"425 446 CURVE SMOOTH",
"461 262 LINE",
"215 262 LINE"
);
}
);
width = 684;
},
{
anchors = (
{
name = bottom;
position = "{316, 0}";
},
{
name = ogonek;
position = "{646, 0}";
},
{
name = top;
position = "{414, 686}";
}
);
layerId = "9D48804D-E8D2-4297-83C4-532547FA9139";
paths = (
{
closed = 1;
nodes = (
"86 0 LINE",
"168 149 LINE",
"484 149 LINE",
"514 0 LINE",
"646 0 LINE",
"499 686 LINE",
"338 686 LINE",
"-49 0 LINE"
);
},
{
closed = 1;
nodes = (
"326 437 LINE SMOOTH",
"348 476 OFFCURVE",
"390 559 OFFCURVE",
"399 576 CURVE",
"404 576 LINE",
"407 559 OFFCURVE",
"420 476 OFFCURVE",
"428 436 CURVE SMOOTH",
"463 257 LINE",
"228 257 LINE"
);
}
);
width = 703;
},
{
anchors = (
{
name = bottom;
position = "{318, 0}";
},
{
name = ogonek;
position = "{663, 0}";
},
{
name = top;
position = "{420, 686}";
}
);
background = {
paths = (
{
closed = 1;
nodes = (
"333 686 LINE",
"-55 0 LINE",
"95 0 LINE",
"167 131 LINE",
"479 131 LINE",
"505 0 LINE",
"663 0 LINE",
"515 686 LINE"
);
},
{
closed = 1;
nodes = (
"454 252 LINE",
"233 252 LINE",
"329 426 LINE SMOOTH",
"348 460 OFFCURVE",
"395 561 OFFCURVE",
"395 561 CURVE",
"400 561 LINE",
"400 561 OFFCURVE",
"413 460 OFFCURVE",
"420 426 CURVE SMOOTH"
);
}
);
};
layerId = "C3F11B4E-1713-4D30-9530-E487AEA06E69";
paths = (
{
closed = 1;
nodes = (
"101 0 LINE",
"173 131 LINE",
"488 131 LINE",
"515 0 LINE",
"663 0 LINE",
"516 686 LINE",
"334 686 LINE",
"-54 0 LINE"
);
},
{
closed = 1;
nodes = (
"335 426 LINE SMOOTH",
"354 460 OFFCURVE",
"404 561 OFFCURVE",
"404 561 CURVE",
"409 561 LINE",
"409 561 OFFCURVE",
"423 460 OFFCURVE",
"430 426 CURVE SMOOTH",
"464 252 LINE",
"241 252 LINE"
);
}
);
width = 722;
}
);
leftKerningGroup = A;
note = A;
rightKerningGroup = A;
unicode = 0041;
},
{
glyphname = AE;
lastChange = "2018-07-29 23:24:57 +0000";
layers = (
{
anchors = (
{
name = top;
position = "{606, 686}";
}
);
layerId = "F2AF9F09-4B67-43C0-B796-5CA32800A179";
paths = (
{
closed = 1;
nodes = (
"41 0 LINE",
"163 183 LINE",
"494 183 LINE",
"513 0 LINE",
"885 0 LINE",
"900 83 LINE",
"595 83 LINE",
"572 309 LINE",
"890 309 LINE",
"904 392 LINE",
"562 392 LINE",
"540 603 LINE",
"985 603 LINE",
"1000 686 LINE",
"405 686 LINE",
"-61 0 LINE"
);
},
{
closed = 1;
nodes = (
"446 603 LINE",
"451 603 LINE",
"486 266 LINE",
"219 266 LINE"
);
}
);
width = 1000;
},
{
anchors = (
{
name = top;
position = "{601, 686}";
}
);
layerId = "A5125C76-E837-47F7-9C8F-34BD6CC95EDD";
paths = (
{
closed = 1;
nodes = (
"58 0 LINE",
"168 167 LINE",
"494 167 LINE",
"511 0 LINE",
"886 0 LINE",
"903 95 LINE",
"607 95 LINE",
"586 303 LINE",
"889 303 LINE",
"906 398 LINE",
"576 398 LINE",
"556 591 LINE",
"983 591 LINE",
"1001 686 LINE",
"400 686 LINE",
"-61 0 LINE"
);
},
{
closed = 1;
nodes = (
"448 591 LINE",
"453 591 LINE",
"485 262 LINE",
"230 262 LINE"
);
}
);
width = 1000;
},
{
anchors = (
{
name = top;
position = "{603, 686}";
}
);
layerId = "9D48804D-E8D2-4297-83C4-532547FA9139";
paths = (
{
closed = 1;
nodes = (
"76 0 LINE",
"173 149 LINE",
"494 149 LINE",
"508 0 LINE",
"886 0 LINE",
"906 109 LINE",
"620 109 LINE",
"602 296 LINE",
"889 296 LINE",
"908 405 LINE",
"591 405 LINE",
"575 577 LINE",
"982 577 LINE",
"1001 686 LINE",
"395 686 LINE",
"-62 0 LINE"
);
},
{
closed = 1;
nodes = (
"451 577 LINE",
"456 577 LINE",
"485 257 LINE",
"243 257 LINE"
);
}
);
width = 1000;
},
{
anchors = (
{
name = top;
position = "{600, 686}";
}
);
layerId = "C3F11B4E-1713-4D30-9530-E487AEA06E69";
paths = (
{
closed = 1;
nodes = (
"95 0 LINE",
"178 131 LINE",
"494 131 LINE",
"505 0 LINE",
"887 0 LINE",
"909 123 LINE",
"633 123 LINE",
"618 289 LINE",
"888 289 LINE",
"910 412 LINE",
"607 412 LINE",
"593 563 LINE",
"980 563 LINE",
"1002 686 LINE",
"390 686 LINE",
"-62 0 LINE"
);
},
{
closed = 1;
nodes = (
"454 563 LINE",
"459 563 LINE",
"484 252 LINE",
"255 252 LINE"
);
}
);
width = 1000;
}
);
leftKerningGroup = AE;
note = AE;
rightKerningGroup = AE;
unicode = 00C6;
},
{
glyphname = B;
lastChange = "2018-07-29 23:24:57 +0000";
layers = (
{
layerId = "F2AF9F09-4B67-43C0-B796-5CA32800A179";
paths = (
{
closed = 1;
nodes = (
"369 0 LINE SMOOTH",
"487 0 OFFCURVE",
"595 60 OFFCURVE",
"595 213 CURVE SMOOTH",
"595 294 OFFCURVE",
"551 339 OFFCURVE",
"489 356 CURVE",
"489 360 LINE",
"566 382 OFFCURVE",
"632 450 OFFCURVE",
"632 540 CURVE SMOOTH",
"632 637 OFFCURVE",
"557 686 OFFCURVE",
"438 686 CURVE SMOOTH",
"139 686 LINE",
"18 0 LINE"
);
},
{
closed = 1;
nodes = (
"168 310 LINE",
"395 310 LINE SMOOTH",
"463 310 OFFCURVE",
"499 279 OFFCURVE",
"499 215 CURVE SMOOTH",
"499 113 OFFCURVE",
"436 83 OFFCURVE",
"362 83 CURVE SMOOTH",
"128 83 LINE"
);
},
{
closed = 1;
nodes = (
"219 603 LINE",
"439 603 LINE SMOOTH",
"500 603 OFFCURVE",
"538 580 OFFCURVE",
"538 516 CURVE SMOOTH",
"538 445 OFFCURVE",
"480 393 OFFCURVE",
"396 393 CURVE SMOOTH",
"182 393 LINE"
);
}
);
width = 667;
},
{
layerId = "A5125C76-E837-47F7-9C8F-34BD6CC95EDD";
paths = (
{
closed = 1;
nodes = (
"376 0 LINE SMOOTH",
"499 0 OFFCURVE",
"612 62 OFFCURVE",
"612 211 CURVE SMOOTH",
"612 290 OFFCURVE",
"568 338 OFFCURVE",
"506 356 CURVE",
"506 360 LINE",
"584 380 OFFCURVE",
"649 448 OFFCURVE",
"649 535 CURVE SMOOTH",
"649 636 OFFCURVE",
"570 686 OFFCURVE",
"446 686 CURVE SMOOTH",
"136 686 LINE",
"15 0 LINE"
);
},
{
closed = 1;
nodes = (
"180 304 LINE",
"400 304 LINE SMOOTH",
"466 304 OFFCURVE",
"500 273 OFFCURVE",
"500 215 CURVE SMOOTH",
"500 126 OFFCURVE",
"441 95 OFFCURVE",
"371 95 CURVE SMOOTH",
"143 95 LINE"
);
},
{
closed = 1;
nodes = (
"230 591 LINE",
"446 591 LINE SMOOTH",
"500 591 OFFCURVE",
"536 568 OFFCURVE",
"536 510 CURVE SMOOTH",
"536 448 OFFCURVE",
"488 399 OFFCURVE",
"408 399 CURVE SMOOTH",
"196 399 LINE"
);
}
);
width = 684;
},
{
layerId = "9D48804D-E8D2-4297-83C4-532547FA9139";
paths = (
{
closed = 1;
nodes = (
"384 0 LINE SMOOTH",
"513 0 OFFCURVE",
"631 63 OFFCURVE",
"631 208 CURVE SMOOTH",
"631 286 OFFCURVE",
"586 337 OFFCURVE",
"526 356 CURVE",
"526 360 LINE",
"605 377 OFFCURVE",
"669 445 OFFCURVE",
"669 530 CURVE SMOOTH",
"669 634 OFFCURVE",
"586 686 OFFCURVE",
"454 686 CURVE SMOOTH",
"133 686 LINE",
"12 0 LINE"
);
},
{
closed = 1;
nodes = (
"193 298 LINE",
"405 298 LINE SMOOTH",
"470 298 OFFCURVE",
"501 267 OFFCURVE",
"501 215 CURVE SMOOTH",
"501 140 OFFCURVE",
"446 109 OFFCURVE",
"380 109 CURVE SMOOTH",
"160 109 LINE"
);
},
{
closed = 1;
nodes = (
"242 577 LINE",
"453 577 LINE SMOOTH",
"500 577 OFFCURVE",
"535 555 OFFCURVE",
"535 504 CURVE SMOOTH",
"535 452 OFFCURVE",
"497 405 OFFCURVE",
"421 405 CURVE SMOOTH",
"212 405 LINE"
);
}
);
width = 703;
},
{
background = {
paths = (
{
closed = 1;
nodes = (
"130 686 LINE",
"10 0 LINE",
"403 0 LINE SMOOTH",
"519 0 OFFCURVE",
"624 62 OFFCURVE",
"647 192 CURVE SMOOTH",
"662 276 OFFCURVE",
"619 341 OFFCURVE",
"545 356 CURVE",
"546 360 LINE",
"613 381 OFFCURVE",
"672 437 OFFCURVE",
"686 516 CURVE SMOOTH",
"704 617 OFFCURVE",
"632 686 OFFCURVE",
"523 686 CURVE SMOOTH"
);
},
{
closed = 1;
nodes = (
"228 412 LINE",
"255 563 LINE",
"468 563 LINE SMOOTH",
"514 563 OFFCURVE",
"540 537 OFFCURVE",
"531 485 CURVE SMOOTH",
"524 445 OFFCURVE",
"490 412 OFFCURVE",
"434 412 CURVE SMOOTH"
);
},
{
closed = 1;
nodes = (
"177 123 LINE",
"207 291 LINE",
"422 291 LINE SMOOTH",
"486 291 OFFCURVE",
"509 255 OFFCURVE",
"501 208 CURVE SMOOTH",
"491 152 OFFCURVE",
"448 123 OFFCURVE",
"400 123 CURVE SMOOTH"
);
}
);
};
layerId = "C3F11B4E-1713-4D30-9530-E487AEA06E69";
paths = (
{
closed = 1;
nodes = (
"392 0 LINE SMOOTH",
"527 0 OFFCURVE",
"650 65 OFFCURVE",
"650 206 CURVE SMOOTH",
"650 282 OFFCURVE",
"605 336 OFFCURVE",
"545 356 CURVE",
"545 360 LINE",
"625 375 OFFCURVE",
"688 442 OFFCURVE",
"688 525 CURVE SMOOTH",
"688 633 OFFCURVE",
"601 686 OFFCURVE",
"463 686 CURVE SMOOTH",
"130 686 LINE",
"9 0 LINE"
);
},
{
closed = 1;
nodes = (
"206 291 LINE",
"411 291 LINE SMOOTH",
"474 291 OFFCURVE",
"502 260 OFFCURVE",
"502 215 CURVE SMOOTH",
"502 154 OFFCURVE",
"451 123 OFFCURVE",
"390 123 CURVE SMOOTH",
"177 123 LINE"
);
},
{
closed = 1;
nodes = (
"254 563 LINE",
"461 563 LINE SMOOTH",
"500 563 OFFCURVE",
"533 541 OFFCURVE",
"533 497 CURVE SMOOTH",
"533 455 OFFCURVE",
"506 412 OFFCURVE",
"434 412 CURVE SMOOTH",
"228 412 LINE"
);
}
);
width = 722;
}
);
leftKerningGroup = H;
note = B;
rightKerningGroup = B;
unicode = 0042;
},
{
glyphname = C;
lastChange = "2018-07-29 23:24:57 +0000";
layers = (
{
anchors = (
{
name = bottom;
position = "{319, 0}";
},
{
name = top;
position = "{431, 686}";
}
);
layerId = "F2AF9F09-4B67-43C0-B796-5CA32800A179";
paths = (
{
closed = 1;
nodes = (
"495 -12 OFFCURVE",
"628 69 OFFCURVE",
"658 246 CURVE",
"565 246 LINE",
"543 127 OFFCURVE",
"450 69 OFFCURVE",
"322 69 CURVE SMOOTH",
"198 69 OFFCURVE",
"135 124 OFFCURVE",
"135 258 CURVE SMOOTH",
"135 302 OFFCURVE",
"140 344 OFFCURVE",
"149 381 CURVE SMOOTH",
"183 527 OFFCURVE",
"283 617 OFFCURVE",
"439 617 CURVE SMOOTH",
"539 617 OFFCURVE",
"599 572 OFFCURVE",
"599 480 CURVE SMOOTH",
"599 468 OFFCURVE",
"597 453 OFFCURVE",
"595 438 CURVE",
"692 438 LINE",
"695 458 OFFCURVE",
"697 477 OFFCURVE",
"697 495 CURVE SMOOTH",
"697 631 OFFCURVE",
"591 698 OFFCURVE",
"433 698 CURVE SMOOTH",
"336 698 OFFCURVE",
"254 670 OFFCURVE",
"190 621 CURVE SMOOTH",
"91 544 OFFCURVE",
"37 413 OFFCURVE",
"37 250 CURVE SMOOTH",
"37 74 OFFCURVE",
"135 -12 OFFCURVE",
"328 -12 CURVE SMOOTH"
);
}
);
width = 722;
},
{
anchors = (
{
name = bottom;
position = "{319, 0}";
},
{
name = top;
position = "{431, 686}";
}
);
layerId = "A5125C76-E837-47F7-9C8F-34BD6CC95EDD";
paths = (
{
closed = 1;
nodes = (
"494 -12 OFFCURVE",
"630 70 OFFCURVE",
"661 248 CURVE",
"552 248 LINE",
"532 138 OFFCURVE",
"444 82 OFFCURVE",
"324 82 CURVE SMOOTH",
"207 82 OFFCURVE",
"150 136 OFFCURVE",
"150 259 CURVE SMOOTH",
"150 295 OFFCURVE",
"154 331 OFFCURVE",
"163 374 CURVE SMOOTH",
"194 516 OFFCURVE",
"286 604 OFFCURVE",
"433 604 CURVE SMOOTH",
"526 604 OFFCURVE",
"585 562 OFFCURVE",
"585 474 CURVE SMOOTH",
"585 463 OFFCURVE",
"583 449 OFFCURVE",
"581 436 CURVE",
"694 436 LINE",
"697 456 OFFCURVE",
"699 475 OFFCURVE",
"699 492 CURVE SMOOTH",
"699 630 OFFCURVE",
"589 698 OFFCURVE",
"430 698 CURVE SMOOTH",
"332 698 OFFCURVE",
"250 670 OFFCURVE",
"187 620 CURVE SMOOTH",
"87 541 OFFCURVE",
"36 407 OFFCURVE",
"36 252 CURVE SMOOTH",
"36 72 OFFCURVE",
"137 -12 OFFCURVE",
"326 -12 CURVE SMOOTH"
);
}
);
width = 722;
},
{
anchors = (
{
name = bottom;
position = "{313, 0}";
},
{
name = top;
position = "{429, 686}";
}
);
layerId = "9D48804D-E8D2-4297-83C4-532547FA9139";
paths = (
{
closed = 1;
nodes = (
"492 -12 OFFCURVE",
"633 72 OFFCURVE",
"664 251 CURVE",
"538 251 LINE",
"519 151 OFFCURVE",
"436 96 OFFCURVE",
"326 96 CURVE SMOOTH",
"218 96 OFFCURVE",
"166 149 OFFCURVE",
"166 259 CURVE SMOOTH",
"166 288 OFFCURVE",
"169 317 OFFCURVE",
"179 366 CURVE SMOOTH",
"206 503 OFFCURVE",
"289 590 OFFCURVE",
"425 590 CURVE SMOOTH",
"512 590 OFFCURVE",
"568 550 OFFCURVE",
"568 468 CURVE SMOOTH",
"568 457 OFFCURVE",
"567 445 OFFCURVE",
"565 433 CURVE",
"696 433 LINE",
"699 453 OFFCURVE",
"701 472 OFFCURVE",
"701 489 CURVE SMOOTH",
"701 630 OFFCURVE",
"586 698 OFFCURVE",
"426 698 CURVE SMOOTH",
"328 698 OFFCURVE",
"245 669 OFFCURVE",
"183 620 CURVE SMOOTH",
"83 538 OFFCURVE",
"35 401 OFFCURVE",
"35 254 CURVE SMOOTH",
"35 69 OFFCURVE",
"140 -12 OFFCURVE",
"325 -12 CURVE SMOOTH"
);
}
);
width = 722;
},
{
anchors = (
{
name = bottom;
position = "{307, 0}";
},
{
name = top;
position = "{429, 686}";
}
);
background = {
paths = (
{
closed = 1;
nodes = (
"484 -12 OFFCURVE",
"633 73 OFFCURVE",
"665 254 CURVE",
"521 254 LINE",
"505 163 OFFCURVE",
"432 111 OFFCURVE",
"336 111 CURVE SMOOTH",
"208 111 OFFCURVE",
"163 187 OFFCURVE",
"188 328 CURVE SMOOTH",
"194 358 LINE SMOOTH",
"218 494 OFFCURVE",
"290 575 OFFCURVE",
"418 575 CURVE SMOOTH",
"507 575 OFFCURVE",
"564 523 OFFCURVE",
"548 431 CURVE",
"697 431 LINE",
"728 612 OFFCURVE",
"607 698 OFFCURVE",
"437 698 CURVE SMOOTH",
"231 698 OFFCURVE",
"85 585 OFFCURVE",
"42 343 CURVE SMOOTH",
"-2 91 OFFCURVE",
"105 -12 OFFCURVE",
"311 -12 CURVE SMOOTH"
);
}
);
};
layerId = "C3F11B4E-1713-4D30-9530-E487AEA06E69";
paths = (
{
closed = 1;
nodes = (
"491 -12 OFFCURVE",
"636 73 OFFCURVE",
"667 254 CURVE",
"523 254 LINE",
"506 163 OFFCURVE",
"429 111 OFFCURVE",
"328 111 CURVE SMOOTH",
"229 111 OFFCURVE",
"183 163 OFFCURVE",
"183 260 CURVE SMOOTH",
"183 280 OFFCURVE",
"185 303 OFFCURVE",
"195 358 CURVE SMOOTH",
"218 490 OFFCURVE",
"292 575 OFFCURVE",
"418 575 CURVE SMOOTH",
"497 575 OFFCURVE",
"552 538 OFFCURVE",
"552 461 CURVE SMOOTH",
"552 451 OFFCURVE",
"551 441 OFFCURVE",
"549 431 CURVE",
"698 431 LINE",
"701 450 OFFCURVE",
"703 469 OFFCURVE",
"703 486 CURVE SMOOTH",
"703 629 OFFCURVE",
"584 698 OFFCURVE",
"423 698 CURVE SMOOTH",
"323 698 OFFCURVE",
"240 669 OFFCURVE",
"180 619 CURVE SMOOTH",
"79 535 OFFCURVE",
"34 395 OFFCURVE",
"34 256 CURVE SMOOTH",
"34 66 OFFCURVE",
"142 -12 OFFCURVE",
"323 -12 CURVE SMOOTH"
);
}
);
width = 722;
}
);
leftKerningGroup = C;
note = C;
rightKerningGroup = C;
unicode = 0043;
},
{
glyphname = D;
lastChange = "2018-09-17 23:07:27 +0000";
layers = (
{
anchors = (
{
name = bottom;
position = "{315, 0}";
},
{
name = center;
position = "{163, 348}";
},
{
name = top;
position = "{398, 686}";
}
);
layerId = "F2AF9F09-4B67-43C0-B796-5CA32800A179";
paths = (
{
closed = 1;
nodes = (
"292 0 LINE SMOOTH",
"533 0 OFFCURVE",
"684 161 OFFCURVE",
"684 414 CURVE SMOOTH",
"684 602 OFFCURVE",
"569 686 OFFCURVE",
"373 686 CURVE SMOOTH",
"139 686 LINE",
"18 0 LINE"
);
},
{
closed = 1;
nodes = (
"219 603 LINE",
"378 603 LINE SMOOTH",
"507 603 OFFCURVE",
"586 549 OFFCURVE",
"586 402 CURVE SMOOTH",
"586 208 OFFCURVE",
"477 83 OFFCURVE",
"287 83 CURVE SMOOTH",
"128 83 LINE"
);
}
);
width = 722;
},
{
anchors = (
{
name = bottom;
position = "{315, 0}";
},
{
name = center;
position = "{163, 348}";
},
{
name = top;
position = "{406, 686}";
}
);
layerId = "A5125C76-E837-47F7-9C8F-34BD6CC95EDD";
paths = (
{
closed = 1;
nodes = (
"298 0 LINE SMOOTH",
"538 0 OFFCURVE",
"686 164 OFFCURVE",
"686 415 CURVE SMOOTH",
"686 601 OFFCURVE",
"574 686 OFFCURVE",
"382 686 CURVE SMOOTH",
"136 686 LINE",
"15 0 LINE"
);
},
{
closed = 1;
nodes = (
"229 591 LINE",
"382 591 LINE SMOOTH",
"502 591 OFFCURVE",
"572 537 OFFCURVE",
"572 407 CURVE SMOOTH",
"572 227 OFFCURVE",
"476 95 OFFCURVE",
"293 95 CURVE SMOOTH",
"143 95 LINE"
);
}
);
width = 722;
},
{
anchors = (
{
name = bottom;
position = "{315, 0}";
},
{
name = center;
position = "{163, 348}";
},
{
name = top;
position = "{400, 686}";
}
);
layerId = "9D48804D-E8D2-4297-83C4-532547FA9139";
paths = (
{
closed = 1;
nodes = (
"306 0 LINE SMOOTH",
"547 0 OFFCURVE",
"689 172 OFFCURVE",
"689 415 CURVE SMOOTH",
"689 601 OFFCURVE",
"579 686 OFFCURVE",
"393 686 CURVE SMOOTH",
"133 686 LINE",
"12 0 LINE"
);
},
{
closed = 1;
nodes = (
"241 577 LINE",
"387 577 LINE SMOOTH",
"497 577 OFFCURVE",
"557 523 OFFCURVE",
"557 412 CURVE SMOOTH",
"557 241 OFFCURVE",
"470 109 OFFCURVE",
"299 109 CURVE SMOOTH",
"159 109 LINE"
);
}
);
width = 722;
},
{
anchors = (
{
name = bottom;
position = "{315, 0}";
},
{
name = center;
position = "{167, 348}";
},
{
name = top;
position = "{404, 686}";
}
);
background = {
paths = (
{
closed = 1;
nodes = (
"130 686 LINE",
"10 0 LINE",
"294 0 LINE SMOOTH",
"498 0 OFFCURVE",
"641 109 OFFCURVE",
"682 343 CURVE SMOOTH",
"723 577 OFFCURVE",
"618 686 OFFCURVE",
"414 686 CURVE SMOOTH"
);
},
{
closed = 1;
nodes = (
"176 123 LINE",
"254 563 LINE",
"393 563 LINE SMOOTH",
"512 563 OFFCURVE",
"561 485 OFFCURVE",
"536 358 CURVE SMOOTH",
"530 328 LINE SMOOTH",
"505 201 OFFCURVE",
"434 123 OFFCURVE",
"315 123 CURVE SMOOTH"
);
}
);
};
layerId = "C3F11B4E-1713-4D30-9530-E487AEA06E69";
paths = (
{
closed = 1;
nodes = (
"313 0 LINE SMOOTH",
"551 0 OFFCURVE",
"691 175 OFFCURVE",
"691 416 CURVE SMOOTH",
"691 600 OFFCURVE",
"585 686 OFFCURVE",
"404 686 CURVE SMOOTH",
"130 686 LINE",
"9 0 LINE"
);
},
{
closed = 1;
nodes = (
"253 563 LINE",
"392 563 LINE SMOOTH",
"491 563 OFFCURVE",
"541 509 OFFCURVE",
"541 417 CURVE SMOOTH",
"541 256 OFFCURVE",
"464 123 OFFCURVE",
"305 123 CURVE SMOOTH",
"176 123 LINE"
);
}
);
width = 722;
}
);
leftKerningGroup = D;
note = D;
rightKerningGroup = D;
unicode = 0044;
},
{
glyphname = Eth;
lastChange = "2018-07-29 23:24:57 +0000";
layers = (
{
layerId = "F2AF9F09-4B67-43C0-B796-5CA32800A179";
paths = (
{
closed = 1;
nodes = (
"292 0 LINE SMOOTH",
"533 0 OFFCURVE",
"684 161 OFFCURVE",
"684 414 CURVE SMOOTH",
"684 602 OFFCURVE",
"569 686 OFFCURVE",
"373 686 CURVE SMOOTH",
"139 686 LINE",
"86 386 LINE",
"14 386 LINE",
"0 308 LINE",
"72 308 LINE",
"18 0 LINE"
);
},
{
closed = 1;
nodes = (
"167 308 LINE",
"362 308 LINE",
"376 386 LINE",
"181 386 LINE",
"219 603 LINE",
"378 603 LINE SMOOTH",
"507 603 OFFCURVE",
"586 549 OFFCURVE",
"586 402 CURVE SMOOTH",
"586 208 OFFCURVE",
"477 83 OFFCURVE",
"287 83 CURVE SMOOTH",
"128 83 LINE"
);
}
);
width = 722;
},
{
layerId = "A5125C76-E837-47F7-9C8F-34BD6CC95EDD";
paths = (
{
closed = 1;
nodes = (
"298 0 LINE SMOOTH",
"538 0 OFFCURVE",
"686 164 OFFCURVE",
"686 415 CURVE SMOOTH",
"686 601 OFFCURVE",
"574 686 OFFCURVE",
"382 686 CURVE SMOOTH",
"136 686 LINE",
"84 393 LINE",
"15 393 LINE",
"-1 301 LINE",
"68 301 LINE",
"15 0 LINE"
);
},
{
closed = 1;
nodes = (
"179 301 LINE",
"359 301 LINE",
"375 393 LINE",
"195 393 LINE",
"229 591 LINE",
"382 591 LINE SMOOTH",
"502 591 OFFCURVE",
"572 537 OFFCURVE",
"572 407 CURVE SMOOTH",
"572 227 OFFCURVE",
"476 95 OFFCURVE",
"293 95 CURVE SMOOTH",
"143 95 LINE"
);
}
);
width = 722;
},
{
layerId = "9D48804D-E8D2-4297-83C4-532547FA9139";
paths = (
{
closed = 1;
nodes = (
"306 0 LINE SMOOTH",
"547 0 OFFCURVE",
"689 172 OFFCURVE",
"689 415 CURVE SMOOTH",
"689 601 OFFCURVE",
"579 686 OFFCURVE",
"393 686 CURVE SMOOTH",
"133 686 LINE",
"82 398 LINE",
"11 398 LINE",
"-7 296 LINE",
"64 296 LINE",
"12 0 LINE"
);
},
{
closed = 1;
nodes = (
"192 296 LINE",
"355 296 LINE",
"373 398 LINE",
"210 398 LINE",
"241 577 LINE",
"387 577 LINE SMOOTH",
"497 577 OFFCURVE",
"557 523 OFFCURVE",
"557 412 CURVE SMOOTH",
"557 241 OFFCURVE",
"470 109 OFFCURVE",
"299 109 CURVE SMOOTH",
"159 109 LINE"
);
}
);
width = 722;
},
{
layerId = "C3F11B4E-1713-4D30-9530-E487AEA06E69";
paths = (
{
closed = 1;
nodes = (
"313 0 LINE SMOOTH",
"551 0 OFFCURVE",
"691 175 OFFCURVE",
"691 416 CURVE SMOOTH",
"691 600 OFFCURVE",
"585 686 OFFCURVE",
"404 686 CURVE SMOOTH",
"130 686 LINE",
"80 401 LINE",
"2 401 LINE",
"-18 293 LINE",
"61 293 LINE",
"9 0 LINE"
);
},
{
closed = 1;
nodes = (
"206 293 LINE",
"347 293 LINE",
"367 401 LINE",
"225 401 LINE",
"253 563 LINE",
"392 563 LINE SMOOTH",
"491 563 OFFCURVE",
"541 509 OFFCURVE",
"541 417 CURVE SMOOTH",
"541 256 OFFCURVE",
"464 123 OFFCURVE",
"305 123 CURVE SMOOTH",
"176 123 LINE"
);
}
);
width = 722;
}
);
leftKerningGroup = D;
note = Eth;
rightKerningGroup = D;
unicode = 00D0;
},
{
glyphname = E;
lastChange = "2018-09-18 23:37:09 +0000";
layers = (
{
anchors = (
{
name = bottom;
position = "{302, 0}";
},
{
name = ogonek;
position = "{552, 0}";
},
{
name = top;
position = "{399, 686}";
}
);
layerId = "F2AF9F09-4B67-43C0-B796-5CA32800A179";
paths = (
{
closed = 1;
nodes = (
"552 0 LINE",
"567 83 LINE",
"128 83 LINE",
"168 309 LINE",
"557 309 LINE",
"571 392 LINE",
"182 392 LINE",
"219 603 LINE",
"652 603 LINE",
"667 686 LINE",
"139 686 LINE",
"18 0 LINE"
);
}
);
width = 667;
},
{
anchors = (
{
name = bottom;
position = "{298, 0}";
},
{
name = ogonek;
position = "{553, 0}";
},
{
name = top;
position = "{400, 686}";
}
);
layerId = "A5125C76-E837-47F7-9C8F-34BD6CC95EDD";
paths = (
{
closed = 1;
nodes = (
"553 0 LINE",
"570 95 LINE",
"143 95 LINE",
"179 303 LINE",
"556 303 LINE",
"573 398 LINE",
"196 398 LINE",
"229 591 LINE",
"650 591 LINE",
"668 686 LINE",
"136 686 LINE",
"15 0 LINE"
);
}
);
width = 667;
},
{
anchors = (
{
name = bottom;
position = "{294, 0}";
},
{
name = ogonek;
position = "{553, 0}";
},
{
name = top;
position = "{400, 686}";
}
);
layerId = "9D48804D-E8D2-4297-83C4-532547FA9139";
paths = (
{
closed = 1;
nodes = (
"553 0 LINE",
"573 109 LINE",
"159 109 LINE",
"192 296 LINE",
"556 296 LINE",
"575 405 LINE",
"211 405 LINE",
"241 577 LINE",
"649 577 LINE",
"668 686 LINE",
"133 686 LINE",
"12 0 LINE"
);
}
);
width = 667;
},
{
anchors = (
{
name = bottom;
position = "{296, 0}";
},
{
name = ogonek;
position = "{554, 0}";
},
{
name = top;
position = "{406, 686}";
}
);
layerId = "C3F11B4E-1713-4D30-9530-E487AEA06E69";
paths = (
{
closed = 1;
nodes = (
"554 0 LINE",
"576 123 LINE",
"176 123 LINE",
"205 289 LINE",
"555 289 LINE",
"577 412 LINE",
"227 412 LINE",
"253 563 LINE",
"647 563 LINE",
"669 686 LINE",
"130 686 LINE",
"9 0 LINE"
);
}
);
width = 667;
}
);
leftKerningGroup = H;
note = E;
rightKerningGroup = E;
unicode = 0045;
},
{
glyphname = F;
lastChange = "2018-07-29 23:24:57 +0000";
layers = (
{
layerId = "F2AF9F09-4B67-43C0-B796-5CA32800A179";
paths = (
{
closed = 1;
nodes = (
"113 0 LINE",
"166 302 LINE",
"521 302 LINE",
"536 385 LINE",
"181 385 LINE",
"219 603 LINE",
"610 603 LINE",
"625 686 LINE",
"139 686 LINE",
"18 0 LINE"
);
}
);
width = 611;
},
{
layerId = "A5125C76-E837-47F7-9C8F-34BD6CC95EDD";
paths = (
{
closed = 1;
nodes = (
"126 0 LINE",
"177 293 LINE",
"520 293 LINE",
"537 388 LINE",
"194 388 LINE",
"229 591 LINE",
"608 591 LINE",
"626 686 LINE",
"136 686 LINE",
"15 0 LINE"
);
}
);
width = 611;
},
{
layerId = "9D48804D-E8D2-4297-83C4-532547FA9139";
paths = (
{
closed = 1;
nodes = (
"140 0 LINE",
"190 282 LINE",
"518 282 LINE",
"537 391 LINE",
"208 391 LINE",
"241 577 LINE",
"607 577 LINE",
"626 686 LINE",
"133 686 LINE",
"12 0 LINE"
);
}
);
width = 611;
},
{
layerId = "C3F11B4E-1713-4D30-9530-E487AEA06E69";
paths = (
{
closed = 1;
nodes = (
"154 0 LINE",
"202 271 LINE",
"517 271 LINE",
"538 394 LINE",
"223 394 LINE",
"253 563 LINE",
"605 563 LINE",
"627 686 LINE",
"130 686 LINE",
"9 0 LINE"
);
}
);
width = 611;
}
);
leftKerningGroup = H;
note = F;
rightKerningGroup = F;
unicode = 0046;
},
{
glyphname = Fhook;
lastChange = "2018-07-29 23:24:57 +0000";
layers = (
{
layerId = "F2AF9F09-4B67-43C0-B796-5CA32800A179";
paths = (
{
closed = 1;
nodes = (
"67 -182 OFFCURVE",
"91 -121 OFFCURVE",
"102 -61 CURVE SMOOTH",
"166 302 LINE",
"521 302 LINE",
"536 385 LINE",
"181 385 LINE",
"219 603 LINE",
"610 603 LINE",
"625 686 LINE",
"139 686 LINE",
"6 -65 LINE SMOOTH",
"1 -96 OFFCURVE",
"-17 -113 OFFCURVE",
"-48 -113 CURVE SMOOTH",
"-92 -113 LINE",
"-102 -170 LINE",
"-86 -176 OFFCURVE",
"-52 -182 OFFCURVE",
"-28 -182 CURVE SMOOTH"
);
}
);
width = 611;
},
{
layerId = "A5125C76-E837-47F7-9C8F-34BD6CC95EDD";
paths = (
{
closed = 1;
nodes = (
"76 -182 OFFCURVE",
"105 -118 OFFCURVE",
"116 -55 CURVE SMOOTH",
"178 293 LINE",
"520 293 LINE",
"537 388 LINE",
"195 388 LINE",
"229 591 LINE",
"608 591 LINE",
"626 686 LINE",
"136 686 LINE",
"5 -53 LINE SMOOTH",
"0 -83 OFFCURVE",
"-18 -100 OFFCURVE",
"-48 -100 CURVE SMOOTH",
"-94 -100 LINE",
"-106 -169 LINE",
"-88 -175 OFFCURVE",
"-48 -182 OFFCURVE",
"-21 -182 CURVE SMOOTH"
);
}
);
width = 611;
},
{
layerId = "9D48804D-E8D2-4297-83C4-532547FA9139";
paths = (
{
closed = 1;
nodes = (
"85 -182 OFFCURVE",
"120 -114 OFFCURVE",
"132 -48 CURVE SMOOTH",
"190 282 LINE",
"518 282 LINE",
"537 391 LINE",
"209 391 LINE",
"241 577 LINE",
"607 577 LINE",
"626 686 LINE",
"133 686 LINE",
"5 -40 LINE SMOOTH",
"0 -69 OFFCURVE",
"-18 -85 OFFCURVE",
"-47 -85 CURVE SMOOTH",
"-96 -85 LINE",
"-110 -167 LINE",
"-90 -175 OFFCURVE",
"-43 -182 OFFCURVE",
"-13 -182 CURVE SMOOTH"
);
}
);
width = 611;
},
{
layerId = "C3F11B4E-1713-4D30-9530-E487AEA06E69";
paths = (
{
closed = 1;
nodes = (
"94 -182 OFFCURVE",
"135 -111 OFFCURVE",
"147 -41 CURVE SMOOTH",
"202 271 LINE",
"517 271 LINE",
"538 394 LINE",
"224 394 LINE",
"253 563 LINE",
"605 563 LINE",
"627 686 LINE",
"130 686 LINE",
"4 -27 LINE SMOOTH",
"-1 -55 OFFCURVE",
"-18 -70 OFFCURVE",
"-46 -70 CURVE SMOOTH",
"-98 -70 LINE",
"-114 -166 LINE",
"-92 -174 OFFCURVE",
"-39 -182 OFFCURVE",
"-5 -182 CURVE SMOOTH"
);
}
);
width = 611;
}
);
leftKerningGroup = j;
rightKerningGroup = F;
unicode = 0191;
},
{
glyphname = G;
lastChange = "2018-07-29 23:24:57 +0000";
layers = (
{
anchors = (
{
name = bottom;
position = "{330, 0}";
},
{
name = top;
position = "{452, 686}";
}
);
layerId = "F2AF9F09-4B67-43C0-B796-5CA32800A179";
paths = (
{
closed = 1;
nodes = (
"423 -12 OFFCURVE",
"508 16 OFFCURVE",
"574 84 CURVE",
"574 0 LINE",
"646 0 LINE",
"709 357 LINE",
"372 357 LINE",
"357 274 LINE",
"599 274 LINE",
"598 264 LINE SMOOTH",
"587 159 OFFCURVE",
"489 69 OFFCURVE",
"328 69 CURVE SMOOTH",
"204 69 OFFCURVE",
"136 123 OFFCURVE",
"136 261 CURVE SMOOTH",
"136 306 OFFCURVE",
"141 348 OFFCURVE",
"150 385 CURVE SMOOTH",
"187 532 OFFCURVE",
"293 617 OFFCURVE",
"451 617 CURVE SMOOTH",
"561 617 OFFCURVE",
"632 576 OFFCURVE",
"632 485 CURVE SMOOTH",
"632 475 OFFCURVE",
"631 464 OFFCURVE",
"629 452 CURVE",
"726 452 LINE",
"729 469 OFFCURVE",
"730 485 OFFCURVE",
"730 500 CURVE SMOOTH",
"730 633 OFFCURVE",
"614 698 OFFCURVE",
"445 698 CURVE SMOOTH",
"317 698 OFFCURVE",
"215 654 OFFCURVE",
"145 577 CURVE SMOOTH",
"75 499 OFFCURVE",
"37 387 OFFCURVE",
"37 252 CURVE SMOOTH",
"37 83 OFFCURVE",
"135 -12 OFFCURVE",
"322 -12 CURVE SMOOTH"
);
}
);
width = 778;
},
{
anchors = (
{
name = bottom;
position = "{331, 0}";
},
{
name = top;
position = "{453, 686}";
}
);
layerId = "A5125C76-E837-47F7-9C8F-34BD6CC95EDD";
paths = (
{
closed = 1;
nodes = (
"423 -12 OFFCURVE",
"503 18 OFFCURVE",
"569 82 CURVE",
"569 0 LINE",
"650 0 LINE",
"714 362 LINE",
"372 362 LINE",
"355 268 LINE",
"587 268 LINE",
"586 262 LINE",
"574 162 OFFCURVE",
"476 82 OFFCURVE",
"330 82 CURVE SMOOTH",
"213 82 OFFCURVE",
"150 134 OFFCURVE",
"150 261 CURVE SMOOTH",
"150 298 OFFCURVE",
"155 334 OFFCURVE",
"164 377 CURVE SMOOTH",
"196 521 OFFCURVE",
"296 604 OFFCURVE",
"449 604 CURVE SMOOTH",
"549 604 OFFCURVE",
"619 564 OFFCURVE",
"619 480 CURVE SMOOTH",
"619 472 OFFCURVE",
"618 462 OFFCURVE",
"616 452 CURVE",
"730 452 LINE",
"733 468 OFFCURVE",
"734 484 OFFCURVE",
"734 498 CURVE SMOOTH",
"734 633 OFFCURVE",
"612 698 OFFCURVE",
"444 698 CURVE SMOOTH",
"321 698 OFFCURVE",
"222 657 OFFCURVE",
"153 586 CURVE SMOOTH",
"76 507 OFFCURVE",
"36 390 OFFCURVE",
"36 254 CURVE SMOOTH",
"36 79 OFFCURVE",
"137 -12 OFFCURVE",
"322 -12 CURVE SMOOTH"
);
}
);
width = 778;
},
{
anchors = (
{
name = bottom;
position = "{324, 0}";
},
{
name = top;
position = "{450, 686}";
}
);
layerId = "9D48804D-E8D2-4297-83C4-532547FA9139";
paths = (
{
closed = 1;
nodes = (
"424 -12 OFFCURVE",
"497 19 OFFCURVE",
"564 79 CURVE",
"564 0 LINE",
"654 0 LINE",
"719 367 LINE",
"371 367 LINE",
"352 261 LINE",
"572 261 LINE",
"572 260 LINE",
"559 165 OFFCURVE",
"462 96 OFFCURVE",
"333 96 CURVE SMOOTH",
"223 96 OFFCURVE",
"167 147 OFFCURVE",
"167 260 CURVE SMOOTH",
"167 289 OFFCURVE",
"170 319 OFFCURVE",
"179 367 CURVE SMOOTH",
"207 508 OFFCURVE",
"299 590 OFFCURVE",
"448 590 CURVE SMOOTH",
"536 590 OFFCURVE",
"604 551 OFFCURVE",
"604 475 CURVE SMOOTH",
"604 468 OFFCURVE",
"604 460 OFFCURVE",
"602 452 CURVE",
"734 452 LINE",
"737 468 OFFCURVE",
"738 482 OFFCURVE",
"738 497 CURVE SMOOTH",
"738 633 OFFCURVE",
"609 698 OFFCURVE",
"444 698 CURVE SMOOTH",
"326 698 OFFCURVE",
"231 661 OFFCURVE",
"163 596 CURVE SMOOTH",
"78 516 OFFCURVE",
"35 393 OFFCURVE",
"35 256 CURVE SMOOTH",
"35 74 OFFCURVE",
"139 -12 OFFCURVE",
"323 -12 CURVE SMOOTH"
);
}
);
width = 778;
},
{
anchors = (
{
name = bottom;
position = "{315, 0}";
},
{
name = top;
position = "{447, 686}";
}
);
background = {
paths = (
{
closed = 1;
nodes = (
"371 373 LINE",
"350 254 LINE",
"558 254 LINE",
"540 163 OFFCURVE",
"449 111 OFFCURVE",
"345 111 CURVE SMOOTH",
"214 111 OFFCURVE",
"161 183 OFFCURVE",
"190 328 CURVE SMOOTH",
"196 358 LINE SMOOTH",
"223 495 OFFCURVE",
"300 575 OFFCURVE",
"442 575 CURVE SMOOTH",
"529 575 OFFCURVE",
"602 530 OFFCURVE",
"588 452 CURVE",
"738 452 LINE",
"768 619 OFFCURVE",
"631 698 OFFCURVE",
"459 698 CURVE SMOOTH",
"241 698 OFFCURVE",
"87 585 OFFCURVE",
"44 343 CURVE SMOOTH",
"0 95 OFFCURVE",
"107 -12 OFFCURVE",
"313 -12 CURVE SMOOTH",
"418 -12 OFFCURVE",
"487 17 OFFCURVE",
"559 76 CURVE",
"559 0 LINE",
"659 0 LINE",
"724 373 LINE"
);
}
);
};
layerId = "C3F11B4E-1713-4D30-9530-E487AEA06E69";
paths = (
{
closed = 1;
nodes = (
"424 -12 OFFCURVE",
"491 21 OFFCURVE",
"558 76 CURVE",
"558 0 LINE",
"658 0 LINE",
"724 373 LINE",
"371 373 LINE",
"350 254 LINE",
"557 254 LINE",
"541 166 OFFCURVE",
"445 111 OFFCURVE",
"335 111 CURVE SMOOTH",
"233 111 OFFCURVE",
"183 160 OFFCURVE",
"183 260 CURVE SMOOTH",
"183 280 OFFCURVE",
"186 303 OFFCURVE",
"195 358 CURVE SMOOTH",
"218 496 OFFCURVE",
"302 575 OFFCURVE",
"446 575 CURVE SMOOTH",
"523 575 OFFCURVE",
"589 537 OFFCURVE",
"589 470 CURVE SMOOTH",
"589 464 OFFCURVE",
"589 458 OFFCURVE",
"588 452 CURVE",
"738 452 LINE",
"741 467 OFFCURVE",
"742 481 OFFCURVE",
"742 495 CURVE SMOOTH",
"742 633 OFFCURVE",
"607 698 OFFCURVE",
"443 698 CURVE SMOOTH",
"331 698 OFFCURVE",
"239 665 OFFCURVE",
"172 606 CURVE SMOOTH",
"79 525 OFFCURVE",
"34 396 OFFCURVE",
"34 258 CURVE SMOOTH",
"34 69 OFFCURVE",
"141 -12 OFFCURVE",
"323 -12 CURVE SMOOTH"
);
}
);
width = 778;
}
);
leftKerningGroup = O;
note = G;
rightKerningGroup = G;
unicode = 0047;
},
{
glyphname = H;
lastChange = "2018-09-18 23:38:08 +0000";
layers = (
{
anchors = (
{
name = bottom;
position = "{305, 0}";
},
{
name = center;
position = "{396, 540}";
},
{
name = top;
position = "{423, 686}";
}
);
layerId = "F2AF9F09-4B67-43C0-B796-5CA32800A179";
paths = (
{
closed = 1;
nodes = (
"113 0 LINE",
"168 309 LINE",
"542 309 LINE",
"487 0 LINE",
"582 0 LINE",
"703 686 LINE",
"608 686 LINE",
"556 392 LINE",
"182 392 LINE",
"234 686 LINE",
"139 686 LINE",
"18 0 LINE"
);
}
);
width = 722;
},
{
anchors = (
{
name = bottom;
position = "{305, 0}";
},
{
name = center;
position = "{398, 540}";
},
{
name = top;
position = "{420, 686}";
}
);
layerId = "A5125C76-E837-47F7-9C8F-34BD6CC95EDD";
paths = (
{
closed = 1;
nodes = (
"126 0 LINE",
"179 303 LINE",
"530 303 LINE",
"476 0 LINE",
"587 0 LINE",
"708 686 LINE",
"597 686 LINE",
"547 399 LINE",
"196 399 LINE",
"247 686 LINE",
"136 686 LINE",
"15 0 LINE"
);
}
);
width = 722;
},
{
anchors = (
{
name = bottom;
position = "{305, 0}";
},
{
name = center;
position = "{397, 540}";
},
{
name = top;
position = "{417, 686}";
}
);
layerId = "9D48804D-E8D2-4297-83C4-532547FA9139";
paths = (
{
closed = 1;
nodes = (
"140 0 LINE",
"192 296 LINE",
"517 296 LINE",
"464 0 LINE",
"592 0 LINE",
"713 686 LINE",
"585 686 LINE",
"536 406 LINE",
"211 406 LINE",
"261 686 LINE",
"133 686 LINE",
"12 0 LINE"
);
}
);
width = 722;
},
{
anchors = (
{
name = bottom;
position = "{308, 0}";
},
{
name = center;
position = "{399, 540}";
},
{
name = top;
position = "{422, 686}";
}
);
layerId = "C3F11B4E-1713-4D30-9530-E487AEA06E69";
paths = (
{
closed = 1;
nodes = (
"154 0 LINE",
"205 289 LINE",
"503 289 LINE",
"452 0 LINE",
"597 0 LINE",
"718 686 LINE",
"573 686 LINE",
"525 414 LINE",
"227 414 LINE",
"275 686 LINE",
"130 686 LINE",
"9 0 LINE"
);
}
);
width = 722;
}
);
leftKerningGroup = H;
note = H;
rightKerningGroup = H;
unicode = 0048;
},
{
glyphname = I;
lastChange = "2018-07-29 23:24:57 +0000";
layers = (
{
anchors = (
{
name = bottom;
position = "{79, 0}";
},
{
name = ogonek;
position = "{114, 0}";
},
{
name = top;
position = "{194, 686}";
}
);
layerId = "F2AF9F09-4B67-43C0-B796-5CA32800A179";
paths = (
{
closed = 1;
nodes = (
"126 0 LINE",
"247 686 LINE",
"152 686 LINE",
"31 0 LINE"
);
}
);
width = 278;
},
{
anchors = (
{
name = bottom;
position = "{80, 0}";
},
{
name = ogonek;
position = "{116, 0}";
},
{
name = top;
position = "{198, 686}";
}
);
layerId = "A5125C76-E837-47F7-9C8F-34BD6CC95EDD";
paths = (
{
closed = 1;
nodes = (
"135 0 LINE",
"256 686 LINE",
"145 686 LINE",
"24 0 LINE"
);
}
);
width = 278;
},
{
anchors = (
{
name = bottom;
position = "{81, 0}";
},
{
name = ogonek;
position = "{123, 0}";
},
{
name = top;
position = "{199, 686}";
}
);
layerId = "9D48804D-E8D2-4297-83C4-532547FA9139";
paths = (
{
closed = 1;
nodes = (
"144 0 LINE",
"265 686 LINE",
"138 686 LINE",
"17 0 LINE"
);
}
);
width = 278;
},
{
anchors = (
{
name = bottom;
position = "{82, 0}";
},
{
name = ogonek;
position = "{128, 0}";
},
{
name = top;
position = "{203, 686}";
}
);
layerId = "C3F11B4E-1713-4D30-9530-E487AEA06E69";
paths = (
{
closed = 1;
nodes = (
"154 0 LINE",
"275 686 LINE",
"130 686 LINE",
"9 0 LINE"
);
}
);
width = 278;
}
);
leftKerningGroup = H;
note = I;
rightKerningGroup = H;
unicode = 0049;
},
{
glyphname = J;
lastChange = "2018-07-29 23:24:57 +0000";
layers = (
{
anchors = (
{
name = top;
position = "{434, 686}";
}
);
layerId = "F2AF9F09-4B67-43C0-B796-5CA32800A179";
paths = (
{
closed = 1;
nodes = (
"293 -12 OFFCURVE",
"370 48 OFFCURVE",
"397 199 CURVE SMOOTH",
"483 686 LINE",
"388 686 LINE",
"301 194 LINE SMOOTH",
"285 102 OFFCURVE",
"238 69 OFFCURVE",
"167 69 CURVE SMOOTH",
"118 69 OFFCURVE",
"92 96 OFFCURVE",
"92 148 CURVE SMOOTH",
"92 157 OFFCURVE",
"94 180 OFFCURVE",
"101 208 CURVE",
"6 208 LINE",
"-2 175 OFFCURVE",
"-3 150 OFFCURVE",
"-3 135 CURVE SMOOTH",
"-3 38 OFFCURVE",
"58 -12 OFFCURVE",
"173 -12 CURVE SMOOTH"
);
}
);
width = 500;
},
{
anchors = (
{
name = top;
position = "{449, 686}";
}
);
layerId = "A5125C76-E837-47F7-9C8F-34BD6CC95EDD";
paths = (
{
closed = 1;
nodes = (
"313 -12 OFFCURVE",
"393 51 OFFCURVE",
"419 197 CURVE SMOOTH",
"505 686 LINE",
"395 686 LINE",
"308 194 LINE SMOOTH",
"294 115 OFFCURVE",
"250 82 OFFCURVE",
"183 82 CURVE SMOOTH",
"131 82 OFFCURVE",
"107 107 OFFCURVE",
"107 156 CURVE SMOOTH",
"107 165 OFFCURVE",
"109 188 OFFCURVE",
"116 217 CURVE",
"6 217 LINE",
"-2 181 OFFCURVE",
"-4 156 OFFCURVE",
"-4 138 CURVE SMOOTH",
"-4 39 OFFCURVE",
"63 -12 OFFCURVE",
"187 -12 CURVE SMOOTH"
);
}
);
width = 517;
},
{
anchors = (
{
name = top;
position = "{464, 686}";
}
);
layerId = "9D48804D-E8D2-4297-83C4-532547FA9139";
paths = (
{
closed = 1;
nodes = (
"335 -12 OFFCURVE",
"419 55 OFFCURVE",
"444 195 CURVE SMOOTH",
"531 686 LINE",
"402 686 LINE",
"315 195 LINE SMOOTH",
"304 129 OFFCURVE",
"264 96 OFFCURVE",
"200 96 CURVE SMOOTH",
"146 96 OFFCURVE",
"124 119 OFFCURVE",
"124 166 CURVE SMOOTH",
"124 174 OFFCURVE",
"126 196 OFFCURVE",
"134 226 CURVE",
"7 226 LINE",
"-2 188 OFFCURVE",
"-4 163 OFFCURVE",
"-4 142 CURVE SMOOTH",
"-4 40 OFFCURVE",
"69 -12 OFFCURVE",
"203 -12 CURVE SMOOTH"
);
}
);
width = 537;
},
{
anchors = (
{
name = top;
position = "{480, 686}";
}
);
background = {
paths = (
{
closed = 1;
nodes = (
"349 -12 OFFCURVE",
"445 58 OFFCURVE",
"469 193 CURVE SMOOTH",
"556 686 LINE",
"410 686 LINE",
"323 195 LINE SMOOTH",
"313 141 OFFCURVE",
"279 110 OFFCURVE",
"220 110 CURVE SMOOTH",
"159 110 OFFCURVE",
"134 141 OFFCURVE",
"143 195 CURVE SMOOTH",
"150 236 LINE",
"6 236 LINE",
"-1 193 LINE SMOOTH",
"-23 58 OFFCURVE",
"47 -12 OFFCURVE",
"198 -12 CURVE SMOOTH"
);
}
);
};
layerId = "C3F11B4E-1713-4D30-9530-E487AEA06E69";
paths = (
{
closed = 1;
nodes = (
"358 -12 OFFCURVE",
"445 58 OFFCURVE",
"469 193 CURVE SMOOTH",
"556 686 LINE",
"410 686 LINE",
"323 195 LINE SMOOTH",
"314 143 OFFCURVE",
"278 110 OFFCURVE",
"218 110 CURVE SMOOTH",
"161 110 OFFCURVE",
"141 131 OFFCURVE",
"141 175 CURVE SMOOTH",
"141 183 OFFCURVE",
"143 205 OFFCURVE",
"151 236 CURVE",
"7 236 LINE",
"-2 195 OFFCURVE",
"-5 170 OFFCURVE",
"-5 145 CURVE SMOOTH",
"-5 41 OFFCURVE",
"75 -12 OFFCURVE",
"219 -12 CURVE SMOOTH"
);
}
);
width = 556;
}
);
leftKerningGroup = J;
note = J;
rightKerningGroup = J;
unicode = 004A;
},
{
glyphname = Jacute;
lastChange = "2018-08-03 01:09:45 +0000";
layers = (
{
background = {
paths = (
{
closed = 1;
nodes = (
"571 -12 OFFCURVE",
"648 48 OFFCURVE",
"675 199 CURVE SMOOTH",
"761 686 LINE",
"666 686 LINE",
"579 194 LINE SMOOTH",
"563 102 OFFCURVE",
"516 69 OFFCURVE",
"445 69 CURVE SMOOTH",
"396 69 OFFCURVE",
"370 96 OFFCURVE",
"370 148 CURVE SMOOTH",
"370 157 OFFCURVE",
"372 180 OFFCURVE",
"379 208 CURVE",
"284 208 LINE",
"276 175 OFFCURVE",
"275 150 OFFCURVE",
"275 135 CURVE SMOOTH",
"275 38 OFFCURVE",
"336 -12 OFFCURVE",
"451 -12 CURVE SMOOTH"
);
},
{
closed = 1;
nodes = (
"126 0 LINE",
"247 686 LINE",
"152 686 LINE",
"31 0 LINE"
);
},
{
closed = 1;
nodes = (
"238 738 LINE",
"366 867 LINE",
"365 870 LINE",
"269 870 LINE",
"163 738 LINE"
);
},
{
closed = 1;
nodes = (
"751 736 LINE",
"879 865 LINE",
"878 868 LINE",
"782 868 LINE",
"676 736 LINE"
);
}
);
};
components = (
{
name = I;
},
{
name = acutecomb.case;
transform = "{1, 0, 0, 1, 86, 160}";
},
{
name = J;
transform = "{1, 0, 0, 1, 278, 0}";
},
{
name = acutecomb.case;
transform = "{1, 0, 0, 1, 604, 160}";
}
);
layerId = "F2AF9F09-4B67-43C0-B796-5CA32800A179";
width = 778;
},
{
background = {
paths = (
{
closed = 1;
nodes = (
"591 -12 OFFCURVE",
"671 51 OFFCURVE",
"697 197 CURVE SMOOTH",
"783 686 LINE",
"673 686 LINE",
"586 194 LINE SMOOTH",
"572 115 OFFCURVE",
"528 82 OFFCURVE",
"461 82 CURVE SMOOTH",
"409 82 OFFCURVE",
"385 107 OFFCURVE",
"385 156 CURVE SMOOTH",
"385 165 OFFCURVE",
"387 188 OFFCURVE",
"394 217 CURVE",
"284 217 LINE",
"276 181 OFFCURVE",
"274 156 OFFCURVE",
"274 138 CURVE SMOOTH",
"274 39 OFFCURVE",
"341 -12 OFFCURVE",
"465 -12 CURVE SMOOTH"
);
},
{
closed = 1;
nodes = (
"135 0 LINE",
"256 686 LINE",
"145 686 LINE",
"24 0 LINE"
);
},
{
closed = 1;
nodes = (
"244 738 LINE",
"372 867 LINE",
"371 870 LINE",
"264 870 LINE",
"160 738 LINE"
);
},
{
closed = 1;
nodes = (
"772 736 LINE",
"900 865 LINE",
"899 868 LINE",
"792 868 LINE",
"688 736 LINE"
);
}
);
};
components = (
{
name = I;
},
{
name = acutecomb.case;
transform = "{1, 0, 0, 1, 91, 160}";
},
{
name = J;
transform = "{1, 0, 0, 1, 278, 0}";
},
{
name = acutecomb.case;
transform = "{1, 0, 0, 1, 620, 160}";
}
);
layerId = "A5125C76-E837-47F7-9C8F-34BD6CC95EDD";
width = 795;
},
{
background = {
paths = (
{
closed = 1;
nodes = (
"613 -12 OFFCURVE",
"697 55 OFFCURVE",
"722 195 CURVE SMOOTH",
"809 686 LINE",
"680 686 LINE",
"593 195 LINE SMOOTH",
"582 129 OFFCURVE",
"542 96 OFFCURVE",
"478 96 CURVE SMOOTH",
"424 96 OFFCURVE",
"402 119 OFFCURVE",
"402 166 CURVE SMOOTH",
"402 174 OFFCURVE",
"404 196 OFFCURVE",
"412 226 CURVE",
"285 226 LINE",
"276 188 OFFCURVE",
"274 163 OFFCURVE",
"274 142 CURVE SMOOTH",
"274 40 OFFCURVE",
"347 -12 OFFCURVE",
"481 -12 CURVE SMOOTH"
);
},
{
closed = 1;
nodes = (
"144 0 LINE",
"265 686 LINE",
"138 686 LINE",
"17 0 LINE"
);
},
{
closed = 1;
nodes = (
"258 738 LINE",
"386 867 LINE",
"385 870 LINE",
"264 870 LINE",
"163 738 LINE"
);
},
{
closed = 1;
nodes = (
"799 736 LINE",
"927 865 LINE",
"926 868 LINE",
"805 868 LINE",
"704 736 LINE"
);
}
);
};
components = (
{
name = I;
},
{
name = acutecomb.case;
transform = "{1, 0, 0, 1, 94, 160}";
},
{
name = J;
transform = "{1, 0, 0, 1, 278, 0}";
},
{
name = acutecomb.case;
transform = "{1, 0, 0, 1, 637, 160}";
}
);
layerId = "9D48804D-E8D2-4297-83C4-532547FA9139";
width = 815;
},
{
background = {
paths = (
{
closed = 1;
nodes = (
"636 -12 OFFCURVE",
"723 58 OFFCURVE",
"747 193 CURVE SMOOTH",
"834 686 LINE",
"688 686 LINE",
"601 195 LINE SMOOTH",
"592 143 OFFCURVE",
"556 110 OFFCURVE",
"496 110 CURVE SMOOTH",
"439 110 OFFCURVE",
"419 131 OFFCURVE",
"419 175 CURVE SMOOTH",
"419 183 OFFCURVE",
"421 205 OFFCURVE",
"429 236 CURVE",
"285 236 LINE",
"276 195 OFFCURVE",
"273 170 OFFCURVE",
"273 145 CURVE SMOOTH",
"273 41 OFFCURVE",
"353 -12 OFFCURVE",
"497 -12 CURVE SMOOTH"
);
},
{
closed = 1;
nodes = (
"154 0 LINE",
"275 686 LINE",
"130 686 LINE",
"9 0 LINE"
);
},
{
closed = 1;
nodes = (
"258 738 LINE",
"386 867 LINE",
"385 870 LINE",
"252 870 LINE",
"153 738 LINE"
);
},
{
closed = 1;
nodes = (
"822 736 LINE",
"950 865 LINE",
"949 868 LINE",
"816 868 LINE",
"717 736 LINE"
);
}
);
};
components = (
{
name = I;
},
{
name = acutecomb.case;
transform = "{1, 0, 0, 1, 95, 160}";
},
{
name = J;
transform = "{1, 0, 0, 1, 278, 0}";
},
{
name = acutecomb.case;
transform = "{1, 0, 0, 1, 650, 160}";
}
);
layerId = "C3F11B4E-1713-4D30-9530-E487AEA06E69";
width = 834;
}
);
leftKerningGroup = H;
rightKerningGroup = J;
},
{
glyphname = K;
lastChange = "2018-07-29 23:24:57 +0000";
layers = (
{
anchors = (
{
name = bottom;
position = "{292, 0}";
}
);
layerId = "F2AF9F09-4B67-43C0-B796-5CA32800A179";
paths = (
{
closed = 1;
nodes = (
"113 0 LINE",
"147 195 LINE",
"333 346 LINE",
"498 0 LINE",
"603 0 LINE",
"407 411 LINE",
"715 686 LINE",
"591 686 LINE",
"167 308 LINE",
"234 686 LINE",
"139 686 LINE",
"18 0 LINE"
);
}
);
width = 667;
},
{
anchors = (
{
name = bottom;
position = "{302, 0}";
}
);
layerId = "A5125C76-E837-47F7-9C8F-34BD6CC95EDD";
paths = (
{
closed = 1;
nodes = (
"126 0 LINE",
"159 192 LINE",
"335 334 LINE",
"495 0 LINE",
"618 0 LINE",
"421 409 LINE",
"731 686 LINE",
"587 686 LINE",
"183 325 LINE",
"247 686 LINE",
"136 686 LINE",
"15 0 LINE"
);
}
);
width = 684;
},
{
anchors = (
{
name = bottom;
position = "{304, 0}";
}
);
layerId = "9D48804D-E8D2-4297-83C4-532547FA9139";
paths = (
{
closed = 1;
nodes = (
"140 0 LINE",
"173 189 LINE",
"338 321 LINE",
"491 0 LINE",
"634 0 LINE",
"436 407 LINE",
"750 686 LINE",
"582 686 LINE",
"200 344 LINE",
"261 686 LINE",
"133 686 LINE",
"12 0 LINE"
);
}
);
width = 703;
},
{
anchors = (
{
name = bottom;
position = "{310, 0}";
}
);
background = {
paths = (
{
closed = 1;
nodes = (
"130 686 LINE",
"10 0 LINE",
"155 0 LINE",
"190 199 LINE",
"336 305 LINE",
"480 0 LINE",
"652 0 LINE",
"451 407 LINE",
"768 686 LINE",
"592 686 LINE",
"217 355 LINE",
"275 686 LINE"
);
}
);
};
layerId = "C3F11B4E-1713-4D30-9530-E487AEA06E69";
paths = (
{
closed = 1;
nodes = (
"154 0 LINE",
"187 186 LINE",
"341 307 LINE",
"487 0 LINE",
"651 0 LINE",
"452 405 LINE",
"768 686 LINE",
"577 686 LINE",
"218 363 LINE",
"275 686 LINE",
"130 686 LINE",
"9 0 LINE"
);
}
);
width = 722;
}
);
leftKerningGroup = H;
note = K;
rightKerningGroup = K;
unicode = 004B;
},
{
glyphname = L;
lastChange = "2018-07-29 23:24:57 +0000";
layers = (
{
anchors = (
{
name = bottom;
position = "{247, 0}";
},
{
name = center;
position = "{410, 360}";
},
{
name = top;
position = "{183, 686}";
},
{
name = topright;
position = "{306, 526}";
}
);
layerId = "F2AF9F09-4B67-43C0-B796-5CA32800A179";
paths = (
{
closed = 1;
nodes = (
"482 0 LINE",
"497 83 LINE",
"128 83 LINE",
"234 686 LINE",
"139 686 LINE",
"18 0 LINE"
);
}
);
width = 556;
},
{
anchors = (
{
name = bottom;
position = "{255, 0}";
},
{
name = center;
position = "{421, 360}";
},
{
name = top;
position = "{188, 686}";
},
{
name = topright;
position = "{319, 526}";
}
);
layerId = "A5125C76-E837-47F7-9C8F-34BD6CC95EDD";
paths = (
{
closed = 1;
nodes = (
"495 0 LINE",
"512 96 LINE",
"143 96 LINE",
"247 686 LINE",
"136 686 LINE",
"15 0 LINE"
);
}
);
width = 573;
},
{
anchors = (
{
name = bottom;
position = "{267, 0}";
},
{
name = center;
position = "{437, 370}";
},
{
name = top;
position = "{194, 686}";
},
{
name = topright;
position = "{333, 526}";
}
);
layerId = "9D48804D-E8D2-4297-83C4-532547FA9139";
paths = (
{
closed = 1;
nodes = (
"509 0 LINE",
"529 111 LINE",
"159 111 LINE",
"261 686 LINE",
"133 686 LINE",
"12 0 LINE"
);
}
);
width = 592;
},
{
anchors = (
{
name = bottom;
position = "{274, 0}";
},
{
name = center;
position = "{450, 370}";
},
{
name = top;
position = "{198, 686}";
},
{
name = topright;
position = "{346, 526}";
}
);
layerId = "C3F11B4E-1713-4D30-9530-E487AEA06E69";
paths = (
{
closed = 1;
nodes = (
"524 0 LINE",
"546 126 LINE",
"176 126 LINE",
"274 686 LINE",
"129 686 LINE",
"9 0 LINE"
);
}
);
width = 611;
}
);
leftKerningGroup = H;
note = L;
rightKerningGroup = L;
unicode = 004C;
},
{
glyphname = Lslash;
lastChange = "2018-07-29 23:24:57 +0000";
layers = (
{
layerId = "F2AF9F09-4B67-43C0-B796-5CA32800A179";
paths = (
{
closed = 1;
nodes = (
"466 0 LINE",
"480 83 LINE",
"128 83 LINE",
"171 328 LINE",
"391 458 LINE",
"406 540 LINE",
"186 409 LINE",
"234 686 LINE",
"139 686 LINE",
"80 346 LINE",
"-3 297 LINE",
"-17 216 LINE",
"65 265 LINE",
"19 0 LINE"
);
}
);
width = 556;
},
{
layerId = "A5125C76-E837-47F7-9C8F-34BD6CC95EDD";
paths = (
{
closed = 1;
nodes = (
"496 0 LINE",
"512 96 LINE",
"142 96 LINE",
"184 332 LINE",
"385 451 LINE",
"401 539 LINE",
"199 419 LINE",
"246 686 LINE",
"135 686 LINE",
"75 345 LINE",
"-4 298 LINE",
"-19 211 LINE",
"60 258 LINE",
"15 0 LINE"
);
}
);
width = 573;
},
{
layerId = "9D48804D-E8D2-4297-83C4-532547FA9139";
paths = (
{
closed = 1;
nodes = (
"510 0 LINE",
"529 111 LINE",
"158 111 LINE",
"197 334 LINE",
"387 445 LINE",
"404 540 LINE",
"214 429 LINE",
"259 686 LINE",
"131 686 LINE",
"72 346 LINE",
"-5 301 LINE",
"-22 206 LINE",
"55 251 LINE",
"11 0 LINE"
);
}
);
width = 592;
},
{
layerId = "C3F11B4E-1713-4D30-9530-E487AEA06E69";
paths = (
{
closed = 1;
nodes = (
"522 0 LINE",
"544 126 LINE",
"174 126 LINE",
"209 325 LINE",
"389 434 LINE",
"407 536 LINE",
"227 427 LINE",
"272 686 LINE",
"127 686 LINE",
"64 328 LINE",
"-11 283 LINE",
"-29 181 LINE",
"46 226 LINE",
"7 0 LINE"
);
}
);
width = 611;
}
);
leftKerningGroup = H;
note = Lslash;
rightKerningGroup = L;
unicode = 0141;
},
{
glyphname = M;
lastChange = "2018-07-29 23:24:57 +0000";
layers = (
{
layerId = "F2AF9F09-4B67-43C0-B796-5CA32800A179";
paths = (
{
closed = 1;
nodes = (
"107 0 LINE",
"187 453 LINE SMOOTH",
"192 481 OFFCURVE",
"207 581 OFFCURVE",
"207 581 CURVE",
"213 581 LINE",
"213 581 OFFCURVE",
"215 537 OFFCURVE",
"219 515 CURVE SMOOTH",
"312 0 LINE",
"392 0 LINE",
"668 515 LINE SMOOTH",
"682 541 OFFCURVE",
"696 581 OFFCURVE",
"696 581 CURVE",
"703 581 LINE",
"695 538 OFFCURVE",
"687 496 OFFCURVE",
"679 453 CURVE",
"599 0 LINE",
"694 0 LINE",
"815 686 LINE",
"668 686 LINE",
"420 218 LINE SMOOTH",
"401 183 OFFCURVE",
"376 115 OFFCURVE",
"376 115 CURVE SMOOTH",
"372 115 LINE SMOOTH",
"372 115 OFFCURVE",
"371 176 OFFCURVE",
"363 218 CURVE SMOOTH",
"278 686 LINE",
"139 686 LINE",
"18 0 LINE"
);
}
);
width = 833;
},
{
layerId = "A5125C76-E837-47F7-9C8F-34BD6CC95EDD";
paths = (
{
closed = 1;
nodes = (
"120 0 LINE",
"199 448 LINE SMOOTH",
"204 476 OFFCURVE",
"217 571 OFFCURVE",
"217 571 CURVE",
"222 571 LINE",
"223 562 OFFCURVE",
"225 523 OFFCURVE",
"228 499 CURVE SMOOTH",
"303 0 LINE",
"402 0 LINE",
"655 499 LINE SMOOTH",
"668 526 OFFCURVE",
"681 562 OFFCURVE",
"685 571 CURVE",
"691 571 LINE",
"667 448 LINE",
"588 0 LINE",
"698 0 LINE",
"819 686 LINE",
"648 686 LINE",
"426 246 LINE SMOOTH",
"408 209 OFFCURVE",
"379 127 OFFCURVE",
"379 127 CURVE SMOOTH",
"374 127 LINE SMOOTH",
"374 127 OFFCURVE",
"373 203 OFFCURVE",
"367 246 CURVE SMOOTH",
"299 686 LINE",
"136 686 LINE",
"15 0 LINE"
);
}
);
width = 833;
},
{
layerId = "9D48804D-E8D2-4297-83C4-532547FA9139";
paths = (
{
closed = 1;
nodes = (
"134 0 LINE",
"212 443 LINE SMOOTH",
"217 470 OFFCURVE",
"228 559 OFFCURVE",
"228 559 CURVE",
"233 559 LINE",
"235 541 OFFCURVE",
"237 508 OFFCURVE",
"239 482 CURVE SMOOTH",
"292 0 LINE",
"414 0 LINE",
"639 482 LINE SMOOTH",
"652 509 OFFCURVE",
"665 541 OFFCURVE",
"672 559 CURVE",
"678 559 LINE",
"678 559 OFFCURVE",
"658 469 OFFCURVE",
"654 443 CURVE SMOOTH",
"575 0 LINE",
"703 0 LINE",
"824 686 LINE",
"626 686 LINE",
"433 277 LINE SMOOTH",
"415 239 OFFCURVE",
"382 140 OFFCURVE",
"382 140 CURVE SMOOTH",
"377 140 LINE SMOOTH",
"377 140 OFFCURVE",
"376 233 OFFCURVE",
"371 277 CURVE SMOOTH",
"322 686 LINE",
"133 686 LINE",
"12 0 LINE"
);
}
);
width = 833;
},
{
background = {
paths = (
{
closed = 1;
nodes = (
"130 686 LINE",
"10 0 LINE",
"150 0 LINE",
"227 437 LINE SMOOTH",
"232 464 OFFCURVE",
"240 547 OFFCURVE",
"240 547 CURVE",
"245 547 LINE",
"252 466 LINE",
"288 0 LINE",
"426 0 LINE",
"626 466 LINE",
"661 547 LINE",
"666 547 LINE",
"666 547 OFFCURVE",
"646 468 OFFCURVE",
"641 437 CURVE SMOOTH",
"564 0 LINE",
"709 0 LINE",
"829 686 LINE",
"613 686 LINE",
"451 308 LINE SMOOTH",
"434 268 OFFCURVE",
"395 153 OFFCURVE",
"395 153 CURVE SMOOTH",
"390 153 LINE SMOOTH",
"390 153 OFFCURVE",
"390 263 OFFCURVE",
"386 308 CURVE SMOOTH",
"356 686 LINE"
);
}
);
};
layerId = "C3F11B4E-1713-4D30-9530-E487AEA06E69";
paths = (
{
closed = 1;
nodes = (
"149 0 LINE",
"226 437 LINE SMOOTH",
"231 464 OFFCURVE",
"239 547 OFFCURVE",
"239 547 CURVE",
"244 547 LINE",
"250 464 LINE",
"282 0 LINE",
"425 0 LINE",
"624 464 LINE",
"660 547 LINE",
"665 547 LINE",
"665 547 OFFCURVE",
"646 468 OFFCURVE",
"640 437 CURVE SMOOTH",
"563 0 LINE",
"708 0 LINE",
"829 686 LINE",
"603 686 LINE",
"440 308 LINE SMOOTH",
"423 268 OFFCURVE",
"385 153 OFFCURVE",
"385 153 CURVE SMOOTH",
"380 153 LINE SMOOTH",
"380 153 OFFCURVE",
"379 263 OFFCURVE",
"375 308 CURVE SMOOTH",
"346 686 LINE",
"130 686 LINE",
"9 0 LINE"
);
}
);
width = 833;
}
);
leftKerningGroup = H;
note = M;
rightKerningGroup = H;
unicode = 004D;
},
{
glyphname = N;
lastChange = "2018-07-29 23:24:57 +0000";
layers = (
{
anchors = (
{
name = bottom;
position = "{303, 0}";
},
{
name = top;
position = "{422, 686}";
}
);
layerId = "F2AF9F09-4B67-43C0-B796-5CA32800A179";
paths = (
{
closed = 1;
nodes = (
"107 0 LINE",
"188 462 LINE",
"192 485 OFFCURVE",
"196 508 OFFCURVE",
"200 531 CURVE",
"205 532 LINE",
"215 514 OFFCURVE",
"226 495 OFFCURVE",
"236 477 CURVE",
"502 0 LINE",
"583 0 LINE",
"704 686 LINE",
"615 686 LINE",
"534 226 LINE",
"530 205 OFFCURVE",
"527 185 OFFCURVE",
"523 164 CURVE",
"519 163 LINE",
"511 178 OFFCURVE",
"502 192 OFFCURVE",
"494 207 CURVE SMOOTH",
"224 686 LINE",
"139 686 LINE",
"18 0 LINE"
);
}
);
width = 722;
},
{
anchors = (
{
name = bottom;
position = "{303, 0}";
},
{
name = top;
position = "{422, 686}";
}
);
layerId = "A5125C76-E837-47F7-9C8F-34BD6CC95EDD";
paths = (
{
closed = 1;
nodes = (
"120 0 LINE",
"197 441 LINE SMOOTH",
"201 463 OFFCURVE",
"205 491 OFFCURVE",
"208 507 CURVE",
"213 508 LINE",
"220 496 OFFCURVE",
"232 472 OFFCURVE",
"243 451 CURVE SMOOTH",
"488 0 LINE",
"587 0 LINE",
"708 686 LINE",
"603 686 LINE",
"526 246 LINE SMOOTH",
"523 228 OFFCURVE",
"519 200 OFFCURVE",
"516 185 CURVE",
"512 185 LINE",
"506 195 OFFCURVE",
"494 219 OFFCURVE",
"486 235 CURVE",
"238 686 LINE",
"136 686 LINE",
"15 0 LINE"
);
}
);
width = 722;
},
{
anchors = (
{
name = bottom;
position = "{305, 0}";
},
{
name = top;
position = "{424, 686}";
}
);
layerId = "9D48804D-E8D2-4297-83C4-532547FA9139";
paths = (
{
closed = 1;
nodes = (
"135 0 LINE",
"208 418 LINE SMOOTH",
"212 437 OFFCURVE",
"216 473 OFFCURVE",
"218 481 CURVE",
"223 481 LINE",
"226 475 OFFCURVE",
"239 445 OFFCURVE",
"252 421 CURVE SMOOTH",
"472 0 LINE",
"592 0 LINE",
"713 686 LINE",
"590 686 LINE",
"517 269 LINE",
"514 255 OFFCURVE",
"509 217 OFFCURVE",
"508 210 CURVE",
"503 209 LINE",
"501 215 OFFCURVE",
"485 249 OFFCURVE",
"476 266 CURVE SMOOTH",
"255 686 LINE",
"133 686 LINE",
"12 0 LINE"
);
}
);
width = 722;
},
{
anchors = (
{
name = bottom;
position = "{306, 0}";
},
{
name = top;
position = "{425, 686}";
}
);
background = {
paths = (
{
closed = 1;
nodes = (
"129 686 LINE",
"9 0 LINE",
"150 0 LINE",
"216 379 LINE SMOOTH",
"219 397 OFFCURVE",
"224 439 OFFCURVE",
"224 439 CURVE",
"229 442 LINE",
"229 442 OFFCURVE",
"242 404 OFFCURVE",
"257 376 CURVE SMOOTH",
"456 0 LINE",
"597 0 LINE",
"717 686 LINE",
"576 686 LINE",
"510 307 LINE SMOOTH",
"508 296 OFFCURVE",
"502 249 OFFCURVE",
"502 249 CURVE",
"497 246 LINE",
"497 246 OFFCURVE",
"479 295 OFFCURVE",
"469 313 CURVE SMOOTH",
"270 686 LINE"
);
}
);
};
layerId = "C3F11B4E-1713-4D30-9530-E487AEA06E69";
paths = (
{
closed = 1;
nodes = (
"150 0 LINE",
"219 394 LINE SMOOTH",
"222 412 OFFCURVE",
"227 454 OFFCURVE",
"227 454 CURVE",
"232 454 LINE",
"232 454 OFFCURVE",
"246 419 OFFCURVE",
"260 391 CURVE SMOOTH",
"456 0 LINE",
"597 0 LINE",
"718 686 LINE",
"577 686 LINE",
"508 292 LINE SMOOTH",
"506 281 OFFCURVE",
"500 234 OFFCURVE",
"500 234 CURVE SMOOTH",
"495 234 LINE SMOOTH",
"495 234 OFFCURVE",
"476 280 OFFCURVE",
"467 298 CURVE SMOOTH",
"271 686 LINE",
"130 686 LINE",
"9 0 LINE"
);
}
);
width = 722;
}
);
leftKerningGroup = H;
note = N;
rightKerningGroup = H;
unicode = 004E;
},
{
glyphname = Eng;
lastChange = "2018-07-29 23:24:57 +0000";
layers = (
{
layerId = "F2AF9F09-4B67-43C0-B796-5CA32800A179";
paths = (
{
closed = 1;
nodes = (
"537 -182 OFFCURVE",
"561 -121 OFFCURVE",
"572 -61 CURVE SMOOTH",
"704 686 LINE",
"615 686 LINE",
"534 226 LINE",
"530 205 OFFCURVE",
"527 185 OFFCURVE",
"523 164 CURVE",
"519 163 LINE",
"511 178 OFFCURVE",
"502 192 OFFCURVE",
"494 207 CURVE SMOOTH",
"224 686 LINE",
"139 686 LINE",
"18 0 LINE",
"107 0 LINE",
"190 467 LINE",
"192 490 OFFCURVE",
"194 514 OFFCURVE",
"196 537 CURVE",
"201 538 LINE",
"212 521 OFFCURVE",
"220 503 OFFCURVE",
"230 486 CURVE",
"496 10 LINE",
"483 -65 LINE SMOOTH",
"478 -96 OFFCURVE",
"460 -113 OFFCURVE",
"429 -113 CURVE SMOOTH",
"385 -113 LINE",
"375 -170 LINE",
"391 -176 OFFCURVE",
"418 -182 OFFCURVE",
"442 -182 CURVE SMOOTH"
);
}
);
width = 722;
},
{
layerId = "A5125C76-E837-47F7-9C8F-34BD6CC95EDD";
paths = (
{
closed = 1;
nodes = (
"537 -182 OFFCURVE",
"566 -118 OFFCURVE",
"578 -55 CURVE SMOOTH",
"708 686 LINE",
"603 686 LINE",
"526 246 LINE SMOOTH",
"523 228 OFFCURVE",
"519 200 OFFCURVE",
"516 185 CURVE",
"512 185 LINE",
"506 195 OFFCURVE",
"494 219 OFFCURVE",
"486 235 CURVE",
"238 686 LINE",
"136 686 LINE",
"15 0 LINE",
"120 0 LINE",
"199 445 LINE",
"201 466 OFFCURVE",
"204 496 OFFCURVE",
"205 512 CURVE",
"210 512 LINE",
"217 500 OFFCURVE",
"228 477 OFFCURVE",
"239 457 CURVE",
"484 7 LINE",
"473 -53 LINE SMOOTH",
"468 -83 OFFCURVE",
"451 -100 OFFCURVE",
"420 -100 CURVE SMOOTH",
"375 -100 LINE",
"363 -169 LINE",
"381 -175 OFFCURVE",
"414 -182 OFFCURVE",
"441 -182 CURVE SMOOTH"
);
}
);
width = 722;
},
{
layerId = "9D48804D-E8D2-4297-83C4-532547FA9139";
paths = (
{
closed = 1;
nodes = (
"537 -182 OFFCURVE",
"572 -114 OFFCURVE",
"584 -48 CURVE SMOOTH",
"713 686 LINE",
"590 686 LINE",
"517 269 LINE",
"514 255 OFFCURVE",
"509 217 OFFCURVE",
"508 210 CURVE",
"503 209 LINE",
"501 215 OFFCURVE",
"485 249 OFFCURVE",
"476 266 CURVE SMOOTH",
"255 686 LINE",
"133 686 LINE",
"12 0 LINE",
"135 0 LINE",
"209 419 LINE SMOOTH",
"212 439 OFFCURVE",
"216 475 OFFCURVE",
"216 483 CURVE",
"221 483 LINE",
"225 477 OFFCURVE",
"236 448 OFFCURVE",
"250 424 CURVE",
"470 3 LINE",
"462 -40 LINE SMOOTH",
"457 -69 OFFCURVE",
"440 -85 OFFCURVE",
"411 -85 CURVE SMOOTH",
"364 -85 LINE",
"350 -167 LINE",
"370 -175 OFFCURVE",
"409 -182 OFFCURVE",
"439 -182 CURVE SMOOTH"
);
}
);
width = 722;
},
{
layerId = "C3F11B4E-1713-4D30-9530-E487AEA06E69";
paths = (
{
closed = 1;
nodes = (
"537 -182 OFFCURVE",
"578 -111 OFFCURVE",
"590 -41 CURVE SMOOTH",
"718 686 LINE",
"577 686 LINE",
"508 292 LINE SMOOTH",
"506 281 OFFCURVE",
"500 234 OFFCURVE",
"500 234 CURVE SMOOTH",
"495 234 LINE SMOOTH",
"495 234 OFFCURVE",
"476 280 OFFCURVE",
"467 298 CURVE SMOOTH",
"271 686 LINE",
"130 686 LINE",
"9 0 LINE",
"150 0 LINE",
"219 394 LINE SMOOTH",
"222 412 OFFCURVE",
"227 454 OFFCURVE",
"227 454 CURVE",
"232 454 LINE",
"232 454 OFFCURVE",
"246 419 OFFCURVE",
"260 391 CURVE SMOOTH",
"456 0 LINE",
"451 -27 LINE SMOOTH",
"446 -55 OFFCURVE",
"429 -70 OFFCURVE",
"401 -70 CURVE SMOOTH",
"353 -70 LINE",
"337 -166 LINE",
"359 -174 OFFCURVE",
"404 -182 OFFCURVE",
"438 -182 CURVE SMOOTH"
);
}
);
width = 722;
}
);
leftKerningGroup = H;
note = Eng;
rightKerningGroup = H;
unicode = 014A;
},
{
glyphname = Nhookleft;
lastChange = "2018-07-29 23:24:57 +0000";
layers = (
{
layerId = "F2AF9F09-4B67-43C0-B796-5CA32800A179";
paths = (
{
closed = 1;
nodes = (
"61 -182 OFFCURVE",
"85 -121 OFFCURVE",
"96 -61 CURVE SMOOTH",
"181 420 LINE",
"200 531 LINE",
"205 532 LINE",
"221 504 OFFCURVE",
"236 475 OFFCURVE",
"252 447 CURVE SMOOTH",
"502 0 LINE",
"583 0 LINE",
"704 686 LINE",
"615 686 LINE",
"534 226 LINE",
"530 205 OFFCURVE",
"527 185 OFFCURVE",
"523 164 CURVE",
"519 163 LINE",
"511 178 OFFCURVE",
"502 192 OFFCURVE",
"494 207 CURVE SMOOTH",
"224 686 LINE",
"139 686 LINE",
"7 -65 LINE SMOOTH",
"2 -96 OFFCURVE",
"-16 -113 OFFCURVE",
"-47 -113 CURVE SMOOTH",
"-91 -113 LINE",
"-101 -170 LINE",
"-85 -176 OFFCURVE",
"-58 -182 OFFCURVE",
"-34 -182 CURVE SMOOTH"
);
}
);
width = 722;
},
{
layerId = "A5125C76-E837-47F7-9C8F-34BD6CC95EDD";
paths = (
{
closed = 1;
nodes = (
"70 -182 OFFCURVE",
"99 -118 OFFCURVE",
"110 -55 CURVE SMOOTH",
"193 412 LINE",
"208 507 LINE",
"213 508 LINE",
"224 489 OFFCURVE",
"239 458 OFFCURVE",
"254 430 CURVE SMOOTH",
"488 0 LINE",
"587 0 LINE",
"708 686 LINE",
"603 686 LINE",
"526 246 LINE SMOOTH",
"523 228 OFFCURVE",
"519 200 OFFCURVE",
"516 185 CURVE",
"512 185 LINE",
"506 195 OFFCURVE",
"494 219 OFFCURVE",
"486 235 CURVE",
"238 686 LINE",
"136 686 LINE",
"6 -53 LINE SMOOTH",
"1 -83 OFFCURVE",
"-17 -100 OFFCURVE",
"-47 -100 CURVE SMOOTH",
"-92 -100 LINE",
"-104 -169 LINE",
"-86 -175 OFFCURVE",
"-53 -182 OFFCURVE",
"-26 -182 CURVE SMOOTH"
);
}
);
width = 722;
},
{
layerId = "9D48804D-E8D2-4297-83C4-532547FA9139";
paths = (
{
closed = 1;
nodes = (
"80 -182 OFFCURVE",
"115 -114 OFFCURVE",
"127 -48 CURVE SMOOTH",
"206 403 LINE",
"218 481 LINE",
"223 481 LINE",
"228 471 OFFCURVE",
"243 438 OFFCURVE",
"257 410 CURVE SMOOTH",
"472 0 LINE",
"592 0 LINE",
"713 686 LINE",
"590 686 LINE",
"517 269 LINE",
"514 255 OFFCURVE",
"509 217 OFFCURVE",
"508 210 CURVE",
"503 209 LINE",
"501 215 OFFCURVE",
"485 249 OFFCURVE",
"476 266 CURVE SMOOTH",
"255 686 LINE",
"133 686 LINE",
"5 -40 LINE SMOOTH",
"0 -69 OFFCURVE",
"-17 -85 OFFCURVE",
"-46 -85 CURVE SMOOTH",
"-93 -85 LINE",
"-107 -167 LINE",
"-87 -175 OFFCURVE",
"-48 -182 OFFCURVE",
"-18 -182 CURVE SMOOTH"
);
}
);
width = 722;
},
{
layerId = "C3F11B4E-1713-4D30-9530-E487AEA06E69";
paths = (
{
closed = 1;
nodes = (
"90 -182 OFFCURVE",
"131 -111 OFFCURVE",
"143 -41 CURVE SMOOTH",
"219 394 LINE SMOOTH",
"222 412 OFFCURVE",
"227 454 OFFCURVE",
"227 454 CURVE",
"232 454 LINE",
"232 454 OFFCURVE",
"246 419 OFFCURVE",
"260 391 CURVE SMOOTH",
"456 0 LINE",
"597 0 LINE",
"718 686 LINE",
"577 686 LINE",
"508 292 LINE SMOOTH",
"506 281 OFFCURVE",
"500 234 OFFCURVE",
"500 234 CURVE SMOOTH",
"495 234 LINE SMOOTH",
"495 234 OFFCURVE",
"476 280 OFFCURVE",
"467 298 CURVE SMOOTH",
"271 686 LINE",
"130 686 LINE",
"4 -27 LINE SMOOTH",
"-1 -55 OFFCURVE",
"-18 -70 OFFCURVE",
"-46 -70 CURVE SMOOTH",
"-94 -70 LINE",
"-110 -166 LINE",
"-88 -174 OFFCURVE",
"-43 -182 OFFCURVE",
"-9 -182 CURVE SMOOTH"
);
}
);
width = 722;
}
);
leftKerningGroup = H;
note = uni019D;
rightKerningGroup = H;
unicode = 019D;
},
{
glyphname = O;
lastChange = "2018-07-29 23:24:57 +0000";
layers = (
{
anchors = (
{
name = bottom;
position = "{358, 0}";
},
{
name = center;
position = "{403, 346}";
},
{
name = ogonek;
position = "{396, 0}";
},
{
name = top;
position = "{464, 686}";
},
{
name = topright;
position = "{556, 686}";
}
);
layerId = "F2AF9F09-4B67-43C0-B796-5CA32800A179";
paths = (
{
closed = 1;
nodes = (
"566 -11 OFFCURVE",
"709 111 OFFCURVE",
"746 338 CURVE SMOOTH",
"751 369 OFFCURVE",
"755 401 OFFCURVE",
"755 434 CURVE SMOOTH",
"755 600 OFFCURVE",
"645 698 OFFCURVE",
"459 699 CURVE SMOOTH",
"239 700 OFFCURVE",
"97 577 OFFCURVE",
"61 352 CURVE SMOOTH",
"56 321 OFFCURVE",
"52 289 OFFCURVE",
"52 256 CURVE SMOOTH",
"52 88 OFFCURVE",
"162 -11 OFFCURVE",
"349 -11 CURVE SMOOTH"
);
},
{
closed = 1;
nodes = (
"224 71 OFFCURVE",
"150 140 OFFCURVE",
"150 256 CURVE SMOOTH",
"150 285 OFFCURVE",
"152 312 OFFCURVE",
"157 338 CURVE SMOOTH",
"193 526 OFFCURVE",
"289 618 OFFCURVE",
"459 618 CURVE SMOOTH",
"583 618 OFFCURVE",
"657 550 OFFCURVE",
"657 434 CURVE SMOOTH",
"657 405 OFFCURVE",
"655 378 OFFCURVE",
"650 352 CURVE SMOOTH",
"614 163 OFFCURVE",
"518 71 OFFCURVE",
"349 71 CURVE SMOOTH"
);
}
);
width = 778;
},
{
anchors = (
{
name = bottom;
position = "{359, 0}";
},
{
name = center;
position = "{404, 345}";
},
{
name = ogonek;
position = "{401, 0}";
},
{
name = top;
position = "{465, 686}";
},
{
name = topright;
position = "{547, 686}";
}
);
layerId = "A5125C76-E837-47F7-9C8F-34BD6CC95EDD";
paths = (
{
closed = 1;
nodes = (
"573 -11 OFFCURVE",
"712 116 OFFCURVE",
"749 340 CURVE SMOOTH",
"754 370 OFFCURVE",
"757 401 OFFCURVE",
"757 432 CURVE SMOOTH",
"757 603 OFFCURVE",
"645 698 OFFCURVE",
"455 698 CURVE SMOOTH",
"236 698 OFFCURVE",
"96 572 OFFCURVE",
"59 350 CURVE SMOOTH",
"54 320 OFFCURVE",
"51 289 OFFCURVE",
"51 256 CURVE SMOOTH",
"51 84 OFFCURVE",
"163 -11 OFFCURVE",
"353 -11 CURVE SMOOTH"
);
},
{
closed = 1;
nodes = (
"233 83 OFFCURVE",
"165 149 OFFCURVE",
"165 260 CURVE SMOOTH",
"165 285 OFFCURVE",
"167 310 OFFCURVE",
"173 344 CURVE SMOOTH",
"204 517 OFFCURVE",
"297 604 OFFCURVE",
"456 604 CURVE SMOOTH",
"575 604 OFFCURVE",
"643 540 OFFCURVE",
"643 429 CURVE SMOOTH",
"643 403 OFFCURVE",
"641 378 OFFCURVE",
"635 345 CURVE SMOOTH",
"603 171 OFFCURVE",
"511 83 OFFCURVE",
"352 83 CURVE SMOOTH"
);
}
);
width = 778;
},
{
anchors = (
{
name = bottom;
position = "{357, 0}";
},
{
name = center;
position = "{402, 341}";
},
{
name = ogonek;
position = "{401, 0}";
},
{
name = top;
position = "{463, 686}";
},
{
name = topright;
position = "{545, 686}";
}
);
layerId = "9D48804D-E8D2-4297-83C4-532547FA9139";
paths = (
{
closed = 1;
nodes = (
"576 -10 OFFCURVE",
"721 121 OFFCURVE",
"751 342 CURVE SMOOTH",
"755 371 OFFCURVE",
"758 400 OFFCURVE",
"758 431 CURVE SMOOTH",
"758 607 OFFCURVE",
"643 698 OFFCURVE",
"449 698 CURVE SMOOTH",
"230 698 OFFCURVE",
"91 567 OFFCURVE",
"55 348 CURVE SMOOTH",
"50 318 OFFCURVE",
"48 288 OFFCURVE",
"48 257 CURVE SMOOTH",
"48 79 OFFCURVE",
"162 -12 OFFCURVE",
"355 -11 CURVE SMOOTH"
);
},
{
closed = 1;
nodes = (
"240 97 OFFCURVE",
"179 158 OFFCURVE",
"179 264 CURVE SMOOTH",
"179 285 OFFCURVE",
"182 308 OFFCURVE",
"189 351 CURVE SMOOTH",
"214 505 OFFCURVE",
"304 590 OFFCURVE",
"450 590 CURVE SMOOTH",
"565 590 OFFCURVE",
"626 528 OFFCURVE",
"626 424 CURVE SMOOTH",
"626 401 OFFCURVE",
"624 379 OFFCURVE",
"616 336 CURVE SMOOTH",
"587 182 OFFCURVE",
"501 97 OFFCURVE",
"354 97 CURVE SMOOTH"
);
}
);
width = 778;
},
{
anchors = (
{
name = bottom;
position = "{358, 0}";
},
{
name = center;
position = "{402, 342}";
},
{
name = ogonek;
position = "{410, 0}";
},
{
name = top;
position = "{464, 686}";
},
{
name = topright;
position = "{546, 686}";
}
);
background = {
paths = (
{
closed = 1;
nodes = (
"542 -12 OFFCURVE",
"694 101 OFFCURVE",
"737 343 CURVE SMOOTH",
"780 585 OFFCURVE",
"668 698 OFFCURVE",
"452 698 CURVE SMOOTH",
"237 698 OFFCURVE",
"85 585 OFFCURVE",
"42 343 CURVE SMOOTH",
"-1 101 OFFCURVE",
"111 -12 OFFCURVE",
"326 -12 CURVE SMOOTH"
);
},
{
closed = 1;
nodes = (
"216 111 OFFCURVE",
"164 192 OFFCURVE",
"188 328 CURVE SMOOTH",
"194 358 LINE SMOOTH",
"218 494 OFFCURVE",
"298 575 OFFCURVE",
"430 575 CURVE SMOOTH",
"563 575 OFFCURVE",
"615 494 OFFCURVE",
"591 358 CURVE SMOOTH",
"585 328 LINE SMOOTH",
"561 192 OFFCURVE",
"481 111 OFFCURVE",
"348 111 CURVE SMOOTH"
);
}
);
};
layerId = "C3F11B4E-1713-4D30-9530-E487AEA06E69";
paths = (
{
closed = 1;
nodes = (
"581 -12 OFFCURVE",
"723 127 OFFCURVE",
"754 344 CURVE SMOOTH",
"758 372 OFFCURVE",
"760 400 OFFCURVE",
"760 429 CURVE SMOOTH",
"760 611 OFFCURVE",
"643 698 OFFCURVE",
"445 698 CURVE SMOOTH",
"226 698 OFFCURVE",
"83 562 OFFCURVE",
"53 346 CURVE SMOOTH",
"49 317 OFFCURVE",
"47 287 OFFCURVE",
"47 257 CURVE SMOOTH",
"47 74 OFFCURVE",
"163 -12 OFFCURVE",
"360 -12 CURVE SMOOTH"
);
},
{
closed = 1;
nodes = (
"250 111 OFFCURVE",
"196 168 OFFCURVE",
"196 268 CURVE SMOOTH",
"196 286 OFFCURVE",
"198 306 OFFCURVE",
"207 358 CURVE SMOOTH",
"231 494 OFFCURVE",
"313 575 OFFCURVE",
"446 575 CURVE SMOOTH",
"556 575 OFFCURVE",
"610 517 OFFCURVE",
"610 418 CURVE SMOOTH",
"610 399 OFFCURVE",
"608 379 OFFCURVE",
"599 328 CURVE SMOOTH",
"575 192 OFFCURVE",
"493 111 OFFCURVE",
"358 111 CURVE SMOOTH"
);
}
);
width = 778;
}
);
leftKerningGroup = O;
note = O;
rightKerningGroup = O;
unicode = 004F;
},
{
glyphname = Oslash;
lastChange = "2018-07-29 23:24:57 +0000";
layers = (
{
anchors = (
{
name = bottom;
position = "{343, 0}";
},
{
name = top;
position = "{449, 686}";
}
);
components = (
{
name = O;
}
);
layerId = "F2AF9F09-4B67-43C0-B796-5CA32800A179";
paths = (
{
closed = 1;
nodes = (
"82 -43 LINE",
"795 723 LINE",
"701 723 LINE",
"-13 -43 LINE"
);
}
);
width = 778;
},
{
anchors = (
{
name = bottom;
position = "{343, 0}";
},
{
name = top;
position = "{460, 686}";
}
);
components = (
{
name = O;
}
);
layerId = "A5125C76-E837-47F7-9C8F-34BD6CC95EDD";
paths = (
{
closed = 1;
nodes = (
"93 -49 LINE",
"805 723 LINE",
"708 723 LINE",
"-5 -49 LINE"
);
}
);
width = 778;
},
{
anchors = (
{
name = bottom;
position = "{343, 0}";
},
{
name = top;
position = "{449, 686}";
}
);
components = (
{
name = O;
}
);
layerId = "9D48804D-E8D2-4297-83C4-532547FA9139";
paths = (
{
closed = 1;
nodes = (
"84 -48 LINE",
"794 723 LINE",
"693 723 LINE",
"-18 -48 LINE"
);
}
);
width = 778;
},
{
anchors = (
{
name = bottom;
position = "{343, 0}";
},
{
name = top;
position = "{449, 686}";
}
);
components = (
{
name = O;
}
);
layerId = "C3F11B4E-1713-4D30-9530-E487AEA06E69";
paths = (
{
closed = 1;
nodes = (
"97 -48 LINE",
"800 723 LINE",
"693 723 LINE",
"-11 -48 LINE"
);
}
);
width = 778;
}
);
leftKerningGroup = O;
note = Oslash;
rightKerningGroup = O;
unicode = 00D8;
},
{
glyphname = OE;
lastChange = "2018-07-29 23:24:57 +0000";
layers = (
{
layerId = "F2AF9F09-4B67-43C0-B796-5CA32800A179";
paths = (
{
closed = 1;
nodes = (
"345 -12 OFFCURVE",
"409 17 OFFCURVE",
"461 76 CURVE",
"448 0 LINE",
"886 0 LINE",
"900 80 LINE",
"557 80 LINE",
"598 311 LINE",
"879 311 LINE",
"893 391 LINE",
"612 391 LINE",
"650 606 LINE",
"986 606 LINE",
"1000 686 LINE",
"569 686 LINE",
"556 610 LINE",
"519 668 OFFCURVE",
"459 698 OFFCURVE",
"375 698 CURVE SMOOTH",
"208 698 OFFCURVE",
"89 581 OFFCURVE",
"49 343 CURVE SMOOTH",
"42 301 OFFCURVE",
"38 263 OFFCURVE",
"38 229 CURVE SMOOTH",
"38 67 OFFCURVE",
"122 -12 OFFCURVE",
"270 -12 CURVE SMOOTH"
);
},
{
closed = 1;
nodes = (
"189 69 OFFCURVE",
"136 115 OFFCURVE",
"136 234 CURVE SMOOTH",
"136 265 OFFCURVE",
"140 301 OFFCURVE",
"147 343 CURVE SMOOTH",
"181 539 OFFCURVE",
"257 617 OFFCURVE",
"375 617 CURVE SMOOTH",
"465 617 OFFCURVE",
"520 575 OFFCURVE",
"520 452 CURVE SMOOTH",
"520 421 OFFCURVE",
"516 385 OFFCURVE",
"509 343 CURVE SMOOTH",
"473 142 OFFCURVE",
"394 69 OFFCURVE",
"287 69 CURVE SMOOTH"
);
}
);
width = 1000;
},
{
layerId = "A5125C76-E837-47F7-9C8F-34BD6CC95EDD";
paths = (
{
closed = 1;
nodes = (
"339 -12 OFFCURVE",
"402 15 OFFCURVE",
"454 69 CURVE",
"442 0 LINE",
"885 0 LINE",
"902 93 LINE",
"569 93 LINE",
"606 304 LINE",
"881 304 LINE",
"897 397 LINE",
"623 397 LINE",
"657 593 LINE",
"983 593 LINE",
"1000 686 LINE",
"563 686 LINE",
"551 617 LINE",
"513 671 OFFCURVE",
"453 698 OFFCURVE",
"370 698 CURVE SMOOTH",
"205 698 OFFCURVE",
"86 579 OFFCURVE",
"47 343 CURVE SMOOTH",
"40 302 OFFCURVE",
"36 264 OFFCURVE",
"36 230 CURVE SMOOTH",
"36 69 OFFCURVE",
"120 -12 OFFCURVE",
"267 -12 CURVE SMOOTH"
);
},
{
closed = 1;
nodes = (
"198 82 OFFCURVE",
"150 128 OFFCURVE",
"150 238 CURVE SMOOTH",
"150 268 OFFCURVE",
"154 303 OFFCURVE",
"160 343 CURVE SMOOTH",
"193 527 OFFCURVE",
"263 604 OFFCURVE",
"379 604 CURVE SMOOTH",
"463 604 OFFCURVE",
"514 563 OFFCURVE",
"514 446 CURVE SMOOTH",
"514 417 OFFCURVE",
"510 383 OFFCURVE",
"503 343 CURVE SMOOTH",
"469 151 OFFCURVE",
"393 82 OFFCURVE",
"290 82 CURVE SMOOTH"
);
}
);
width = 1000;
},
{
layerId = "9D48804D-E8D2-4297-83C4-532547FA9139";
paths = (
{
closed = 1;
nodes = (
"332 -12 OFFCURVE",
"393 12 OFFCURVE",
"446 61 CURVE",
"436 0 LINE",
"885 0 LINE",
"904 108 LINE",
"582 108 LINE",
"616 297 LINE",
"883 297 LINE",
"902 405 LINE",
"635 405 LINE",
"665 578 LINE",
"980 578 LINE",
"999 686 LINE",
"557 686 LINE",
"546 624 LINE",
"505 674 OFFCURVE",
"446 698 OFFCURVE",
"365 698 CURVE SMOOTH",
"202 698 OFFCURVE",
"83 577 OFFCURVE",
"44 343 CURVE SMOOTH",
"37 302 OFFCURVE",
"33 265 OFFCURVE",
"33 231 CURVE SMOOTH",
"33 70 OFFCURVE",
"117 -12 OFFCURVE",
"263 -12 CURVE SMOOTH"
);
},
{
closed = 1;
nodes = (
"207 96 OFFCURVE",
"165 142 OFFCURVE",
"165 243 CURVE SMOOTH",
"165 272 OFFCURVE",
"169 305 OFFCURVE",
"176 343 CURVE SMOOTH",
"206 513 OFFCURVE",
"270 590 OFFCURVE",
"383 590 CURVE SMOOTH",
"460 590 OFFCURVE",
"506 549 OFFCURVE",
"506 440 CURVE SMOOTH",
"506 413 OFFCURVE",
"503 380 OFFCURVE",
"497 343 CURVE SMOOTH",
"464 162 OFFCURVE",
"391 96 OFFCURVE",
"294 96 CURVE SMOOTH"
);
}
);
width = 1000;
},
{
layerId = "C3F11B4E-1713-4D30-9530-E487AEA06E69";
paths = (
{
closed = 1;
nodes = (
"325 -12 OFFCURVE",
"385 9 OFFCURVE",
"438 53 CURVE",
"429 0 LINE",
"884 0 LINE",
"906 123 LINE",
"596 123 LINE",
"625 289 LINE",
"885 289 LINE",
"907 412 LINE",
"647 412 LINE",
"673 563 LINE",
"977 563 LINE",
"999 686 LINE",
"550 686 LINE",
"540 632 LINE",
"498 677 OFFCURVE",
"439 698 OFFCURVE",
"360 698 CURVE SMOOTH",
"199 698 OFFCURVE",
"80 575 OFFCURVE",
"42 343 CURVE SMOOTH",
"35 303 OFFCURVE",
"31 266 OFFCURVE",
"31 232 CURVE SMOOTH",
"31 72 OFFCURVE",
"114 -12 OFFCURVE",
"260 -12 CURVE SMOOTH"
);
},
{
closed = 1;
nodes = (
"217 111 OFFCURVE",
"181 156 OFFCURVE",
"181 248 CURVE SMOOTH",
"181 276 OFFCURVE",
"185 307 OFFCURVE",
"191 343 CURVE SMOOTH",
"219 499 OFFCURVE",
"277 575 OFFCURVE",
"388 575 CURVE SMOOTH",
"457 575 OFFCURVE",
"499 535 OFFCURVE",
"499 434 CURVE SMOOTH",
"499 408 OFFCURVE",
"496 378 OFFCURVE",
"490 343 CURVE SMOOTH",
"459 173 OFFCURVE",
"390 111 OFFCURVE",
"297 111 CURVE SMOOTH"
);
}
);
width = 1000;
}
);
leftKerningGroup = O;
note = OE;
rightKerningGroup = E;
unicode = 0152;
},
{
glyphname = P;
lastChange = "2018-07-29 23:24:57 +0000";
layers = (
{
layerId = "F2AF9F09-4B67-43C0-B796-5CA32800A179";
paths = (
{
closed = 1;
nodes = (
"113 0 LINE",
"159 263 LINE",
"408 263 LINE SMOOTH",
"547 263 OFFCURVE",
"653 364 OFFCURVE",
"653 506 CURVE SMOOTH",
"653 614 OFFCURVE",
"591 686 OFFCURVE",
"463 686 CURVE SMOOTH",
"139 686 LINE",
"18 0 LINE"
);
},
{
closed = 1;
nodes = (
"219 603 LINE",
"453 603 LINE SMOOTH",
"522 603 OFFCURVE",
"556 565 OFFCURVE",
"556 499 CURVE SMOOTH",
"556 405 OFFCURVE",
"490 346 OFFCURVE",
"408 346 CURVE SMOOTH",
"174 346 LINE"
);
}
);
width = 667;
},
{
layerId = "A5125C76-E837-47F7-9C8F-34BD6CC95EDD";
paths = (
{
closed = 1;
nodes = (
"126 0 LINE",
"170 255 LINE",
"396 255 LINE SMOOTH",
"546 255 OFFCURVE",
"653 353 OFFCURVE",
"653 503 CURVE SMOOTH",
"653 614 OFFCURVE",
"589 686 OFFCURVE",
"443 686 CURVE SMOOTH",
"136 686 LINE",
"15 0 LINE"
);
},
{
closed = 1;
nodes = (
"229 591 LINE",
"437 591 LINE SMOOTH",
"507 591 OFFCURVE",
"540 555 OFFCURVE",
"540 492 CURVE SMOOTH",
"540 403 OFFCURVE",
"477 350 OFFCURVE",
"395 350 CURVE SMOOTH",
"187 350 LINE"
);
}
);
width = 667;
},
{
layerId = "9D48804D-E8D2-4297-83C4-532547FA9139";
paths = (
{
closed = 1;
nodes = (
"140 0 LINE",
"183 245 LINE",
"382 245 LINE SMOOTH",
"545 245 OFFCURVE",
"653 340 OFFCURVE",
"653 499 CURVE SMOOTH",
"653 615 OFFCURVE",
"586 686 OFFCURVE",
"420 686 CURVE SMOOTH",
"133 686 LINE",
"12 0 LINE"
);
},
{
closed = 1;
nodes = (
"241 577 LINE",
"420 577 LINE SMOOTH",
"491 577 OFFCURVE",
"522 543 OFFCURVE",
"522 485 CURVE SMOOTH",
"522 400 OFFCURVE",
"462 354 OFFCURVE",
"381 354 CURVE SMOOTH",
"202 354 LINE"
);
}
);
width = 667;
},
{
background = {
paths = (
{
closed = 1;
nodes = (
"130 686 LINE",
"10 0 LINE",
"155 0 LINE",
"196 236 LINE",
"368 236 LINE SMOOTH",
"531 236 OFFCURVE",
"624 323 OFFCURVE",
"649 462 CURVE SMOOTH",
"674 601 OFFCURVE",
"613 686 OFFCURVE",
"457 686 CURVE SMOOTH"
);
},
{
closed = 1;
nodes = (
"218 359 LINE",
"254 563 LINE",
"423 563 LINE SMOOTH",
"486 563 OFFCURVE",
"513 526 OFFCURVE",
"502 462 CURVE SMOOTH",
"491 398 OFFCURVE",
"450 359 OFFCURVE",
"387 359 CURVE SMOOTH"
);
}
);
};
layerId = "C3F11B4E-1713-4D30-9530-E487AEA06E69";
paths = (
{
closed = 1;
nodes = (
"154 0 LINE",
"196 236 LINE",
"368 236 LINE SMOOTH",
"544 236 OFFCURVE",
"653 328 OFFCURVE",
"653 495 CURVE SMOOTH",
"653 615 OFFCURVE",
"583 686 OFFCURVE",
"397 686 CURVE SMOOTH",
"130 686 LINE",
"9 0 LINE"
);
},
{
closed = 1;
nodes = (
"253 563 LINE",
"402 563 LINE SMOOTH",
"474 563 OFFCURVE",
"504 532 OFFCURVE",
"504 477 CURVE SMOOTH",
"504 398 OFFCURVE",
"447 359 OFFCURVE",
"366 359 CURVE SMOOTH",
"217 359 LINE"
);
}
);
width = 667;
}
);
leftKerningGroup = H;
note = P;
rightKerningGroup = P;
unicode = 0050;
},
{
glyphname = Thorn;
lastChange = "2018-07-29 23:24:57 +0000";
layers = (
{
layerId = "F2AF9F09-4B67-43C0-B796-5CA32800A179";
paths = (
{
closed = 1;
nodes = (
"113 0 LINE",
"138 144 LINE",
"387 144 LINE SMOOTH",
"526 144 OFFCURVE",
"632 245 OFFCURVE",
"632 387 CURVE SMOOTH",
"632 495 OFFCURVE",
"570 567 OFFCURVE",
"442 567 CURVE SMOOTH",
"213 567 LINE",
"234 686 LINE",
"139 686 LINE",
"18 0 LINE"
);
},
{
closed = 1;
nodes = (
"198 484 LINE",
"432 484 LINE SMOOTH",
"501 484 OFFCURVE",
"535 446 OFFCURVE",
"535 380 CURVE SMOOTH",
"535 286 OFFCURVE",
"469 227 OFFCURVE",
"387 227 CURVE SMOOTH",
"153 227 LINE"
);
}
);
width = 667;
},
{
layerId = "A5125C76-E837-47F7-9C8F-34BD6CC95EDD";
paths = (
{
closed = 1;
nodes = (
"126 0 LINE",
"150 139 LINE",
"375 139 LINE SMOOTH",
"526 139 OFFCURVE",
"633 238 OFFCURVE",
"633 387 CURVE SMOOTH",
"633 499 OFFCURVE",
"568 571 OFFCURVE",
"422 571 CURVE SMOOTH",
"226 571 LINE",
"247 686 LINE",
"136 686 LINE",
"15 0 LINE"
);
},
{
closed = 1;
nodes = (
"209 475 LINE",
"417 475 LINE SMOOTH",
"487 475 OFFCURVE",
"520 440 OFFCURVE",
"520 377 CURVE SMOOTH",
"520 288 OFFCURVE",
"456 235 OFFCURVE",
"375 235 CURVE SMOOTH",
"167 235 LINE"
);
}
);
width = 667;
},
{
layerId = "9D48804D-E8D2-4297-83C4-532547FA9139";
paths = (
{
closed = 1;
nodes = (
"140 0 LINE",
"163 134 LINE",
"362 134 LINE SMOOTH",
"525 134 OFFCURVE",
"633 229 OFFCURVE",
"633 388 CURVE SMOOTH",
"633 503 OFFCURVE",
"566 575 OFFCURVE",
"400 575 CURVE SMOOTH",
"241 575 LINE",
"261 686 LINE",
"133 686 LINE",
"12 0 LINE"
);
},
{
closed = 1;
nodes = (
"222 466 LINE",
"400 466 LINE SMOOTH",
"471 466 OFFCURVE",
"502 432 OFFCURVE",
"502 373 CURVE SMOOTH",
"502 289 OFFCURVE",
"442 243 OFFCURVE",
"361 243 CURVE SMOOTH",
"182 243 LINE"
);
}
);
width = 667;
},
{
layerId = "C3F11B4E-1713-4D30-9530-E487AEA06E69";
paths = (
{
closed = 1;
nodes = (
"154 0 LINE",
"177 129 LINE",
"349 129 LINE SMOOTH",
"525 129 OFFCURVE",
"634 221 OFFCURVE",
"634 388 CURVE SMOOTH",
"634 508 OFFCURVE",
"564 579 OFFCURVE",
"378 579 CURVE SMOOTH",
"256 579 LINE",
"275 686 LINE",
"130 686 LINE",
"9 0 LINE"
);
},
{
closed = 1;
nodes = (
"234 456 LINE",
"383 456 LINE SMOOTH",
"455 456 OFFCURVE",
"485 425 OFFCURVE",
"485 370 CURVE SMOOTH",
"485 291 OFFCURVE",
"428 252 OFFCURVE",
"347 252 CURVE SMOOTH",
"198 252 LINE"
);
}
);
width = 667;
}
);
leftKerningGroup = H;
note = Thorn;
rightKerningGroup = P;
unicode = 00DE;
},
{
glyphname = Q;
lastChange = "2018-07-29 23:24:57 +0000";
layers = (
{
layerId = "F2AF9F09-4B67-43C0-B796-5CA32800A179";
paths = (
{
closed = 1;
nodes = (
"607 -130 LINE",
"484 13 LINE",
"640 70 OFFCURVE",
"740 224 OFFCURVE",
"740 436 CURVE SMOOTH",
"740 611 OFFCURVE",
"631 698 OFFCURVE",
"441 698 CURVE SMOOTH",
"342 698 OFFCURVE",
"256 668 OFFCURVE",
"190 614 CURVE SMOOTH",
"94 536 OFFCURVE",
"38 409 OFFCURVE",
"38 248 CURVE SMOOTH",
"38 74 OFFCURVE",
"147 -12 OFFCURVE",
"336 -12 CURVE SMOOTH",
"352 -12 OFFCURVE",
"370 -11 OFFCURVE",
"386 -9 CURVE",
"486 -130 LINE"
);
},
{
closed = 1;
nodes = (
"209 69 OFFCURVE",
"137 123 OFFCURVE",
"137 258 CURVE SMOOTH",
"137 303 OFFCURVE",
"142 344 OFFCURVE",
"152 382 CURVE SMOOTH",
"190 530 OFFCURVE",
"299 617 OFFCURVE",
"447 617 CURVE SMOOTH",
"569 617 OFFCURVE",
"642 563 OFFCURVE",
"642 426 CURVE SMOOTH",
"642 376 OFFCURVE",
"636 331 OFFCURVE",
"624 291 CURVE SMOOTH",
"582 150 OFFCURVE",
"473 69 OFFCURVE",
"330 69 CURVE SMOOTH"
);
}
);
width = 778;
},
{
layerId = "A5125C76-E837-47F7-9C8F-34BD6CC95EDD";
paths = (
{
closed = 1;
nodes = (
"616 -130 LINE",
"491 15 LINE",
"647 74 OFFCURVE",
"742 231 OFFCURVE",
"742 434 CURVE SMOOTH",
"742 611 OFFCURVE",
"631 698 OFFCURVE",
"438 698 CURVE SMOOTH",
"336 698 OFFCURVE",
"250 667 OFFCURVE",
"184 611 CURVE SMOOTH",
"89 532 OFFCURVE",
"37 405 OFFCURVE",
"37 251 CURVE SMOOTH",
"37 74 OFFCURVE",
"148 -12 OFFCURVE",
"339 -12 CURVE SMOOTH",
"351 -12 OFFCURVE",
"366 -11 OFFCURVE",
"377 -10 CURVE",
"478 -130 LINE"
);
},
{
closed = 1;
nodes = (
"217 82 OFFCURVE",
"151 137 OFFCURVE",
"151 261 CURVE SMOOTH",
"151 298 OFFCURVE",
"155 332 OFFCURVE",
"165 375 CURVE SMOOTH",
"199 519 OFFCURVE",
"300 604 OFFCURVE",
"445 604 CURVE SMOOTH",
"562 604 OFFCURVE",
"628 549 OFFCURVE",
"628 424 CURVE SMOOTH",
"628 383 OFFCURVE",
"623 346 OFFCURVE",
"612 302 CURVE SMOOTH",
"576 163 OFFCURVE",
"474 82 OFFCURVE",
"333 82 CURVE SMOOTH"
);
}
);
width = 778;
},
{
layerId = "9D48804D-E8D2-4297-83C4-532547FA9139";
paths = (
{
closed = 1;
nodes = (
"626 -130 LINE",
"499 16 LINE",
"656 78 OFFCURVE",
"745 238 OFFCURVE",
"745 431 CURVE SMOOTH",
"745 611 OFFCURVE",
"630 698 OFFCURVE",
"435 698 CURVE SMOOTH",
"330 698 OFFCURVE",
"242 665 OFFCURVE",
"177 607 CURVE SMOOTH",
"84 527 OFFCURVE",
"35 400 OFFCURVE",
"35 254 CURVE SMOOTH",
"35 74 OFFCURVE",
"149 -12 OFFCURVE",
"343 -12 CURVE SMOOTH",
"351 -12 OFFCURVE",
"362 -11 OFFCURVE",
"368 -10 CURVE",
"470 -130 LINE"
);
},
{
closed = 1;
nodes = (
"226 96 OFFCURVE",
"167 152 OFFCURVE",
"167 265 CURVE SMOOTH",
"167 292 OFFCURVE",
"170 319 OFFCURVE",
"179 366 CURVE SMOOTH",
"208 506 OFFCURVE",
"302 590 OFFCURVE",
"442 590 CURVE SMOOTH",
"553 590 OFFCURVE",
"613 533 OFFCURVE",
"613 421 CURVE SMOOTH",
"613 391 OFFCURVE",
"609 362 OFFCURVE",
"599 315 CURVE SMOOTH",
"569 177 OFFCURVE",
"476 96 OFFCURVE",
"336 96 CURVE SMOOTH"
);
}
);
width = 778;
},
{
background = {
paths = (
{
closed = 1;
nodes = (
"446 -130 LINE",
"637 -130 LINE",
"507 20 LINE",
"627 69 OFFCURVE",
"710 175 OFFCURVE",
"739 343 CURVE SMOOTH",
"781 585 OFFCURVE",
"670 698 OFFCURVE",
"454 698 CURVE SMOOTH",
"239 698 OFFCURVE",
"87 585 OFFCURVE",
"44 343 CURVE SMOOTH",
"1 101 OFFCURVE",
"114 -12 OFFCURVE",
"329 -12 CURVE SMOOTH",
"338 -12 OFFCURVE",
"347 -12 OFFCURVE",
"356 -11 CURVE"
);
},
{
closed = 1;
nodes = (
"218 111 OFFCURVE",
"168 192 OFFCURVE",
"191 328 CURVE SMOOTH",
"196 358 LINE SMOOTH",
"219 494 OFFCURVE",
"300 575 OFFCURVE",
"432 575 CURVE SMOOTH",
"565 575 OFFCURVE",
"616 494 OFFCURVE",
"593 358 CURVE SMOOTH",
"588 328 LINE SMOOTH",
"565 192 OFFCURVE",
"483 111 OFFCURVE",
"350 111 CURVE SMOOTH"
);
}
);
};
layerId = "C3F11B4E-1713-4D30-9530-E487AEA06E69";
paths = (
{
closed = 1;
nodes = (
"636 -130 LINE",
"507 18 LINE",
"664 83 OFFCURVE",
"747 246 OFFCURVE",
"747 429 CURVE SMOOTH",
"747 611 OFFCURVE",
"630 698 OFFCURVE",
"432 698 CURVE SMOOTH",
"324 698 OFFCURVE",
"235 664 OFFCURVE",
"170 604 CURVE SMOOTH",
"79 522 OFFCURVE",
"34 395 OFFCURVE",
"34 257 CURVE SMOOTH",
"34 74 OFFCURVE",
"150 -12 OFFCURVE",
"347 -12 CURVE",
"351 -12 OFFCURVE",
"355 -11 OFFCURVE",
"358 -11 CURVE",
"461 -130 LINE"
);
},
{
closed = 1;
nodes = (
"235 111 OFFCURVE",
"183 168 OFFCURVE",
"183 268 CURVE SMOOTH",
"183 286 OFFCURVE",
"185 306 OFFCURVE",
"194 358 CURVE SMOOTH",
"218 494 OFFCURVE",
"303 575 OFFCURVE",
"440 575 CURVE SMOOTH",
"545 575 OFFCURVE",
"597 517 OFFCURVE",
"597 418 CURVE SMOOTH",
"597 399 OFFCURVE",
"595 379 OFFCURVE",
"586 328 CURVE SMOOTH",
"562 192 OFFCURVE",
"477 111 OFFCURVE",
"339 111 CURVE SMOOTH"
);
}
);
width = 778;
}
);
leftKerningGroup = O;
note = Q;
rightKerningGroup = O;
unicode = 0051;
},
{
glyphname = R;
lastChange = "2018-09-18 23:40:30 +0000";
layers = (
{
anchors = (
{
name = bottom;
position = "{316, 0}";
},
{
name = top;
position = "{398, 686}";
}
);
layerId = "F2AF9F09-4B67-43C0-B796-5CA32800A179";
paths = (
{
closed = 1;
nodes = (
"113 0 LINE",
"163 283 LINE",
"419 283 LINE",
"518 0 LINE",
"620 0 LINE",
"515 295 LINE",
"611 324 OFFCURVE",
"679 407 OFFCURVE",
"679 513 CURVE SMOOTH",
"679 617 OFFCURVE",
"616 686 OFFCURVE",
"486 686 CURVE SMOOTH",
"139 686 LINE",
"18 0 LINE"
);
},
{
closed = 1;
nodes = (
"219 603 LINE",
"476 603 LINE SMOOTH",
"546 603 OFFCURVE",
"581 568 OFFCURVE",
"581 508 CURVE SMOOTH",
"581 419 OFFCURVE",
"515 366 OFFCURVE",
"435 366 CURVE SMOOTH",
"178 366 LINE"
);
}
);
width = 722;
},
{
anchors = (
{
name = bottom;
position = "{313, 0}";
},
{
name = top;
position = "{392, 686}";
}
);
layerId = "A5125C76-E837-47F7-9C8F-34BD6CC95EDD";
paths = (
{
closed = 1;
nodes = (
"126 0 LINE",
"174 275 LINE",
"412 275 LINE",
"504 0 LINE",
"621 0 LINE",
"521 289 LINE",
"613 318 OFFCURVE",
"683 398 OFFCURVE",
"683 508 CURVE SMOOTH",
"683 616 OFFCURVE",
"615 686 OFFCURVE",
"473 686 CURVE SMOOTH",
"136 686 LINE",
"15 0 LINE"
);
},
{
closed = 1;
nodes = (
"229 591 LINE",
"468 591 LINE SMOOTH",
"535 591 OFFCURVE",
"569 558 OFFCURVE",
"569 501 CURVE SMOOTH",
"569 419 OFFCURVE",
"511 369 OFFCURVE",
"432 369 CURVE SMOOTH",
"191 369 LINE"
);
}
);
width = 722;
},
{
anchors = (
{
name = bottom;
position = "{312, 0}";
},
{
name = top;
position = "{393, 686}";
}
);
layerId = "9D48804D-E8D2-4297-83C4-532547FA9139";
paths = (
{
closed = 1;
nodes = (
"140 0 LINE",
"187 265 LINE",
"403 265 LINE",
"487 0 LINE",
"623 0 LINE",
"527 283 LINE",
"616 312 OFFCURVE",
"687 387 OFFCURVE",
"687 502 CURVE SMOOTH",
"687 615 OFFCURVE",
"614 686 OFFCURVE",
"459 686 CURVE SMOOTH",
"133 686 LINE",
"12 0 LINE"
);
},
{
closed = 1;
nodes = (
"241 577 LINE",
"458 577 LINE SMOOTH",
"523 577 OFFCURVE",
"556 546 OFFCURVE",
"556 493 CURVE SMOOTH",
"556 419 OFFCURVE",
"506 373 OFFCURVE",
"429 373 CURVE SMOOTH",
"205 373 LINE"
);
}
);
width = 722;
},
{
anchors = (
{
name = bottom;
position = "{312, 0}";
},
{
name = top;
position = "{390, 686}";
}
);
background = {
paths = (
{
closed = 1;
nodes = (
"130 686 LINE",
"10 0 LINE",
"155 0 LINE",
"200 256 LINE",
"392 256 LINE",
"468 0 LINE",
"625 0 LINE",
"534 279 LINE",
"622 312 OFFCURVE",
"671 379 OFFCURVE",
"688 471 CURVE SMOOTH",
"713 604 OFFCURVE",
"650 686 OFFCURVE",
"494 686 CURVE SMOOTH"
);
},
{
closed = 1;
nodes = (
"221 377 LINE",
"254 563 LINE",
"460 563 LINE SMOOTH",
"523 563 OFFCURVE",
"551 529 OFFCURVE",
"541 471 CURVE SMOOTH",
"531 413 OFFCURVE",
"490 377 OFFCURVE",
"427 377 CURVE SMOOTH"
);
}
);
};
layerId = "C3F11B4E-1713-4D30-9530-E487AEA06E69";
paths = (
{
closed = 1;
nodes = (
"154 0 LINE",
"199 256 LINE",
"395 256 LINE",
"471 0 LINE",
"624 0 LINE",
"533 277 LINE",
"619 305 OFFCURVE",
"692 377 OFFCURVE",
"692 496 CURVE SMOOTH",
"692 614 OFFCURVE",
"613 686 OFFCURVE",
"444 686 CURVE SMOOTH",
"130 686 LINE",
"9 0 LINE"
);
},
{
closed = 1;
nodes = (
"253 563 LINE",
"449 563 LINE SMOOTH",
"511 563 OFFCURVE",
"542 534 OFFCURVE",
"542 485 CURVE SMOOTH",
"542 419 OFFCURVE",
"501 377 OFFCURVE",
"426 377 CURVE SMOOTH",
"220 377 LINE"
);
}
);
width = 722;
}
);
leftKerningGroup = H;
note = R;
rightKerningGroup = R;
unicode = 0052;
},
{
glyphname = S;
lastChange = "2018-07-29 23:24:57 +0000";
layers = (
{
anchors = (
{
name = bottom;
position = "{290, 0}";
},
{
name = top;
position = "{396, 686}";
}
);
layerId = "F2AF9F09-4B67-43C0-B796-5CA32800A179";
paths = (
{
closed = 1;
nodes = (
"442 -12 OFFCURVE",
"593 50 OFFCURVE",
"593 209 CURVE SMOOTH",
"593 430 OFFCURVE",
"192 363 OFFCURVE",
"192 511 CURVE SMOOTH",
"192 584 OFFCURVE",
"278 617 OFFCURVE",
"384 617 CURVE SMOOTH",
"472 617 OFFCURVE",
"533 584 OFFCURVE",
"533 524 CURVE SMOOTH",
"533 519 OFFCURVE",
"533 508 OFFCURVE",
"529 493 CURVE",
"622 493 LINE",
"626 513 OFFCURVE",
"627 530 OFFCURVE",
"627 542 CURVE SMOOTH",
"627 652 OFFCURVE",
"519 698 OFFCURVE",
"375 698 CURVE SMOOTH",
"232 698 OFFCURVE",
"93 635 OFFCURVE",
"93 500 CURVE SMOOTH",
"93 279 OFFCURVE",
"493 351 OFFCURVE",
"493 195 CURVE SMOOTH",
"493 114 OFFCURVE",
"408 69 OFFCURVE",
"278 69 CURVE SMOOTH",
"180 69 OFFCURVE",
"113 102 OFFCURVE",
"113 171 CURVE SMOOTH",
"113 186 OFFCURVE",
"118 204 OFFCURVE",
"121 214 CURVE",
"27 214 LINE",
"22 199 OFFCURVE",
"19 173 OFFCURVE",
"19 155 CURVE SMOOTH",
"19 33 OFFCURVE",
"138 -12 OFFCURVE",
"289 -12 CURVE SMOOTH"
);
}
);
width = 667;
},
{
anchors = (
{
name = bottom;
position = "{290, 0}";
},
{
name = top;
position = "{395, 686}";
}
);
layerId = "A5125C76-E837-47F7-9C8F-34BD6CC95EDD";
paths = (
{
closed = 1;
nodes = (
"446 -12 OFFCURVE",
"596 50 OFFCURVE",
"596 214 CURVE SMOOTH",
"596 432 OFFCURVE",
"205 372 OFFCURVE",
"205 508 CURVE SMOOTH",
"205 573 OFFCURVE",
"281 604 OFFCURVE",
"382 604 CURVE SMOOTH",
"465 604 OFFCURVE",
"521 573 OFFCURVE",
"521 518 CURVE SMOOTH",
"521 514 OFFCURVE",
"521 505 OFFCURVE",
"517 490 CURVE",
"626 490 LINE",
"630 512 OFFCURVE",
"631 528 OFFCURVE",
"631 540 CURVE SMOOTH",
"631 651 OFFCURVE",
"521 698 OFFCURVE",
"374 698 CURVE SMOOTH",
"227 698 OFFCURVE",
"91 633 OFFCURVE",
"91 494 CURVE SMOOTH",
"91 275 OFFCURVE",
"480 342 OFFCURVE",
"480 195 CURVE SMOOTH",
"480 124 OFFCURVE",
"409 82 OFFCURVE",
"284 82 CURVE SMOOTH",
"190 82 OFFCURVE",
"129 114 OFFCURVE",
"129 177 CURVE SMOOTH",
"129 191 OFFCURVE",
"134 208 OFFCURVE",
"136 217 CURVE",
"26 217 LINE",
"21 202 OFFCURVE",
"18 177 OFFCURVE",
"18 159 CURVE SMOOTH",
"18 38 OFFCURVE",
"140 -12 OFFCURVE",
"295 -12 CURVE SMOOTH"
);
}
);
width = 667;
},
{
anchors = (
{
name = bottom;
position = "{291, 0}";
},
{
name = top;
position = "{398, 686}";
}
);
layerId = "9D48804D-E8D2-4297-83C4-532547FA9139";
paths = (
{
closed = 1;
nodes = (
"450 -12 OFFCURVE",
"600 50 OFFCURVE",
"600 219 CURVE SMOOTH",
"600 435 OFFCURVE",
"221 383 OFFCURVE",
"221 505 CURVE SMOOTH",
"221 560 OFFCURVE",
"285 590 OFFCURVE",
"380 590 CURVE SMOOTH",
"458 590 OFFCURVE",
"507 561 OFFCURVE",
"507 512 CURVE SMOOTH",
"507 508 OFFCURVE",
"507 501 OFFCURVE",
"504 487 CURVE",
"630 487 LINE",
"634 510 OFFCURVE",
"635 525 OFFCURVE",
"635 537 CURVE SMOOTH",
"635 649 OFFCURVE",
"522 698 OFFCURVE",
"373 698 CURVE SMOOTH",
"221 698 OFFCURVE",
"89 630 OFFCURVE",
"89 487 CURVE SMOOTH",
"89 271 OFFCURVE",
"466 331 OFFCURVE",
"466 195 CURVE SMOOTH",
"466 136 OFFCURVE",
"411 96 OFFCURVE",
"292 96 CURVE SMOOTH",
"202 96 OFFCURVE",
"148 128 OFFCURVE",
"148 184 CURVE SMOOTH",
"148 196 OFFCURVE",
"152 212 OFFCURVE",
"154 220 CURVE",
"25 220 LINE",
"21 205 OFFCURVE",
"17 181 OFFCURVE",
"17 163 CURVE SMOOTH",
"17 43 OFFCURVE",
"143 -12 OFFCURVE",
"303 -12 CURVE SMOOTH"
);
}
);
width = 667;
},
{
anchors = (
{
name = bottom;
position = "{294, 0}";
},
{
name = top;
position = "{398, 686}";
}
);
background = {
paths = (
{
closed = 1;
nodes = (
"441 -12 OFFCURVE",
"574 48 OFFCURVE",
"601 202 CURVE SMOOTH",
"644 450 OFFCURVE",
"217 389 OFFCURVE",
"238 511 CURVE SMOOTH",
"245 551 OFFCURVE",
"294 575 OFFCURVE",
"379 575 CURVE SMOOTH",
"458 575 OFFCURVE",
"498 544 OFFCURVE",
"492 493 CURVE SMOOTH",
"491 484 LINE",
"635 484 LINE",
"637 496 LINE SMOOTH",
"661 637 OFFCURVE",
"551 698 OFFCURVE",
"403 698 CURVE SMOOTH",
"242 698 OFFCURVE",
"114 636 OFFCURVE",
"91 506 CURVE SMOOTH",
"46 251 OFFCURVE",
"477 327 OFFCURVE",
"452 183 CURVE SMOOTH",
"445 142 OFFCURVE",
"403 111 OFFCURVE",
"299 111 CURVE SMOOTH",
"204 111 OFFCURVE",
"156 149 OFFCURVE",
"168 207 CURVE SMOOTH",
"169 212 OFFCURVE",
"171 221 OFFCURVE",
"172 223 CURVE",
"25 223 LINE",
"24 218 OFFCURVE",
"21 209 OFFCURVE",
"20 201 CURVE SMOOTH",
"2 59 OFFCURVE",
"117 -12 OFFCURVE",
"270 -12 CURVE SMOOTH"
);
}
);
};
layerId = "C3F11B4E-1713-4D30-9530-E487AEA06E69";
paths = (
{
closed = 1;
nodes = (
"454 -12 OFFCURVE",
"604 50 OFFCURVE",
"604 225 CURVE SMOOTH",
"604 437 OFFCURVE",
"236 393 OFFCURVE",
"236 502 CURVE SMOOTH",
"236 547 OFFCURVE",
"288 575 OFFCURVE",
"378 575 CURVE SMOOTH",
"450 575 OFFCURVE",
"493 549 OFFCURVE",
"493 506 CURVE SMOOTH",
"493 502 OFFCURVE",
"493 497 OFFCURVE",
"490 484 CURVE",
"634 484 LINE",
"638 509 OFFCURVE",
"639 522 OFFCURVE",
"639 534 CURVE SMOOTH",
"639 648 OFFCURVE",
"524 698 OFFCURVE",
"372 698 CURVE SMOOTH",
"215 698 OFFCURVE",
"87 627 OFFCURVE",
"87 480 CURVE SMOOTH",
"87 267 OFFCURVE",
"452 320 OFFCURVE",
"452 195 CURVE SMOOTH",
"452 148 OFFCURVE",
"412 111 OFFCURVE",
"299 111 CURVE SMOOTH",
"213 111 OFFCURVE",
"166 142 OFFCURVE",
"166 191 CURVE SMOOTH",
"166 201 OFFCURVE",
"170 216 OFFCURVE",
"171 223 CURVE",
"24 223 LINE",
"20 208 OFFCURVE",
"16 185 OFFCURVE",
"16 167 CURVE SMOOTH",
"16 48 OFFCURVE",
"145 -12 OFFCURVE",
"310 -12 CURVE SMOOTH"
);
}
);
width = 667;
}
);
leftKerningGroup = S;
note = S;
rightKerningGroup = S;
unicode = 0053;
},
{
color = 4;
glyphname = Saltillo;
lastChange = "2018-09-04 23:49:51 +0000";
layers = (
{
layerId = "F2AF9F09-4B67-43C0-B796-5CA32800A179";
paths = (
{
closed = 1;
nodes = (
"73 208 LINE",
"192 587 LINE",
"209 686 LINE",
"109 686 LINE",
"25 208 LINE"
);
}
);
width = 171;
},
{
layerId = "A5125C76-E837-47F7-9C8F-34BD6CC95EDD";
paths = (
{
closed = 1;
nodes = (
"89 208 LINE",
"204 581 LINE",
"222 686 LINE",
"111 686 LINE",
"27 208 LINE"
);
}
);
width = 187;
},
{
layerId = "9D48804D-E8D2-4297-83C4-532547FA9139";
paths = (
{
closed = 1;
nodes = (
"106 207 LINE",
"217 573 LINE",
"236 686 LINE",
"114 686 LINE",
"30 207 LINE"
);
}
);
width = 205;
},
{
layerId = "C3F11B4E-1713-4D30-9530-E487AEA06E69";
paths = (
{
closed = 1;
nodes = (
"124 207 LINE",
"230 566 LINE",
"251 686 LINE",
"117 686 LINE",
"33 207 LINE"
);
}
);
width = 223;
}
);
unicode = A78B;
},
{
glyphname = Germandbls;
lastChange = "2018-07-29 23:24:57 +0000";
layers = (
{
layerId = "F2AF9F09-4B67-43C0-B796-5CA32800A179";
paths = (
{
closed = 1;
nodes = (
"113 0 LINE",
"186 414 LINE SMOOTH",
"210 552 OFFCURVE",
"302 617 OFFCURVE",
"439 617 CURVE SMOOTH",
"557 617 OFFCURVE",
"607 575 OFFCURVE",
"607 510 CURVE SMOOTH",
"607 436 OFFCURVE",
"548 381 OFFCURVE",
"477 381 CURVE SMOOTH",
"291 381 LINE",
"276 298 LINE",
"465 298 LINE SMOOTH",
"544 298 OFFCURVE",
"587 263 OFFCURVE",
"587 211 CURVE SMOOTH",
"587 150 OFFCURVE",
"535 83 OFFCURVE",
"452 83 CURVE SMOOTH",
"238 83 LINE",
"223 0 LINE",
"450 0 LINE SMOOTH",
"587 0 OFFCURVE",
"684 88 OFFCURVE",
"684 218 CURVE SMOOTH",
"684 285 OFFCURVE",
"647 329 OFFCURVE",
"585 347 CURVE",
"585 351 LINE",
"651 373 OFFCURVE",
"706 447 OFFCURVE",
"706 524 CURVE SMOOTH",
"706 630 OFFCURVE",
"607 698 OFFCURVE",
"445 698 CURVE SMOOTH",
"262 698 OFFCURVE",
"124 605 OFFCURVE",
"93 421 CURVE SMOOTH",
"18 0 LINE"
);
}
);
width = 798;
},
{
layerId = "A5125C76-E837-47F7-9C8F-34BD6CC95EDD";
paths = (
{
closed = 1;
nodes = (
"126 0 LINE",
"197 405 LINE SMOOTH",
"220 540 OFFCURVE",
"308 604 OFFCURVE",
"445 604 CURVE SMOOTH",
"554 604 OFFCURVE",
"603 566 OFFCURVE",
"603 506 CURVE SMOOTH",
"603 442 OFFCURVE",
"551 387 OFFCURVE",
"484 387 CURVE SMOOTH",
"297 387 LINE",
"280 292 LINE",
"470 292 LINE SMOOTH",
"544 292 OFFCURVE",
"584 260 OFFCURVE",
"584 212 CURVE SMOOTH",
"584 157 OFFCURVE",
"536 96 OFFCURVE",
"459 96 CURVE SMOOTH",
"245 96 LINE",
"228 0 LINE",
"455 0 LINE SMOOTH",
"595 0 OFFCURVE",
"697 86 OFFCURVE",
"697 218 CURVE SMOOTH",
"697 284 OFFCURVE",
"660 329 OFFCURVE",
"598 347 CURVE",
"598 351 LINE",
"663 373 OFFCURVE",
"718 446 OFFCURVE",
"718 523 CURVE SMOOTH",
"718 630 OFFCURVE",
"616 698 OFFCURVE",
"452 698 CURVE SMOOTH",
"261 698 OFFCURVE",
"121 602 OFFCURVE",
"88 412 CURVE SMOOTH",
"15 0 LINE"
);
}
);
width = 798;
},
{
layerId = "9D48804D-E8D2-4297-83C4-532547FA9139";
paths = (
{
closed = 1;
nodes = (
"140 0 LINE",
"210 394 LINE SMOOTH",
"232 527 OFFCURVE",
"316 590 OFFCURVE",
"451 590 CURVE SMOOTH",
"551 590 OFFCURVE",
"598 555 OFFCURVE",
"598 501 CURVE SMOOTH",
"598 449 OFFCURVE",
"554 395 OFFCURVE",
"493 395 CURVE SMOOTH",
"303 395 LINE",
"284 284 LINE",
"476 284 LINE SMOOTH",
"543 284 OFFCURVE",
"580 256 OFFCURVE",
"580 213 CURVE SMOOTH",
"580 164 OFFCURVE",
"538 110 OFFCURVE",
"468 110 CURVE SMOOTH",
"254 110 LINE",
"233 0 LINE",
"460 0 LINE SMOOTH",
"604 0 OFFCURVE",
"711 85 OFFCURVE",
"711 218 CURVE SMOOTH",
"711 284 OFFCURVE",
"674 329 OFFCURVE",
"612 347 CURVE",
"612 351 LINE",
"677 374 OFFCURVE",
"732 446 OFFCURVE",
"732 521 CURVE SMOOTH",
"732 629 OFFCURVE",
"625 698 OFFCURVE",
"461 698 CURVE SMOOTH",
"259 698 OFFCURVE",
"117 598 OFFCURVE",
"83 401 CURVE SMOOTH",
"12 0 LINE"
);
}
);
width = 798;
},
{
background = {
paths = (
{
closed = 1;
nodes = (
"9 0 LINE",
"154 0 LINE",
"222 384 LINE SMOOTH",
"245 514 OFFCURVE",
"327 575 OFFCURVE",
"468 575 CURVE SMOOTH",
"560 575 OFFCURVE",
"602 540 OFFCURVE",
"592 486 CURVE SMOOTH",
"585 447 OFFCURVE",
"550 402 OFFCURVE",
"501 402 CURVE SMOOTH",
"310 402 LINE",
"288 277 LINE",
"482 277 LINE SMOOTH",
"550 277 OFFCURVE",
"584 246 OFFCURVE",
"576 202 CURVE SMOOTH",
"569 163 OFFCURVE",
"533 125 OFFCURVE",
"476 125 CURVE SMOOTH",
"262 125 LINE",
"239 0 LINE",
"466 0 LINE SMOOTH",
"605 0 OFFCURVE",
"704 81 OFFCURVE",
"723 189 CURVE SMOOTH",
"737 270 OFFCURVE",
"699 327 OFFCURVE",
"626 347 CURVE",
"626 351 LINE",
"680 371 OFFCURVE",
"731 430 OFFCURVE",
"743 499 CURVE SMOOTH",
"764 620 OFFCURVE",
"655 698 OFFCURVE",
"479 698 CURVE SMOOTH",
"263 698 OFFCURVE",
"114 595 OFFCURVE",
"78 391 CURVE SMOOTH"
);
}
);
};
layerId = "C3F11B4E-1713-4D30-9530-E487AEA06E69";
paths = (
{
closed = 1;
nodes = (
"154 0 LINE",
"222 384 LINE SMOOTH",
"244 514 OFFCURVE",
"323 575 OFFCURVE",
"458 575 CURVE SMOOTH",
"548 575 OFFCURVE",
"593 544 OFFCURVE",
"593 496 CURVE SMOOTH",
"593 456 OFFCURVE",
"557 402 OFFCURVE",
"501 402 CURVE SMOOTH",
"310 402 LINE",
"288 277 LINE",
"482 277 LINE SMOOTH",
"543 277 OFFCURVE",
"577 252 OFFCURVE",
"577 214 CURVE SMOOTH",
"577 172 OFFCURVE",
"539 125 OFFCURVE",
"476 125 CURVE SMOOTH",
"262 125 LINE",
"239 0 LINE",
"466 0 LINE SMOOTH",
"613 0 OFFCURVE",
"726 83 OFFCURVE",
"726 218 CURVE SMOOTH",
"726 283 OFFCURVE",
"689 329 OFFCURVE",
"626 347 CURVE",
"626 351 LINE",
"691 374 OFFCURVE",
"746 445 OFFCURVE",
"746 520 CURVE SMOOTH",
"746 629 OFFCURVE",
"635 698 OFFCURVE",
"469 698 CURVE SMOOTH",
"258 698 OFFCURVE",
"113 595 OFFCURVE",
"78 391 CURVE SMOOTH",
"9 0 LINE"
);
}
);
width = 798;
}
);
leftKerningGroup = H;
note = uni1E9E;
rightKerningGroup = B;
unicode = 1E9E;
},
{
glyphname = Schwa;
lastChange = "2018-07-30 00:30:15 +0000";
layers = (
{
layerId = "F2AF9F09-4B67-43C0-B796-5CA32800A179";
paths = (
{
closed = 1;
nodes = (
"446 -12 OFFCURVE",
"537 21 OFFCURVE",
"602 86 CURVE SMOOTH",
"680 164 OFFCURVE",
"726 311 OFFCURVE",
"726 425 CURVE SMOOTH",
"726 598 OFFCURVE",
"614 698 OFFCURVE",
"434 698 CURVE SMOOTH",
"341 698 OFFCURVE",
"266 682 OFFCURVE",
"209 651 CURVE SMOOTH",
"137 611 OFFCURVE",
"93 546 OFFCURVE",
"77 454 CURVE",
"168 454 LINE",
"187 563 OFFCURVE",
"270 617 OFFCURVE",
"419 617 CURVE SMOOTH",
"550 617 OFFCURVE",
"630 560 OFFCURVE",
"630 430 CURVE SMOOTH",
"630 412 OFFCURVE",
"628 392 OFFCURVE",
"625 371 CURVE",
"62 371 LINE",
"51 309 LINE SMOOTH",
"46 282 OFFCURVE",
"43 256 OFFCURVE",
"43 231 CURVE SMOOTH",
"43 77 OFFCURVE",
"146 -12 OFFCURVE",
"329 -12 CURVE SMOOTH"
);
},
{
closed = 1;
nodes = (
"219 69 OFFCURVE",
"139 114 OFFCURVE",
"139 229 CURVE SMOOTH",
"139 246 OFFCURVE",
"141 264 OFFCURVE",
"144 283 CURVE",
"606 283 LINE",
"563 129 OFFCURVE",
"484 69 OFFCURVE",
"342 69 CURVE SMOOTH"
);
}
);
width = 758;
},
{
layerId = "A5125C76-E837-47F7-9C8F-34BD6CC95EDD";
paths = (
{
closed = 1;
nodes = (
"454 -12 OFFCURVE",
"546 21 OFFCURVE",
"610 90 CURVE SMOOTH",
"684 167 OFFCURVE",
"728 315 OFFCURVE",
"728 427 CURVE SMOOTH",
"728 599 OFFCURVE",
"618 698 OFFCURVE",
"435 698 CURVE SMOOTH",
"340 698 OFFCURVE",
"265 682 OFFCURVE",
"207 649 CURVE SMOOTH",
"136 609 OFFCURVE",
"92 544 OFFCURVE",
"76 452 CURVE",
"183 452 LINE",
"201 556 OFFCURVE",
"283 606 OFFCURVE",
"417 606 CURVE SMOOTH",
"544 606 OFFCURVE",
"616 551 OFFCURVE",
"616 430 CURVE SMOOTH",
"616 413 OFFCURVE",
"615 394 OFFCURVE",
"612 373 CURVE",
"62 373 LINE",
"52 316 LINE SMOOTH",
"47 288 OFFCURVE",
"44 261 OFFCURVE",
"44 236 CURVE SMOOTH",
"44 79 OFFCURVE",
"148 -12 OFFCURVE",
"332 -12 CURVE SMOOTH"
);
},
{
closed = 1;
nodes = (
"232 80 OFFCURVE",
"156 122 OFFCURVE",
"156 230 CURVE SMOOTH",
"156 245 OFFCURVE",
"157 262 OFFCURVE",
"160 280 CURVE",
"592 280 LINE",
"553 138 OFFCURVE",
"480 80 OFFCURVE",
"348 80 CURVE SMOOTH"
);
}
);
width = 758;
},
{
layerId = "9D48804D-E8D2-4297-83C4-532547FA9139";
paths = (
{
closed = 1;
nodes = (
"463 -12 OFFCURVE",
"556 21 OFFCURVE",
"620 94 CURVE SMOOTH",
"688 171 OFFCURVE",
"731 320 OFFCURVE",
"731 428 CURVE SMOOTH",
"731 599 OFFCURVE",
"622 698 OFFCURVE",
"435 698 CURVE SMOOTH",
"340 698 OFFCURVE",
"263 681 OFFCURVE",
"206 648 CURVE SMOOTH",
"135 607 OFFCURVE",
"92 541 OFFCURVE",
"76 449 CURVE",
"201 449 LINE",
"218 549 OFFCURVE",
"298 594 OFFCURVE",
"414 594 CURVE SMOOTH",
"538 594 OFFCURVE",
"601 542 OFFCURVE",
"601 430 CURVE SMOOTH",
"601 413 OFFCURVE",
"599 395 OFFCURVE",
"596 376 CURVE",
"63 376 LINE",
"54 323 LINE SMOOTH",
"49 294 OFFCURVE",
"46 267 OFFCURVE",
"46 241 CURVE SMOOTH",
"46 80 OFFCURVE",
"149 -12 OFFCURVE",
"335 -12 CURVE SMOOTH"
);
},
{
closed = 1;
nodes = (
"246 93 OFFCURVE",
"174 132 OFFCURVE",
"174 230 CURVE SMOOTH",
"174 245 OFFCURVE",
"176 260 OFFCURVE",
"179 276 CURVE",
"577 276 LINE",
"541 147 OFFCURVE",
"476 93 OFFCURVE",
"354 93 CURVE SMOOTH"
);
}
);
width = 758;
},
{
background = {
paths = (
{
closed = 1;
nodes = (
"552 -12 OFFCURVE",
"681 99 OFFCURVE",
"723 339 CURVE SMOOTH",
"766 586 OFFCURVE",
"672 698 OFFCURVE",
"445 698 CURVE SMOOTH",
"254 698 OFFCURVE",
"105 619 OFFCURVE",
"74 446 CURVE",
"217 446 LINE",
"234 541 OFFCURVE",
"317 582 OFFCURVE",
"420 582 CURVE SMOOTH",
"551 582 OFFCURVE",
"598 515 OFFCURVE",
"580 379 CURVE",
"62 379 LINE",
"54 331 LINE SMOOTH",
"14 92 OFFCURVE",
"110 -12 OFFCURVE",
"327 -12 CURVE SMOOTH"
);
},
{
closed = 1;
nodes = (
"241 105 OFFCURVE",
"174 152 OFFCURVE",
"196 273 CURVE",
"560 273 LINE",
"526 157 OFFCURVE",
"465 105 OFFCURVE",
"350 105 CURVE SMOOTH"
);
}
);
};
layerId = "C3F11B4E-1713-4D30-9530-E487AEA06E69";
paths = (
{
closed = 1;
nodes = (
"472 -12 OFFCURVE",
"566 21 OFFCURVE",
"629 98 CURVE SMOOTH",
"693 175 OFFCURVE",
"733 325 OFFCURVE",
"733 430 CURVE SMOOTH",
"733 600 OFFCURVE",
"627 698 OFFCURVE",
"436 698 CURVE SMOOTH",
"339 698 OFFCURVE",
"262 681 OFFCURVE",
"204 646 CURVE SMOOTH",
"134 605 OFFCURVE",
"91 538 OFFCURVE",
"75 446 CURVE",
"218 446 LINE",
"234 541 OFFCURVE",
"313 582 OFFCURVE",
"411 582 CURVE SMOOTH",
"531 582 OFFCURVE",
"585 532 OFFCURVE",
"585 430 CURVE SMOOTH",
"585 414 OFFCURVE",
"584 397 OFFCURVE",
"581 379 CURVE",
"63 379 LINE",
"55 331 LINE SMOOTH",
"50 301 OFFCURVE",
"47 273 OFFCURVE",
"47 247 CURVE SMOOTH",
"47 82 OFFCURVE",
"151 -12 OFFCURVE",
"338 -12 CURVE SMOOTH"
);
},
{
closed = 1;
nodes = (
"260 105 OFFCURVE",
"193 141 OFFCURVE",
"193 231 CURVE SMOOTH",
"193 244 OFFCURVE",
"194 258 OFFCURVE",
"197 273 CURVE",
"561 273 LINE",
"529 157 OFFCURVE",
"471 105 OFFCURVE",
"361 105 CURVE SMOOTH"
);
}
);
width = 758;
}
);
leftKerningGroup = O;
note = uni018F;
rightKerningGroup = O;
unicode = 018F;
},
{
glyphname = T;
lastChange = "2018-07-29 23:24:57 +0000";
layers = (
{
anchors = (
{
name = bottom;
position = "{246, 0}";
},
{
name = center;
position = "{304, 334}";
},
{
name = top;
position = "{366, 686}";
}
);
layerId = "F2AF9F09-4B67-43C0-B796-5CA32800A179";
paths = (
{
closed = 1;
nodes = (
"292 0 LINE",
"398 603 LINE",
"634 603 LINE",
"649 686 LINE",
"82 686 LINE",
"67 603 LINE",
"303 603 LINE",
"197 0 LINE"
);
}
);
width = 611;
},
{
anchors = (
{
name = bottom;
position = "{246, 0}";
},
{
name = center;
position = "{304, 334}";
},
{
name = top;
position = "{366, 686}";
}
);
layerId = "A5125C76-E837-47F7-9C8F-34BD6CC95EDD";
paths = (
{
closed = 1;
nodes = (
"301 0 LINE",
"405 590 LINE",
"633 590 LINE",
"651 686 LINE",
"83 686 LINE",
"66 590 LINE",
"294 590 LINE",
"191 0 LINE"
);
}
);
width = 611;
},
{
anchors = (
{
name = bottom;
position = "{248, 0}";
},
{
name = center;
position = "{306, 334}";
},
{
name = top;
position = "{368, 686}";
}
);
layerId = "9D48804D-E8D2-4297-83C4-532547FA9139";
paths = (
{
closed = 1;
nodes = (
"311 0 LINE",
"412 576 LINE",
"633 576 LINE",
"652 686 LINE",
"84 686 LINE",
"64 576 LINE",
"285 576 LINE",
"183 0 LINE"
);
}
);
width = 611;
},
{
anchors = (
{
name = bottom;
position = "{250, 0}";
},
{
name = center;
position = "{308, 334}";
},
{
name = top;
position = "{370, 686}";
}
);
layerId = "C3F11B4E-1713-4D30-9530-E487AEA06E69";
paths = (
{
closed = 1;
nodes = (
"321 0 LINE",
"420 561 LINE",
"632 561 LINE",
"654 686 LINE",
"85 686 LINE",
"63 561 LINE",
"275 561 LINE",
"176 0 LINE"
);
}
);
width = 611;
}
);
leftKerningGroup = T;
note = T;
rightKerningGroup = T;
unicode = 0054;
},
{
glyphname = Tbar;
lastChange = "2018-07-29 23:24:57 +0000";
layers = (
{
layerId = "F2AF9F09-4B67-43C0-B796-5CA32800A179";
paths = (
{
closed = 1;
nodes = (
"308 0 LINE",
"364 321 LINE",
"511 321 LINE",
"524 393 LINE",
"377 393 LINE",
"414 603 LINE",
"650 603 LINE",
"664 686 LINE",
"97 686 LINE",
"83 603 LINE",
"319 603 LINE",
"282 393 LINE",
"135 393 LINE",
"122 321 LINE",
"269 321 LINE",
"213 0 LINE"
);
}
);
width = 611;
},
{
layerId = "A5125C76-E837-47F7-9C8F-34BD6CC95EDD";
paths = (
{
closed = 1;
nodes = (
"316 0 LINE",
"371 315 LINE",
"521 315 LINE",
"535 393 LINE",
"385 393 LINE",
"420 590 LINE",
"648 590 LINE",
"664 686 LINE",
"97 686 LINE",
"81 590 LINE",
"309 590 LINE",
"274 393 LINE",
"124 393 LINE",
"110 315 LINE",
"260 315 LINE",
"205 0 LINE"
);
}
);
width = 611;
},
{
layerId = "9D48804D-E8D2-4297-83C4-532547FA9139";
paths = (
{
closed = 1;
nodes = (
"324 0 LINE",
"377 306 LINE",
"529 306 LINE",
"545 393 LINE",
"393 393 LINE",
"425 576 LINE",
"646 576 LINE",
"665 686 LINE",
"96 686 LINE",
"77 576 LINE",
"298 576 LINE",
"266 393 LINE",
"114 393 LINE",
"98 306 LINE",
"250 306 LINE",
"197 0 LINE"
);
}
);
width = 611;
},
{
layerId = "C3F11B4E-1713-4D30-9530-E487AEA06E69";
paths = (
{
closed = 1;
nodes = (
"333 0 LINE",
"383 285 LINE",
"533 285 LINE",
"551 388 LINE",
"401 388 LINE",
"431 561 LINE",
"643 561 LINE",
"665 686 LINE",
"96 686 LINE",
"74 561 LINE",
"286 561 LINE",
"256 388 LINE",
"106 388 LINE",
"88 285 LINE",
"238 285 LINE",
"188 0 LINE"
);
}
);
width = 611;
}
);
leftKerningGroup = T;
rightKerningGroup = T;
unicode = 0166;
},
{
glyphname = U;
lastChange = "2018-07-29 23:24:57 +0000";
layers = (
{
anchors = (
{
name = bottom;
position = "{299, 0}";
},
{
name = ogonek;
position = "{415, 0}";
},
{
name = top;
position = "{422, 686}";
},
{
name = topright;
position = "{619, 686}";
}
);
layerId = "F2AF9F09-4B67-43C0-B796-5CA32800A179";
paths = (
{
closed = 1;
nodes = (
"485 -12 OFFCURVE",
"595 68 OFFCURVE",
"628 253 CURVE SMOOTH",
"704 686 LINE",
"609 686 LINE",
"532 248 LINE SMOOTH",
"511 130 OFFCURVE",
"432 69 OFFCURVE",
"315 69 CURVE SMOOTH",
"213 69 OFFCURVE",
"155 116 OFFCURVE",
"155 207 CURVE SMOOTH",
"155 222 OFFCURVE",
"157 238 OFFCURVE",
"160 256 CURVE SMOOTH",
"235 686 LINE",
"140 686 LINE",
"66 261 LINE SMOOTH",
"62 239 OFFCURVE",
"60 218 OFFCURVE",
"60 198 CURVE SMOOTH",
"60 61 OFFCURVE",
"153 -12 OFFCURVE",
"318 -12 CURVE SMOOTH"
);
}
);
width = 722;
},
{
anchors = (
{
name = bottom;
position = "{301, 0}";
},
{
name = ogonek;
position = "{421, 0}";
},
{
name = top;
position = "{424, 686}";
},
{
name = topright;
position = "{609, 686}";
}
);
layerId = "A5125C76-E837-47F7-9C8F-34BD6CC95EDD";
paths = (
{
closed = 1;
nodes = (
"492 -12 OFFCURVE",
"601 71 OFFCURVE",
"634 254 CURVE SMOOTH",
"710 686 LINE",
"599 686 LINE",
"523 252 LINE SMOOTH",
"503 140 OFFCURVE",
"428 82 OFFCURVE",
"318 82 CURVE SMOOTH",
"221 82 OFFCURVE",
"169 126 OFFCURVE",
"169 212 CURVE SMOOTH",
"169 226 OFFCURVE",
"171 244 OFFCURVE",
"173 258 CURVE SMOOTH",
"248 686 LINE",
"138 686 LINE",
"64 262 LINE SMOOTH",
"60 240 OFFCURVE",
"58 218 OFFCURVE",
"58 199 CURVE SMOOTH",
"58 60 OFFCURVE",
"153 -12 OFFCURVE",
"320 -12 CURVE SMOOTH"
);
}
);
width = 722;
},
{
anchors = (
{
name = bottom;
position = "{303, 0}";
},
{
name = ogonek;
position = "{426, 0}";
},
{
name = top;
position = "{426, 686}";
},
{
name = topright;
position = "{598, 686}";
}
);
layerId = "9D48804D-E8D2-4297-83C4-532547FA9139";
paths = (
{
closed = 1;
nodes = (
"500 -12 OFFCURVE",
"608 75 OFFCURVE",
"640 254 CURVE SMOOTH",
"716 686 LINE",
"588 686 LINE",
"512 257 LINE SMOOTH",
"493 151 OFFCURVE",
"424 96 OFFCURVE",
"322 96 CURVE SMOOTH",
"231 96 OFFCURVE",
"184 138 OFFCURVE",
"184 217 CURVE SMOOTH",
"184 230 OFFCURVE",
"187 250 OFFCURVE",
"189 260 CURVE SMOOTH",
"264 686 LINE",
"136 686 LINE",
"62 262 LINE SMOOTH",
"58 240 OFFCURVE",
"56 219 OFFCURVE",
"56 199 CURVE SMOOTH",
"56 60 OFFCURVE",
"152 -12 OFFCURVE",
"322 -12 CURVE SMOOTH"
);
}
);
width = 722;
},
{
anchors = (
{
name = bottom;
position = "{305, 0}";
},
{
name = ogonek;
position = "{426, 0}";
},
{
name = top;
position = "{428, 686}";
},
{
name = topright;
position = "{607, 686}";
}
);
background = {
paths = (
{
closed = 1;
nodes = (
"487 -12 OFFCURVE",
"615 78 OFFCURVE",
"646 255 CURVE SMOOTH",
"722 686 LINE",
"577 686 LINE",
"502 262 LINE SMOOTH",
"484 162 OFFCURVE",
"419 111 OFFCURVE",
"325 111 CURVE SMOOTH",
"231 111 OFFCURVE",
"186 162 OFFCURVE",
"204 262 CURVE SMOOTH",
"279 686 LINE",
"134 686 LINE",
"58 255 LINE SMOOTH",
"27 78 OFFCURVE",
"120 -12 OFFCURVE",
"303 -12 CURVE SMOOTH"
);
}
);
};
layerId = "C3F11B4E-1713-4D30-9530-E487AEA06E69";
paths = (
{
closed = 1;
nodes = (
"508 -12 OFFCURVE",
"615 78 OFFCURVE",
"646 255 CURVE SMOOTH",
"722 686 LINE",
"577 686 LINE",
"502 262 LINE SMOOTH",
"484 162 OFFCURVE",
"420 111 OFFCURVE",
"326 111 CURVE SMOOTH",
"240 111 OFFCURVE",
"200 149 OFFCURVE",
"200 223 CURVE SMOOTH",
"200 235 OFFCURVE",
"203 256 OFFCURVE",
"204 262 CURVE SMOOTH",
"279 686 LINE",
"134 686 LINE",
"60 263 LINE SMOOTH",
"56 241 OFFCURVE",
"54 219 OFFCURVE",
"54 200 CURVE SMOOTH",
"54 59 OFFCURVE",
"152 -12 OFFCURVE",
"324 -12 CURVE SMOOTH"
);
}
);
width = 722;
}
);
leftKerningGroup = U;
note = U;
rightKerningGroup = U;
unicode = 0055;
},
{
glyphname = V;
lastChange = "2018-07-29 23:24:57 +0000";
layers = (
{
layerId = "F2AF9F09-4B67-43C0-B796-5CA32800A179";
paths = (
{
closed = 1;
nodes = (
"335 0 LINE",
"711 686 LINE",
"610 686 LINE",
"335 175 LINE SMOOTH",
"321 148 OFFCURVE",
"306 122 OFFCURVE",
"292 95 CURVE",
"287 95 LINE",
"282 124 OFFCURVE",
"276 152 OFFCURVE",
"271 181 CURVE SMOOTH",
"176 686 LINE",
"76 686 LINE",
"210 0 LINE"
);
}
);
width = 667;
},
{
layerId = "A5125C76-E837-47F7-9C8F-34BD6CC95EDD";
paths = (
{
closed = 1;
nodes = (
"343 0 LINE",
"717 686 LINE",
"599 686 LINE",
"348 216 LINE",
"297 117 LINE",
"292 117 LINE",
"289 137 OFFCURVE",
"280 190 OFFCURVE",
"274 220 CURVE SMOOTH",
"189 686 LINE",
"74 686 LINE",
"206 0 LINE"
);
}
);
width = 667;
},
{
layerId = "9D48804D-E8D2-4297-83C4-532547FA9139";
paths = (
{
closed = 1;
nodes = (
"351 0 LINE",
"723 686 LINE",
"586 686 LINE",
"364 263 LINE SMOOTH",
"347 232 OFFCURVE",
"308 152 OFFCURVE",
"303 143 CURVE",
"298 143 LINE",
"296 153 OFFCURVE",
"284 233 OFFCURVE",
"278 265 CURVE SMOOTH",
"204 686 LINE",
"73 686 LINE",
"202 0 LINE"
);
}
);
width = 667;
},
{
background = {
paths = (
{
closed = 1;
nodes = (
"71 686 LINE",
"199 0 LINE",
"361 0 LINE",
"729 686 LINE",
"578 686 LINE",
"384 310 LINE SMOOTH",
"366 276 OFFCURVE",
"316 168 OFFCURVE",
"316 168 CURVE SMOOTH",
"311 168 LINE SMOOTH",
"311 168 OFFCURVE",
"297 276 OFFCURVE",
"291 310 CURVE SMOOTH",
"228 686 LINE"
);
}
);
};
layerId = "C3F11B4E-1713-4D30-9530-E487AEA06E69";
paths = (
{
closed = 1;
nodes = (
"360 0 LINE",
"729 686 LINE",
"573 686 LINE",
"379 310 LINE SMOOTH",
"361 276 OFFCURVE",
"309 168 OFFCURVE",
"309 168 CURVE SMOOTH",
"304 168 LINE SMOOTH",
"304 168 OFFCURVE",
"288 276 OFFCURVE",
"282 310 CURVE SMOOTH",
"219 686 LINE",
"71 686 LINE",
"198 0 LINE"
);
}
);
width = 667;
}
);
leftKerningGroup = V;
note = V;
rightKerningGroup = V;
unicode = 0056;
},
{
glyphname = W;
lastChange = "2018-07-29 23:24:57 +0000";
layers = (
{
anchors = (
{
name = top;
position = "{526, 686}";
}
);
layerId = "F2AF9F09-4B67-43C0-B796-5CA32800A179";
paths = (
{
closed = 1;
nodes = (
"279 0 LINE",
"472 481 LINE SMOOTH",
"487 519 OFFCURVE",
"512 593 OFFCURVE",
"512 593 CURVE",
"517 593 LINE",
"517 593 OFFCURVE",
"518 525 OFFCURVE",
"520 481 CURVE SMOOTH",
"543 0 LINE",
"674 0 LINE",
"993 686 LINE",
"898 686 LINE",
"680 202 LINE SMOOTH",
"669 178 OFFCURVE",
"634 97 OFFCURVE",
"634 97 CURVE SMOOTH",
"629 97 LINE SMOOTH",
"629 97 OFFCURVE",
"629 169 OFFCURVE",
"627 202 CURVE SMOOTH",
"602 686 LINE",
"462 686 LINE",
"271 202 LINE SMOOTH",
"265 188 OFFCURVE",
"232 97 OFFCURVE",
"232 97 CURVE SMOOTH",
"227 97 LINE SMOOTH",
"227 97 OFFCURVE",
"223 178 OFFCURVE",
"220 202 CURVE SMOOTH",
"167 686 LINE",
"71 686 LINE",
"148 0 LINE"
);
}
);
width = 944;
},
{
anchors = (
{
name = top;
position = "{525, 686}";
}
);
layerId = "A5125C76-E837-47F7-9C8F-34BD6CC95EDD";
paths = (
{
closed = 1;
nodes = (
"280 0 LINE",
"471 468 LINE SMOOTH",
"485 503 OFFCURVE",
"509 575 OFFCURVE",
"509 575 CURVE",
"513 575 LINE",
"513 575 OFFCURVE",
"514 509 OFFCURVE",
"516 468 CURVE SMOOTH",
"541 0 LINE",
"682 0 LINE",
"996 686 LINE",
"885 686 LINE",
"680 221 LINE SMOOTH",
"668 194 OFFCURVE",
"639 119 OFFCURVE",
"639 119 CURVE SMOOTH",
"634 119 LINE SMOOTH",
"634 119 OFFCURVE",
"634 190 OFFCURVE",
"632 221 CURVE SMOOTH",
"607 686 LINE",
"456 686 LINE",
"270 221 LINE SMOOTH",
"262 202 OFFCURVE",
"234 119 OFFCURVE",
"234 119 CURVE SMOOTH",
"229 119 LINE SMOOTH",
"229 119 OFFCURVE",
"226 195 OFFCURVE",
"223 221 CURVE SMOOTH",
"178 686 LINE",
"69 686 LINE",
"139 0 LINE"
);
}
);
width = 944;
},
{
anchors = (
{
name = top;
position = "{527, 686}";
}
);
layerId = "9D48804D-E8D2-4297-83C4-532547FA9139";
paths = (
{
closed = 1;
nodes = (
"281 0 LINE",
"471 452 LINE SMOOTH",
"484 484 OFFCURVE",
"505 554 OFFCURVE",
"505 554 CURVE",
"509 554 LINE",
"509 554 OFFCURVE",
"510 490 OFFCURVE",
"512 452 CURVE SMOOTH",
"540 0 LINE",
"692 0 LINE",
"1000 686 LINE",
"871 686 LINE",
"681 242 LINE SMOOTH",
"668 212 OFFCURVE",
"645 143 OFFCURVE",
"645 143 CURVE SMOOTH",
"640 143 LINE SMOOTH",
"640 143 OFFCURVE",
"640 213 OFFCURVE",
"638 242 CURVE SMOOTH",
"612 686 LINE",
"450 686 LINE",
"269 242 LINE SMOOTH",
"259 219 OFFCURVE",
"236 143 OFFCURVE",
"236 143 CURVE SMOOTH",
"231 143 LINE SMOOTH",
"231 143 OFFCURVE",
"230 215 OFFCURVE",
"227 242 CURVE SMOOTH",
"190 686 LINE",
"68 686 LINE",
"129 0 LINE"
);
}
);
width = 944;
},
{
anchors = (
{
name = top;
position = "{527, 686}";
}
);
background = {
paths = (
{
closed = 1;
nodes = (
"65 686 LINE",
"127 0 LINE",
"284 0 LINE",
"472 437 LINE SMOOTH",
"484 466 OFFCURVE",
"506 534 OFFCURVE",
"506 534 CURVE",
"510 534 LINE",
"510 534 OFFCURVE",
"507 472 OFFCURVE",
"510 437 CURVE SMOOTH",
"546 0 LINE",
"703 0 LINE",
"1005 686 LINE",
"871 686 LINE",
"695 264 LINE SMOOTH",
"681 230 OFFCURVE",
"662 168 OFFCURVE",
"662 168 CURVE SMOOTH",
"657 168 LINE SMOOTH",
"657 168 OFFCURVE",
"660 237 OFFCURVE",
"658 264 CURVE SMOOTH",
"632 686 LINE",
"457 686 LINE",
"282 264 LINE SMOOTH",
"270 235 OFFCURVE",
"249 168 OFFCURVE",
"249 168 CURVE SMOOTH",
"244 168 LINE SMOOTH",
"244 168 OFFCURVE",
"247 234 OFFCURVE",
"245 264 CURVE SMOOTH",
"220 686 LINE"
);
}
);
};
layerId = "C3F11B4E-1713-4D30-9530-E487AEA06E69";
paths = (
{
closed = 1;
nodes = (
"282 0 LINE",
"470 437 LINE SMOOTH",
"482 466 OFFCURVE",
"501 534 OFFCURVE",
"501 534 CURVE",
"505 534 LINE",
"505 534 OFFCURVE",
"506 472 OFFCURVE",
"508 437 CURVE SMOOTH",
"538 0 LINE",
"701 0 LINE",
"1004 686 LINE",
"857 686 LINE",
"681 264 LINE SMOOTH",
"667 230 OFFCURVE",
"651 168 OFFCURVE",
"651 168 CURVE SMOOTH",
"646 168 LINE SMOOTH",
"646 168 OFFCURVE",
"646 237 OFFCURVE",
"644 264 CURVE SMOOTH",
"618 686 LINE",
"443 686 LINE",
"268 264 LINE SMOOTH",
"256 235 OFFCURVE",
"238 168 OFFCURVE",
"238 168 CURVE SMOOTH",
"233 168 LINE SMOOTH",
"233 168 OFFCURVE",
"233 234 OFFCURVE",
"231 264 CURVE SMOOTH",
"202 686 LINE",
"66 686 LINE",
"119 0 LINE"
);
}
);
width = 944;
}
);
leftKerningGroup = V;
note = W;
rightKerningGroup = V;
unicode = 0057;
},
{
glyphname = X;
lastChange = "2018-07-29 23:24:57 +0000";
layers = (
{
layerId = "F2AF9F09-4B67-43C0-B796-5CA32800A179";
paths = (
{
closed = 1;
nodes = (
"61 0 LINE",
"322 285 LINE",
"328 285 LINE",
"490 0 LINE",
"601 0 LINE",
"392 357 LINE",
"695 686 LINE",
"578 686 LINE",
"351 433 LINE",
"346 433 LINE",
"200 686 LINE",
"89 686 LINE",
"278 362 LINE",
"-55 0 LINE"
);
}
);
width = 667;
},
{
layerId = "A5125C76-E837-47F7-9C8F-34BD6CC95EDD";
paths = (
{
closed = 1;
nodes = (
"78 0 LINE",
"321 271 LINE",
"326 271 LINE",
"476 0 LINE",
"602 0 LINE",
"400 356 LINE",
"698 686 LINE",
"562 686 LINE",
"352 447 LINE",
"347 447 LINE",
"214 686 LINE",
"87 686 LINE",
"270 363 LINE",
"-57 0 LINE"
);
}
);
width = 667;
},
{
layerId = "9D48804D-E8D2-4297-83C4-532547FA9139";
paths = (
{
closed = 1;
nodes = (
"98 0 LINE",
"319 255 LINE",
"325 255 LINE",
"459 0 LINE",
"604 0 LINE",
"410 355 LINE",
"701 686 LINE",
"545 686 LINE",
"352 462 LINE",
"347 462 LINE",
"229 686 LINE",
"84 686 LINE",
"261 364 LINE",
"-58 0 LINE"
);
}
);
width = 667;
},
{
background = {
paths = (
{
closed = 1;
nodes = (
"240 360 LINE",
"-60 0 LINE",
"104 0 LINE",
"309 258 LINE",
"314 258 LINE",
"431 0 LINE",
"606 0 LINE",
"431 362 LINE",
"704 686 LINE",
"540 686 LINE",
"363 464 LINE",
"358 464 LINE",
"258 686 LINE",
"82 686 LINE"
);
}
);
};
layerId = "C3F11B4E-1713-4D30-9530-E487AEA06E69";
paths = (
{
closed = 1;
nodes = (
"118 0 LINE",
"318 239 LINE",
"323 239 LINE",
"443 0 LINE",
"605 0 LINE",
"419 354 LINE",
"704 686 LINE",
"527 686 LINE",
"353 478 LINE",
"348 478 LINE",
"245 686 LINE",
"82 686 LINE",
"252 365 LINE",
"-60 0 LINE"
);
}
);
width = 667;
}
);
leftKerningGroup = X;
note = X;
rightKerningGroup = X;
unicode = 0058;
},
{
glyphname = Y;
lastChange = "2018-07-29 23:24:57 +0000";
layers = (
{
anchors = (
{
name = bottom;
position = "{276, 0}";
},
{
name = top;
position = "{398, 686}";
}
);
layerId = "F2AF9F09-4B67-43C0-B796-5CA32800A179";
paths = (
{
closed = 1;
nodes = (
"321 0 LINE",
"371 284 LINE",
"712 686 LINE",
"603 686 LINE",
"341 369 LINE",
"336 369 LINE",
"180 686 LINE",
"76 686 LINE",
"276 284 LINE",
"226 0 LINE"
);
}
);
width = 667;
},
{
anchors = (
{
name = bottom;
position = "{276, 0}";
},
{
name = top;
position = "{398, 686}";
}
);
layerId = "A5125C76-E837-47F7-9C8F-34BD6CC95EDD";
paths = (
{
closed = 1;
nodes = (
"329 0 LINE",
"379 282 LINE",
"717 686 LINE",
"593 686 LINE",
"342 380 LINE",
"337 380 LINE",
"189 686 LINE",
"72 686 LINE",
"269 282 LINE",
"219 0 LINE"
);
}
);
width = 667;
},
{
anchors = (
{
name = bottom;
position = "{276, 0}";
},
{
name = top;
position = "{398, 686}";
}
);
layerId = "9D48804D-E8D2-4297-83C4-532547FA9139";
paths = (
{
closed = 1;
nodes = (
"339 0 LINE",
"388 279 LINE",
"723 686 LINE",
"581 686 LINE",
"344 393 LINE",
"339 393 LINE",
"200 686 LINE",
"67 686 LINE",
"260 279 LINE",
"211 0 LINE"
);
}
);
width = 667;
},
{
anchors = (
{
name = bottom;
position = "{278, 0}";
},
{
name = top;
position = "{400, 686}";
}
);
background = {
paths = (
{
closed = 1;
nodes = (
"252 277 LINE",
"204 0 LINE",
"349 0 LINE",
"397 277 LINE",
"729 686 LINE",
"572 686 LINE",
"354 406 LINE",
"349 406 LINE",
"227 686 LINE",
"62 686 LINE"
);
}
);
};
layerId = "C3F11B4E-1713-4D30-9530-E487AEA06E69";
paths = (
{
closed = 1;
nodes = (
"348 0 LINE",
"397 277 LINE",
"729 686 LINE",
"570 686 LINE",
"345 406 LINE",
"340 406 LINE",
"211 686 LINE",
"62 686 LINE",
"252 277 LINE",
"203 0 LINE"
);
}
);
width = 667;
}
);
leftKerningGroup = Y;
note = Y;
rightKerningGroup = Y;
unicode = 0059;
},
{
glyphname = Z;
lastChange = "2018-09-17 23:07:37 +0000";
layers = (
{
anchors = (
{
name = bottom;
position = "{260, 0}";
},
{
name = center;
position = "{320, 343}";
},
{
name = top;
position = "{370, 686}";
}
);
layerId = "F2AF9F09-4B67-43C0-B796-5CA32800A179";
paths = (
{
closed = 1;
nodes = (
"528 0 LINE",
"543 83 LINE",
"126 83 LINE",
"631 637 LINE",
"640 686 LINE",
"109 686 LINE",
"94 603 LINE",
"475 603 LINE",
"-28 49 LINE",
"-37 0 LINE"
);
}
);
width = 611;
},
{
anchors = (
{
name = bottom;
position = "{260, 0}";
},
{
name = center;
position = "{320, 343}";
},
{
name = top;
position = "{371, 686}";
}
);
layerId = "A5125C76-E837-47F7-9C8F-34BD6CC95EDD";
paths = (
{
closed = 1;
nodes = (
"529 0 LINE",
"546 95 LINE",
"151 95 LINE",
"631 631 LINE",
"641 686 LINE",
"109 686 LINE",
"92 591 LINE",
"451 591 LINE",
"-27 55 LINE",
"-37 0 LINE"
);
}
);
width = 611;
},
{
anchors = (
{
name = bottom;
position = "{260, 0}";
},
{
name = center;
position = "{320, 343}";
},
{
name = top;
position = "{373, 686}";
}
);
layerId = "9D48804D-E8D2-4297-83C4-532547FA9139";
paths = (
{
closed = 1;
nodes = (
"529 0 LINE",
"549 109 LINE",
"180 109 LINE",
"630 624 LINE",
"641 686 LINE",
"108 686 LINE",
"89 577 LINE",
"423 577 LINE",
"-27 61 LINE",
"-38 0 LINE"
);
}
);
width = 611;
},
{
anchors = (
{
name = bottom;
position = "{260, 0}";
},
{
name = center;
position = "{320, 343}";
},
{
name = top;
position = "{375, 686}";
}
);
background = {
paths = (
{
closed = 1;
nodes = (
"-26 68 LINE",
"-38 0 LINE",
"531 0 LINE",
"552 123 LINE",
"197 123 LINE",
"630 617 LINE",
"642 686 LINE",
"108 686 LINE",
"87 563 LINE",
"408 563 LINE"
);
}
);
};
layerId = "C3F11B4E-1713-4D30-9530-E487AEA06E69";
paths = (
{
closed = 1;
nodes = (
"530 0 LINE",
"552 123 LINE",
"208 123 LINE",
"630 617 LINE",
"642 686 LINE",
"108 686 LINE",
"86 563 LINE",
"396 563 LINE",
"-26 68 LINE",
"-38 0 LINE"
);
}
);
width = 611;
}
);
leftKerningGroup = Z;
note = Z;
rightKerningGroup = Z;
unicode = 005A;
},
{
glyphname = Y.loclGUA;
lastChange = "2018-07-29 23:24:57 +0000";
layers = (
{
anchors = (
{
name = top;
position = "{389, 686}";
}
);
layerId = "F2AF9F09-4B67-43C0-B796-5CA32800A179";
paths = (
{
closed = 1;
nodes = (
"438 -12 OFFCURVE",
"540 60 OFFCURVE",
"571 243 CURVE SMOOTH",
"607 443 LINE",
"650 686 LINE",
"555 686 LINE",
"516 468 LINE SMOOTH",
"493 337 OFFCURVE",
"410 269 OFFCURVE",
"301 269 CURVE SMOOTH",
"224 269 OFFCURVE",
"183 303 OFFCURVE",
"183 370 CURVE SMOOTH",
"183 381 OFFCURVE",
"184 394 OFFCURVE",
"187 408 CURVE",
"236 686 LINE",
"141 686 LINE",
"92 413 LINE SMOOTH",
"88 391 OFFCURVE",
"86 370 OFFCURVE",
"86 352 CURVE SMOOTH",
"86 238 OFFCURVE",
"155 188 OFFCURVE",
"272 188 CURVE SMOOTH",
"361 188 OFFCURVE",
"431 218 OFFCURVE",
"478 283 CURVE",
"484 283 LINE",
"476 238 LINE SMOOTH",
"455 119 OFFCURVE",
"388 69 OFFCURVE",
"282 69 CURVE SMOOTH",
"185 69 OFFCURVE",
"143 101 OFFCURVE",
"143 168 CURVE",
"45 168 LINE",
"45 158 LINE SMOOTH",
"45 40 OFFCURVE",
"138 -12 OFFCURVE",
"272 -12 CURVE SMOOTH"
);
}
);
width = 667;
},
{
anchors = (
{
name = top;
position = "{389, 686}";
}
);
layerId = "A5125C76-E837-47F7-9C8F-34BD6CC95EDD";
paths = (
{
closed = 1;
nodes = (
"440 -12 OFFCURVE",
"545 66 OFFCURVE",
"575 246 CURVE SMOOTH",
"613 456 LINE",
"654 686 LINE",
"543 686 LINE",
"507 481 LINE SMOOTH",
"484 354 OFFCURVE",
"409 288 OFFCURVE",
"307 288 CURVE SMOOTH",
"235 288 OFFCURVE",
"197 320 OFFCURVE",
"197 383 CURVE SMOOTH",
"197 394 OFFCURVE",
"198 406 OFFCURVE",
"200 418 CURVE SMOOTH",
"248 686 LINE",
"137 686 LINE",
"90 423 LINE SMOOTH",
"86 400 OFFCURVE",
"84 379 OFFCURVE",
"84 360 CURVE SMOOTH",
"84 248 OFFCURVE",
"149 194 OFFCURVE",
"268 194 CURVE SMOOTH",
"352 194 OFFCURVE",
"420 222 OFFCURVE",
"466 284 CURVE",
"472 284 LINE",
"464 236 LINE SMOOTH",
"445 129 OFFCURVE",
"381 82 OFFCURVE",
"282 82 CURVE SMOOTH",
"193 82 OFFCURVE",
"155 109 OFFCURVE",
"155 168 CURVE",
"41 168 LINE",
"41 158 LINE SMOOTH",
"41 42 OFFCURVE",
"134 -12 OFFCURVE",
"274 -12 CURVE SMOOTH"
);
}
);
width = 667;
},
{
anchors = (
{
name = top;
position = "{389, 686}";
}
);
layerId = "9D48804D-E8D2-4297-83C4-532547FA9139";
paths = (
{
closed = 1;
nodes = (
"441 -12 OFFCURVE",
"550 72 OFFCURVE",
"580 250 CURVE SMOOTH",
"619 470 LINE",
"658 686 LINE",
"530 686 LINE",
"496 497 LINE SMOOTH",
"475 374 OFFCURVE",
"407 309 OFFCURVE",
"313 309 CURVE SMOOTH",
"248 309 OFFCURVE",
"212 340 OFFCURVE",
"212 398 CURVE SMOOTH",
"212 408 OFFCURVE",
"213 419 OFFCURVE",
"216 430 CURVE",
"261 686 LINE",
"133 686 LINE",
"88 434 LINE SMOOTH",
"84 411 OFFCURVE",
"82 389 OFFCURVE",
"82 369 CURVE SMOOTH",
"82 259 OFFCURVE",
"143 201 OFFCURVE",
"264 201 CURVE SMOOTH",
"343 201 OFFCURVE",
"407 226 OFFCURVE",
"453 285 CURVE",
"459 285 LINE",
"450 234 LINE SMOOTH",
"433 141 OFFCURVE",
"373 96 OFFCURVE",
"282 96 CURVE SMOOTH",
"201 96 OFFCURVE",
"168 119 OFFCURVE",
"168 168 CURVE",
"37 168 LINE",
"37 159 LINE SMOOTH",
"37 43 OFFCURVE",
"129 -12 OFFCURVE",
"277 -12 CURVE SMOOTH"
);
}
);
width = 667;
},
{
anchors = (
{
name = top;
position = "{389, 686}";
}
);
background = {
paths = (
{
closed = 1;
nodes = (
"433 -12 OFFCURVE",
"554 78 OFFCURVE",
"585 254 CURVE SMOOTH",
"662 686 LINE",
"517 686 LINE",
"486 512 LINE SMOOTH",
"465 393 OFFCURVE",
"406 331 OFFCURVE",
"319 331 CURVE SMOOTH",
"251 331 OFFCURVE",
"218 369 OFFCURVE",
"231 442 CURVE SMOOTH",
"274 686 LINE",
"129 686 LINE",
"86 445 LINE SMOOTH",
"60 296 OFFCURVE",
"114 208 OFFCURVE",
"259 208 CURVE SMOOTH",
"334 208 OFFCURVE",
"397 232 OFFCURVE",
"442 288 CURVE",
"446 288 LINE",
"436 232 LINE SMOOTH",
"422 152 OFFCURVE",
"365 111 OFFCURVE",
"282 111 CURVE SMOOTH",
"212 111 OFFCURVE",
"176 131 OFFCURVE",
"182 168 CURVE",
"37 168 LINE",
"36 161 LINE SMOOTH",
"16 46 OFFCURVE",
"101 -12 OFFCURVE",
"260 -12 CURVE SMOOTH"
);
}
);
};
layerId = "C3F11B4E-1713-4D30-9530-E487AEA06E69";
paths = (
{
closed = 1;
nodes = (
"443 -12 OFFCURVE",
"556 78 OFFCURVE",
"585 254 CURVE SMOOTH",
"662 686 LINE",
"517 686 LINE",
"486 512 LINE SMOOTH",
"465 393 OFFCURVE",
"406 331 OFFCURVE",
"319 331 CURVE SMOOTH",
"261 331 OFFCURVE",
"228 359 OFFCURVE",
"228 413 CURVE SMOOTH",
"228 422 OFFCURVE",
"229 432 OFFCURVE",
"231 442 CURVE SMOOTH",
"274 686 LINE",
"129 686 LINE",
"86 445 LINE SMOOTH",
"82 421 OFFCURVE",
"80 399 OFFCURVE",
"80 378 CURVE SMOOTH",
"80 270 OFFCURVE",
"137 208 OFFCURVE",
"259 208 CURVE SMOOTH",
"333 208 OFFCURVE",
"394 231 OFFCURVE",
"439 286 CURVE",
"446 286 LINE",
"436 232 LINE SMOOTH",
"422 152 OFFCURVE",
"365 111 OFFCURVE",
"282 111 CURVE SMOOTH",
"210 111 OFFCURVE",
"181 128 OFFCURVE",
"181 168 CURVE",
"33 168 LINE",
"33 159 LINE SMOOTH",
"33 45 OFFCURVE",
"124 -12 OFFCURVE",
"280 -12 CURVE SMOOTH"
);
}
);
width = 667;
}
);
leftKerningGroup = Y.loclGUA;
note = Y.loclGUA;
rightKerningGroup = Y.loclGUA;
},
{
glyphname = a;
lastChange = "2018-08-11 19:17:59 +0000";
layers = (
{
anchors = (
{
name = bottom;
position = "{216, 0}";
},
{
name = ogonek;
position = "{500, 4}";
},
{
name = top;
position = "{299, 526}";
}
);
background = {
components = (
{
name = n;
transform = "{1, 0, 0, 1, -13, 0}";
}
);
};
layerId = "F2AF9F09-4B67-43C0-B796-5CA32800A179";
paths = (
{
closed = 1;
nodes = (
"253 -12 OFFCURVE",
"320 20 OFFCURVE",
"357 83 CURVE",
"362 83 LINE",
"356 27 OFFCURVE",
"373 -12 OFFCURVE",
"434 -12 CURVE SMOOTH",
"465 -12 OFFCURVE",
"489 -3 OFFCURVE",
"500 4 CURVE",
"510 61 LINE",
"470 61 LINE SMOOTH",
"450 61 OFFCURVE",
"440 69 OFFCURVE",
"440 88 CURVE SMOOTH",
"440 97 OFFCURVE",
"471 268 OFFCURVE",
"494 393 CURVE SMOOTH",
"519 526 LINE",
"452 526 LINE",
"421 466 LINE",
"415 466 LINE",
"390 517 OFFCURVE",
"345 538 OFFCURVE",
"273 538 CURVE SMOOTH",
"131 538 OFFCURVE",
"21 398 OFFCURVE",
"21 179 CURVE SMOOTH",
"21 50 OFFCURVE",
"86 -12 OFFCURVE",
"186 -12 CURVE SMOOTH"
);
},
{
closed = 1;
nodes = (
"142 61 OFFCURVE",
"113 104 OFFCURVE",
"113 184 CURVE SMOOTH",
"113 334 OFFCURVE",
"170 465 OFFCURVE",
"285 465 CURVE SMOOTH",
"361 465 OFFCURVE",
"392 421 OFFCURVE",
"392 341 CURVE SMOOTH",
"392 233 OFFCURVE",
"343 61 OFFCURVE",
"208 61 CURVE SMOOTH"
);
}
);
width = 556;
},
{
anchors = (
{
name = bottom;
position = "{220, 0}";
},
{
name = ogonek;
position = "{508, 4}";
},
{
name = top;
position = "{301, 526}";
}
);
layerId = "A5125C76-E837-47F7-9C8F-34BD6CC95EDD";
paths = (
{
closed = 1;
nodes = (
"252 -12 OFFCURVE",
"316 19 OFFCURVE",
"353 79 CURVE",
"358 79 LINE",
"358 24 OFFCURVE",
"376 -12 OFFCURVE",
"437 -12 CURVE SMOOTH",
"470 -12 OFFCURVE",
"495 -3 OFFCURVE",
"508 4 CURVE",
"520 73 LINE",
"483 73 LINE SMOOTH",
"465 73 OFFCURVE",
"453 81 OFFCURVE",
"453 100 CURVE SMOOTH",
"453 108 OFFCURVE",
"483 269 OFFCURVE",
"507 400 CURVE SMOOTH",
"530 526 LINE",
"448 526 LINE",
"417 466 LINE",
"411 466 LINE",
"384 515 OFFCURVE",
"339 538 OFFCURVE",
"267 538 CURVE SMOOTH",
"116 538 OFFCURVE",
"20 379 OFFCURVE",
"20 184 CURVE SMOOTH",
"20 53 OFFCURVE",
"86 -12 OFFCURVE",
"187 -12 CURVE SMOOTH"
);
},
{
closed = 1;
nodes = (
"155 75 OFFCURVE",
"127 115 OFFCURVE",
"127 190 CURVE SMOOTH",
"127 317 OFFCURVE",
"174 452 OFFCURVE",
"287 452 CURVE SMOOTH",
"357 452 OFFCURVE",
"387 411 OFFCURVE",
"387 335 CURVE SMOOTH",
"387 238 OFFCURVE",
"344 75 OFFCURVE",
"218 75 CURVE SMOOTH"
);
}
);
width = 567;
},
{
anchors = (
{
name = bottom;
position = "{225, 0}";
},
{
name = ogonek;
position = "{516, 4}";
},
{
name = top;
position = "{302, 526}";
}
);
layerId = "9D48804D-E8D2-4297-83C4-532547FA9139";
paths = (
{
closed = 1;
nodes = (
"251 -12 OFFCURVE",
"312 18 OFFCURVE",
"349 74 CURVE",
"354 74 LINE",
"351 27 OFFCURVE",
"381 -12 OFFCURVE",
"440 -12 CURVE SMOOTH",
"476 -12 OFFCURVE",
"503 -3 OFFCURVE",
"516 4 CURVE",
"531 86 LINE",
"498 86 LINE SMOOTH",
"481 86 OFFCURVE",
"469 94 OFFCURVE",
"469 113 CURVE SMOOTH",
"469 120 OFFCURVE",
"486 217 OFFCURVE",
"515 376 CURVE SMOOTH",
"542 526 LINE",
"443 526 LINE",
"412 465 LINE",
"406 465 LINE",
"377 514 OFFCURVE",
"332 538 OFFCURVE",
"259 538 CURVE SMOOTH",
"100 538 OFFCURVE",
"18 358 OFFCURVE",
"18 190 CURVE SMOOTH",
"18 56 OFFCURVE",
"86 -12 OFFCURVE",
"188 -12 CURVE SMOOTH"
);
},
{
closed = 1;
nodes = (
"169 91 OFFCURVE",
"143 128 OFFCURVE",
"143 197 CURVE SMOOTH",
"143 298 OFFCURVE",
"179 438 OFFCURVE",
"290 438 CURVE SMOOTH",
"353 438 OFFCURVE",
"382 400 OFFCURVE",
"382 329 CURVE SMOOTH",
"382 243 OFFCURVE",
"344 91 OFFCURVE",
"230 91 CURVE SMOOTH"
);
}
);
width = 579;
},
{
anchors = (
{
name = bottom;
position = "{231, 0}";
},
{
name = ogonek;
position = "{525, 4}";
},
{
name = top;
position = "{300, 526}";
}
);
background = {
components = (
{
name = o;
transform = "{1, 0, 0, 1, 2, 0}";
}
);
};
layerId = "C3F11B4E-1713-4D30-9530-E487AEA06E69";
paths = (
{
closed = 1;
nodes = (
"250 -12 OFFCURVE",
"307 17 OFFCURVE",
"345 69 CURVE",
"351 69 LINE",
"350 15 OFFCURVE",
"386 -12 OFFCURVE",
"443 -12 CURVE SMOOTH",
"482 -12 OFFCURVE",
"510 -3 OFFCURVE",
"525 4 CURVE",
"542 100 LINE",
"513 100 LINE SMOOTH",
"498 100 OFFCURVE",
"484 108 OFFCURVE",
"484 127 CURVE SMOOTH",
"484 143 OFFCURVE",
"505 254 OFFCURVE",
"531 398 CURVE SMOOTH",
"554 526 LINE",
"438 526 LINE",
"407 465 LINE",
"401 465 LINE",
"370 512 OFFCURVE",
"325 538 OFFCURVE",
"252 538 CURVE SMOOTH",
"83 538 OFFCURVE",
"17 336 OFFCURVE",
"17 196 CURVE SMOOTH",
"17 59 OFFCURVE",
"86 -12 OFFCURVE",
"189 -12 CURVE SMOOTH"
);
},
{
closed = 1;
nodes = (
"184 107 OFFCURVE",
"159 141 OFFCURVE",
"159 204 CURVE SMOOTH",
"159 279 OFFCURVE",
"184 423 OFFCURVE",
"293 423 CURVE SMOOTH",
"348 423 OFFCURVE",
"377 389 OFFCURVE",
"377 322 CURVE SMOOTH",
"377 249 OFFCURVE",
"345 107 OFFCURVE",
"242 107 CURVE SMOOTH"
);
}
);
width = 591;
}
);
leftKerningGroup = o;
note = a;
rightKerningGroup = a;
unicode = 0061;
},
{
glyphname = ae;
lastChange = "2018-07-29 23:24:57 +0000";
layers = (
{
anchors = (
{
name = top;
position = "{471, 526}";
}
);
layerId = "F2AF9F09-4B67-43C0-B796-5CA32800A179";
paths = (
{
closed = 1;
nodes = (
"249 -12 OFFCURVE",
"329 15 OFFCURVE",
"390 81 CURVE",
"422 18 OFFCURVE",
"493 -12 OFFCURVE",
"594 -12 CURVE SMOOTH",
"704 -12 OFFCURVE",
"801 51 OFFCURVE",
"821 179 CURVE",
"735 179 LINE",
"722 94 OFFCURVE",
"659 61 OFFCURVE",
"592 61 CURVE SMOOTH",
"500 61 OFFCURVE",
"457 106 OFFCURVE",
"457 201 CURVE SMOOTH",
"457 213 OFFCURVE",
"457 225 OFFCURVE",
"460 239 CURVE",
"831 239 LINE",
"839 283 LINE SMOOTH",
"844 310 OFFCURVE",
"847 334 OFFCURVE",
"847 357 CURVE SMOOTH",
"847 476 OFFCURVE",
"775 538 OFFCURVE",
"646 538 CURVE SMOOTH",
"567 538 OFFCURVE",
"507 513 OFFCURVE",
"463 471 CURVE",
"436 514 OFFCURVE",
"381 538 OFFCURVE",
"297 538 CURVE SMOOTH",
"172 538 OFFCURVE",
"65 480 OFFCURVE",
"65 370 CURVE",
"150 370 LINE",
"152 382 LINE SMOOTH",
"160 422 OFFCURVE",
"192 465 OFFCURVE",
"286 465 CURVE SMOOTH",
"368 465 OFFCURVE",
"393 437 OFFCURVE",
"393 395 CURVE SMOOTH",
"393 387 OFFCURVE",
"392 379 OFFCURVE",
"391 370 CURVE",
"381 312 LINE",
"176 312 OFFCURVE",
"-5 278 OFFCURVE",
"-5 116 CURVE SMOOTH",
"-5 6 OFFCURVE",
"94 -12 OFFCURVE",
"166 -12 CURVE SMOOTH"
);
},
{
closed = 1;
nodes = (
"124 61 OFFCURVE",
"89 76 OFFCURVE",
"89 121 CURVE SMOOTH",
"89 220 OFFCURVE",
"202 239 OFFCURVE",
"368 239 CURVE",
"362 201 LINE SMOOTH",
"348 110 OFFCURVE",
"254 61 OFFCURVE",
"182 61 CURVE SMOOTH"
);
},
{
closed = 1;
nodes = (
"496 410 OFFCURVE",
"554 465 OFFCURVE",
"643 465 CURVE SMOOTH",
"712 465 OFFCURVE",
"758 433 OFFCURVE",
"758 351 CURVE SMOOTH",
"758 339 OFFCURVE",
"758 326 OFFCURVE",
"754 312 CURVE",
"473 312 LINE"
);
}
);
width = 889;
},
{
anchors = (
{
name = top;
position = "{474, 526}";
}
);
layerId = "A5125C76-E837-47F7-9C8F-34BD6CC95EDD";
paths = (
{
closed = 1;
nodes = (
"258 -12 OFFCURVE",
"332 15 OFFCURVE",
"389 74 CURVE",
"423 16 OFFCURVE",
"492 -12 OFFCURVE",
"592 -12 CURVE SMOOTH",
"707 -12 OFFCURVE",
"803 50 OFFCURVE",
"824 181 CURVE",
"723 181 LINE",
"710 103 OFFCURVE",
"655 71 OFFCURVE",
"589 71 CURVE SMOOTH",
"505 71 OFFCURVE",
"466 112 OFFCURVE",
"466 196 CURVE SMOOTH",
"466 209 OFFCURVE",
"467 222 OFFCURVE",
"470 237 CURVE",
"833 237 LINE",
"841 277 LINE SMOOTH",
"846 304 OFFCURVE",
"849 329 OFFCURVE",
"849 352 CURVE SMOOTH",
"849 476 OFFCURVE",
"777 538 OFFCURVE",
"642 538 CURVE SMOOTH",
"567 538 OFFCURVE",
"510 515 OFFCURVE",
"468 477 CURVE",
"438 516 OFFCURVE",
"382 538 OFFCURVE",
"297 538 CURVE SMOOTH",
"170 538 OFFCURVE",
"65 477 OFFCURVE",
"65 370 CURVE",
"164 370 LINE",
"166 383 LINE",
"173 417 OFFCURVE",
"203 455 OFFCURVE",
"291 455 CURVE SMOOTH",
"366 455 OFFCURVE",
"389 429 OFFCURVE",
"389 390 CURVE SMOOTH",
"389 383 OFFCURVE",
"388 375 OFFCURVE",
"387 367 CURVE",
"378 315 LINE",
"169 315 OFFCURVE",
"-5 279 OFFCURVE",
"-5 117 CURVE SMOOTH",
"-5 6 OFFCURVE",
"101 -12 OFFCURVE",
"174 -12 CURVE SMOOTH"
);
},
{
closed = 1;
nodes = (
"134 72 OFFCURVE",
"104 88 OFFCURVE",
"104 127 CURVE SMOOTH",
"104 218 OFFCURVE",
"216 237 OFFCURVE",
"364 237 CURVE",
"359 205 LINE SMOOTH",
"346 122 OFFCURVE",
"267 72 OFFCURVE",
"189 72 CURVE SMOOTH"
);
},
{
closed = 1;
nodes = (
"507 405 OFFCURVE",
"559 455 OFFCURVE",
"642 455 CURVE SMOOTH",
"704 455 OFFCURVE",
"745 426 OFFCURVE",
"745 353 CURVE SMOOTH",
"745 341 OFFCURVE",
"745 328 OFFCURVE",
"741 315 CURVE",
"484 315 LINE"
);
}
);
width = 889;
},
{
anchors = (
{
name = top;
position = "{475, 526}";
}
);
layerId = "9D48804D-E8D2-4297-83C4-532547FA9139";
paths = (
{
closed = 1;
nodes = (
"269 -12 OFFCURVE",
"336 16 OFFCURVE",
"387 67 CURVE",
"423 13 OFFCURVE",
"492 -12 OFFCURVE",
"589 -12 CURVE SMOOTH",
"710 -12 OFFCURVE",
"806 50 OFFCURVE",
"827 184 CURVE",
"709 184 LINE",
"697 114 OFFCURVE",
"651 83 OFFCURVE",
"586 83 CURVE SMOOTH",
"510 83 OFFCURVE",
"477 118 OFFCURVE",
"477 191 CURVE SMOOTH",
"477 204 OFFCURVE",
"478 218 OFFCURVE",
"481 234 CURVE",
"836 234 LINE",
"842 270 LINE SMOOTH",
"847 298 OFFCURVE",
"850 323 OFFCURVE",
"850 347 CURVE SMOOTH",
"850 476 OFFCURVE",
"778 538 OFFCURVE",
"638 538 CURVE SMOOTH",
"567 538 OFFCURVE",
"514 518 OFFCURVE",
"473 483 CURVE",
"441 519 OFFCURVE",
"383 538 OFFCURVE",
"297 538 CURVE SMOOTH",
"167 538 OFFCURVE",
"64 473 OFFCURVE",
"64 370 CURVE",
"180 370 LINE",
"183 384 LINE SMOOTH",
"188 412 OFFCURVE",
"215 443 OFFCURVE",
"296 443 CURVE SMOOTH",
"365 443 OFFCURVE",
"384 419 OFFCURVE",
"384 385 CURVE SMOOTH",
"384 378 OFFCURVE",
"383 371 OFFCURVE",
"382 363 CURVE",
"374 319 LINE",
"161 319 OFFCURVE",
"-6 281 OFFCURVE",
"-6 117 CURVE SMOOTH",
"-6 6 OFFCURVE",
"109 -12 OFFCURVE",
"184 -12 CURVE SMOOTH"
);
},
{
closed = 1;
nodes = (
"146 84 OFFCURVE",
"120 101 OFFCURVE",
"120 133 CURVE SMOOTH",
"120 216 OFFCURVE",
"231 234 OFFCURVE",
"360 234 CURVE",
"355 210 LINE",
"343 135 OFFCURVE",
"282 84 OFFCURVE",
"197 84 CURVE SMOOTH"
);
},
{
closed = 1;
nodes = (
"519 400 OFFCURVE",
"564 443 OFFCURVE",
"641 443 CURVE SMOOTH",
"695 443 OFFCURVE",
"730 417 OFFCURVE",
"730 354 CURVE SMOOTH",
"730 344 OFFCURVE",
"729 331 OFFCURVE",
"727 319 CURVE",
"497 319 LINE"
);
}
);
width = 889;
},
{
anchors = (
{
name = top;
position = "{478, 526}";
}
);
background = {
paths = (
{
closed = 1;
nodes = (
"271 -12 OFFCURVE",
"333 15 OFFCURVE",
"384 56 CURVE",
"417 10 OFFCURVE",
"478 -12 OFFCURVE",
"563 -12 CURVE SMOOTH",
"696 -12 OFFCURVE",
"806 49 OFFCURVE",
"830 186 CURVE",
"695 186 LINE",
"685 125 OFFCURVE",
"639 94 OFFCURVE",
"583 94 CURVE SMOOTH",
"499 94 OFFCURVE",
"478 141 OFFCURVE",
"492 231 CURVE",
"838 231 LINE",
"844 263 LINE SMOOTH",
"879 452 OFFCURVE",
"813 538 OFFCURVE",
"659 538 CURVE SMOOTH",
"589 538 OFFCURVE",
"530 521 OFFCURVE",
"483 487 CURVE",
"451 520 OFFCURVE",
"397 538 OFFCURVE",
"317 538 CURVE SMOOTH",
"182 538 OFFCURVE",
"87 479 OFFCURVE",
"68 392 CURVE SMOOTH",
"66 383 OFFCURVE",
"65 376 OFFCURVE",
"65 370 CURVE",
"197 370 LINE",
"200 385 LINE SMOOTH",
"204 406 OFFCURVE",
"228 432 OFFCURVE",
"303 432 CURVE SMOOTH",
"378 432 OFFCURVE",
"386 399 OFFCURVE",
"378 359 CURVE SMOOTH",
"371 322 LINE",
"167 322 OFFCURVE",
"22 278 OFFCURVE",
"-3 136 CURVE SMOOTH",
"-26 8 OFFCURVE",
"105 -12 OFFCURVE",
"174 -12 CURVE SMOOTH"
);
},
{
closed = 1;
nodes = (
"510 322 LINE",
"531 394 OFFCURVE",
"571 431 OFFCURVE",
"641 431 CURVE SMOOTH",
"696 431 OFFCURVE",
"726 400 OFFCURVE",
"712 322 CURVE"
);
},
{
closed = 1;
nodes = (
"152 96 OFFCURVE",
"133 120 OFFCURVE",
"138 151 CURVE SMOOTH",
"148 216 OFFCURVE",
"251 231 OFFCURVE",
"355 231 CURVE",
"353 215 LINE SMOOTH",
"345 148 OFFCURVE",
"298 96 OFFCURVE",
"206 96 CURVE SMOOTH"
);
}
);
};
layerId = "C3F11B4E-1713-4D30-9530-E487AEA06E69";
paths = (
{
closed = 1;
nodes = (
"279 -12 OFFCURVE",
"339 16 OFFCURVE",
"386 59 CURVE",
"424 10 OFFCURVE",
"491 -12 OFFCURVE",
"587 -12 CURVE SMOOTH",
"713 -12 OFFCURVE",
"809 49 OFFCURVE",
"830 186 CURVE",
"695 186 LINE",
"684 125 OFFCURVE",
"646 94 OFFCURVE",
"583 94 CURVE SMOOTH",
"515 94 OFFCURVE",
"488 125 OFFCURVE",
"488 185 CURVE SMOOTH",
"488 199 OFFCURVE",
"489 214 OFFCURVE",
"492 231 CURVE",
"838 231 LINE",
"844 263 LINE SMOOTH",
"849 291 OFFCURVE",
"852 317 OFFCURVE",
"852 341 CURVE SMOOTH",
"852 476 OFFCURVE",
"780 538 OFFCURVE",
"634 538 CURVE SMOOTH",
"567 538 OFFCURVE",
"518 520 OFFCURVE",
"479 490 CURVE",
"443 521 OFFCURVE",
"384 538 OFFCURVE",
"297 538 CURVE SMOOTH",
"165 538 OFFCURVE",
"64 470 OFFCURVE",
"64 370 CURVE",
"196 370 LINE",
"199 385 LINE SMOOTH",
"203 406 OFFCURVE",
"227 432 OFFCURVE",
"302 432 CURVE SMOOTH",
"363 432 OFFCURVE",
"379 410 OFFCURVE",
"379 380 CURVE SMOOTH",
"379 373 OFFCURVE",
"378 366 OFFCURVE",
"377 359 CURVE SMOOTH",
"371 322 LINE",
"153 322 OFFCURVE",
"-6 282 OFFCURVE",
"-6 118 CURVE SMOOTH",
"-6 6 OFFCURVE",
"117 -12 OFFCURVE",
"193 -12 CURVE SMOOTH"
);
},
{
closed = 1;
nodes = (
"157 96 OFFCURVE",
"137 115 OFFCURVE",
"137 140 CURVE SMOOTH",
"137 214 OFFCURVE",
"247 231 OFFCURVE",
"355 231 CURVE",
"352 215 LINE SMOOTH",
"340 149 OFFCURVE",
"297 96 OFFCURVE",
"205 96 CURVE SMOOTH"
);
},
{
closed = 1;
nodes = (
"531 394 OFFCURVE",
"570 431 OFFCURVE",
"640 431 CURVE SMOOTH",
"686 431 OFFCURVE",
"715 409 OFFCURVE",
"715 356 CURVE SMOOTH",
"715 346 OFFCURVE",
"714 334 OFFCURVE",
"712 322 CURVE",
"510 322 LINE"
);
}
);
width = 889;
}
);
leftKerningGroup = o;
note = ae;
rightKerningGroup = e;
unicode = 00E6;
},
{
glyphname = b;
lastChange = "2018-07-29 23:24:57 +0000";
layers = (
{
background = {
paths = (
{
closed = 1;
nodes = (
"386 -12 OFFCURVE",
"480 70 OFFCURVE",
"514 263 CURVE SMOOTH",
"548 454 OFFCURVE",
"481 538 OFFCURVE",
"362 538 CURVE SMOOTH",
"288 538 OFFCURVE",
"233 517 OFFCURVE",
"189 466 CURVE",
"183 466 LINE",
"229 723 LINE",
"141 723 LINE",
"13 0 LINE",
"79 0 LINE",
"103 71 LINE",
"109 71 LINE",
"134 16 OFFCURVE",
"189 -12 OFFCURVE",
"257 -12 CURVE SMOOTH"
);
},
{
closed = 1;
nodes = (
"151 61 OFFCURVE",
"116 134 OFFCURVE",
"147 259 CURVE SMOOTH",
"148 263 LINE SMOOTH",
"180 391 OFFCURVE",
"223 465 OFFCURVE",
"319 465 CURVE SMOOTH",
"418 465 OFFCURVE",
"460 411 OFFCURVE",
"423 263 CURVE SMOOTH",
"422 259 LINE SMOOTH",
"386 114 OFFCURVE",
"348 61 OFFCURVE",
"248 61 CURVE SMOOTH"
);
}
);
};
layerId = "F2AF9F09-4B67-43C0-B796-5CA32800A179";
paths = (
{
closed = 1;
nodes = (
"416 -12 OFFCURVE",
"518 132 OFFCURVE",
"518 347 CURVE SMOOTH",
"518 479 OFFCURVE",
"454 538 OFFCURVE",
"352 538 CURVE SMOOTH",
"282 538 OFFCURVE",
"230 511 OFFCURVE",
"189 466 CURVE",
"183 466 LINE",
"228 723 LINE",
"140 723 LINE",
"13 0 LINE",
"79 0 LINE",
"102 71 LINE",
"108 71 LINE",
"136 16 OFFCURVE",
"194 -12 OFFCURVE",
"267 -12 CURVE SMOOTH"
);
},
{
closed = 1;
nodes = (
"172 61 OFFCURVE",
"140 108 OFFCURVE",
"140 194 CURVE SMOOTH",
"140 329 OFFCURVE",
"200 465 OFFCURVE",
"319 465 CURVE SMOOTH",
"393 465 OFFCURVE",
"427 432 OFFCURVE",
"427 344 CURVE SMOOTH",
"427 189 OFFCURVE",
"369 61 OFFCURVE",
"248 61 CURVE SMOOTH"
);
}
);
width = 556;
},
{
layerId = "A5125C76-E837-47F7-9C8F-34BD6CC95EDD";
paths = (
{
closed = 1;
nodes = (
"443 -12 OFFCURVE",
"534 150 OFFCURVE",
"534 342 CURVE SMOOTH",
"534 477 OFFCURVE",
"467 538 OFFCURVE",
"363 538 CURVE SMOOTH",
"295 538 OFFCURVE",
"243 511 OFFCURVE",
"204 466 CURVE",
"198 466 LINE",
"243 723 LINE",
"140 723 LINE",
"13 0 LINE",
"95 0 LINE",
"117 70 LINE",
"123 70 LINE",
"151 16 OFFCURVE",
"208 -12 OFFCURVE",
"281 -12 CURVE SMOOTH"
);
},
{
closed = 1;
nodes = (
"187 74 OFFCURVE",
"155 117 OFFCURVE",
"155 197 CURVE SMOOTH",
"155 313 OFFCURVE",
"208 451 OFFCURVE",
"325 451 CURVE SMOOTH",
"395 451 OFFCURVE",
"427 418 OFFCURVE",
"427 337 CURVE SMOOTH",
"427 207 OFFCURVE",
"379 74 OFFCURVE",
"258 74 CURVE SMOOTH"
);
}
);
width = 573;
},
{
layerId = "9D48804D-E8D2-4297-83C4-532547FA9139";
paths = (
{
closed = 1;
nodes = (
"473 -12 OFFCURVE",
"552 170 OFFCURVE",
"552 337 CURVE SMOOTH",
"552 475 OFFCURVE",
"481 538 OFFCURVE",
"376 538 CURVE SMOOTH",
"310 538 OFFCURVE",
"258 512 OFFCURVE",
"221 465 CURVE",
"215 465 LINE",
"260 723 LINE",
"140 723 LINE",
"13 0 LINE",
"112 0 LINE",
"134 70 LINE",
"141 70 LINE",
"167 15 OFFCURVE",
"224 -12 OFFCURVE",
"298 -12 CURVE SMOOTH"
);
},
{
closed = 1;
nodes = (
"205 88 OFFCURVE",
"173 127 OFFCURVE",
"173 201 CURVE SMOOTH",
"173 295 OFFCURVE",
"216 435 OFFCURVE",
"331 435 CURVE SMOOTH",
"398 435 OFFCURVE",
"428 401 OFFCURVE",
"428 330 CURVE SMOOTH",
"428 227 OFFCURVE",
"390 88 OFFCURVE",
"270 88 CURVE SMOOTH"
);
}
);
width = 592;
},
{
background = {
paths = (
{
closed = 1;
nodes = (
"432 -12 OFFCURVE",
"528 73 OFFCURVE",
"562 264 CURVE SMOOTH",
"596 453 OFFCURVE",
"523 538 OFFCURVE",
"407 538 CURVE SMOOTH",
"336 538 OFFCURVE",
"277 512 OFFCURVE",
"237 465 CURVE",
"231 465 LINE",
"277 723 LINE",
"140 723 LINE",
"12 0 LINE",
"129 0 LINE",
"150 69 LINE",
"157 69 LINE",
"182 15 OFFCURVE",
"236 -12 OFFCURVE",
"303 -12 CURVE SMOOTH"
);
},
{
closed = 1;
nodes = (
"202 107 OFFCURVE",
"176 159 OFFCURVE",
"194 254 CURVE SMOOTH",
"197 270 LINE SMOOTH",
"215 365 OFFCURVE",
"257 419 OFFCURVE",
"335 419 CURVE SMOOTH",
"419 419 OFFCURVE",
"438 367 OFFCURVE",
"422 272 CURVE SMOOTH",
"419 254 LINE SMOOTH",
"403 159 OFFCURVE",
"364 107 OFFCURVE",
"280 107 CURVE SMOOTH"
);
}
);
};
layerId = "C3F11B4E-1713-4D30-9530-E487AEA06E69";
paths = (
{
closed = 1;
nodes = (
"504 -12 OFFCURVE",
"570 190 OFFCURVE",
"570 331 CURVE SMOOTH",
"570 473 OFFCURVE",
"496 538 OFFCURVE",
"388 538 CURVE SMOOTH",
"325 538 OFFCURVE",
"273 512 OFFCURVE",
"238 465 CURVE",
"232 465 LINE",
"277 723 LINE",
"140 723 LINE",
"13 0 LINE",
"130 0 LINE",
"151 69 LINE",
"158 69 LINE",
"184 15 OFFCURVE",
"240 -12 OFFCURVE",
"314 -12 CURVE SMOOTH"
);
},
{
closed = 1;
nodes = (
"222 103 OFFCURVE",
"190 137 OFFCURVE",
"190 204 CURVE SMOOTH",
"190 277 OFFCURVE",
"225 419 OFFCURVE",
"338 419 CURVE SMOOTH",
"401 419 OFFCURVE",
"428 385 OFFCURVE",
"428 322 CURVE SMOOTH",
"428 247 OFFCURVE",
"401 103 OFFCURVE",
"281 103 CURVE SMOOTH"
);
}
);
width = 611;
}
);
leftKerningGroup = l;
note = b;
rightKerningGroup = b;
unicode = 0062;
},
{
glyphname = c;
lastChange = "2018-07-29 23:24:57 +0000";
layers = (
{
anchors = (
{
name = bottom;
position = "{213, 0}";
},
{
name = top;
position = "{295, 526}";
}
);
layerId = "F2AF9F09-4B67-43C0-B796-5CA32800A179";
paths = (
{
closed = 1;
nodes = (
"363 -12 OFFCURVE",
"433 83 OFFCURVE",
"451 195 CURVE",
"366 195 LINE",
"353 128 OFFCURVE",
"310 61 OFFCURVE",
"221 61 CURVE SMOOTH",
"151 61 OFFCURVE",
"113 98 OFFCURVE",
"113 198 CURVE SMOOTH",
"113 225 OFFCURVE",
"115 255 OFFCURVE",
"120 284 CURVE SMOOTH",
"136 375 OFFCURVE",
"181 465 OFFCURVE",
"286 465 CURVE SMOOTH",
"367 465 OFFCURVE",
"385 417 OFFCURVE",
"385 360 CURVE SMOOTH",
"385 350 OFFCURVE",
"385 341 OFFCURVE",
"384 331 CURVE",
"474 331 LINE",
"475 343 OFFCURVE",
"476 356 OFFCURVE",
"476 368 CURVE SMOOTH",
"476 466 OFFCURVE",
"426 538 OFFCURVE",
"283 538 CURVE SMOOTH",
"90 538 OFFCURVE",
"21 359 OFFCURVE",
"21 193 CURVE SMOOTH",
"21 54 OFFCURVE",
"82 -12 OFFCURVE",
"224 -12 CURVE SMOOTH"
);
}
);
width = 500;
},
{
anchors = (
{
name = bottom;
position = "{213, 0}";
},
{
name = top;
position = "{295, 526}";
}
);
layerId = "A5125C76-E837-47F7-9C8F-34BD6CC95EDD";
paths = (
{
closed = 1;
nodes = (
"370 -12 OFFCURVE",
"445 75 OFFCURVE",
"464 196 CURVE",
"365 196 LINE",
"353 130 OFFCURVE",
"311 72 OFFCURVE",
"230 72 CURVE SMOOTH",
"161 72 OFFCURVE",
"126 109 OFFCURVE",
"126 198 CURVE SMOOTH",
"126 222 OFFCURVE",
"128 249 OFFCURVE",
"134 280 CURVE SMOOTH",
"151 374 OFFCURVE",
"195 454 OFFCURVE",
"291 454 CURVE SMOOTH",
"363 454 OFFCURVE",
"384 412 OFFCURVE",
"384 358 CURVE SMOOTH",
"384 349 OFFCURVE",
"384 340 OFFCURVE",
"383 330 CURVE",
"487 330 LINE",
"489 344 OFFCURVE",
"490 358 OFFCURVE",
"490 370 CURVE SMOOTH",
"490 472 OFFCURVE",
"428 538 OFFCURVE",
"288 538 CURVE SMOOTH",
"92 538 OFFCURVE",
"20 361 OFFCURVE",
"20 191 CURVE SMOOTH",
"20 53 OFFCURVE",
"86 -12 OFFCURVE",
"233 -12 CURVE SMOOTH"
);
}
);
width = 517;
},
{
anchors = (
{
name = bottom;
position = "{217, 0}";
},
{
name = top;
position = "{299, 526}";
}
);
layerId = "9D48804D-E8D2-4297-83C4-532547FA9139";
paths = (
{
closed = 1;
nodes = (
"378 -12 OFFCURVE",
"459 65 OFFCURVE",
"480 197 CURVE",
"364 197 LINE",
"352 132 OFFCURVE",
"313 85 OFFCURVE",
"241 85 CURVE SMOOTH",
"173 85 OFFCURVE",
"142 121 OFFCURVE",
"142 197 CURVE SMOOTH",
"142 218 OFFCURVE",
"144 241 OFFCURVE",
"150 276 CURVE SMOOTH",
"168 373 OFFCURVE",
"210 441 OFFCURVE",
"297 441 CURVE SMOOTH",
"359 441 OFFCURVE",
"383 407 OFFCURVE",
"383 356 CURVE SMOOTH",
"383 347 OFFCURVE",
"382 338 OFFCURVE",
"381 329 CURVE",
"503 329 LINE",
"505 344 OFFCURVE",
"506 359 OFFCURVE",
"506 373 CURVE SMOOTH",
"506 478 OFFCURVE",
"431 538 OFFCURVE",
"294 538 CURVE SMOOTH",
"95 538 OFFCURVE",
"18 363 OFFCURVE",
"18 189 CURVE SMOOTH",
"18 52 OFFCURVE",
"91 -12 OFFCURVE",
"243 -12 CURVE SMOOTH"
);
}
);
width = 537;
},
{
anchors = (
{
name = bottom;
position = "{228, 0}";
},
{
name = top;
position = "{310, 526}";
}
);
layerId = "C3F11B4E-1713-4D30-9530-E487AEA06E69";
paths = (
{
closed = 1;
nodes = (
"386 -12 OFFCURVE",
"473 56 OFFCURVE",
"495 198 CURVE",
"363 198 LINE",
"352 134 OFFCURVE",
"314 98 OFFCURVE",
"251 98 CURVE SMOOTH",
"185 98 OFFCURVE",
"157 133 OFFCURVE",
"157 197 CURVE SMOOTH",
"157 214 OFFCURVE",
"159 234 OFFCURVE",
"166 271 CURVE SMOOTH",
"185 372 OFFCURVE",
"226 428 OFFCURVE",
"303 428 CURVE SMOOTH",
"354 428 OFFCURVE",
"382 402 OFFCURVE",
"382 354 CURVE SMOOTH",
"382 346 OFFCURVE",
"381 337 OFFCURVE",
"380 328 CURVE",
"518 328 LINE",
"521 345 OFFCURVE",
"522 361 OFFCURVE",
"522 376 CURVE SMOOTH",
"522 484 OFFCURVE",
"434 538 OFFCURVE",
"300 538 CURVE SMOOTH",
"97 538 OFFCURVE",
"17 365 OFFCURVE",
"17 187 CURVE SMOOTH",
"17 51 OFFCURVE",
"96 -12 OFFCURVE",
"253 -12 CURVE SMOOTH"
);
}
);
width = 556;
}
);
leftKerningGroup = o;
note = c;
rightKerningGroup = c;
unicode = 0063;
},
{
glyphname = d;
lastChange = "2018-09-17 23:07:49 +0000";
layers = (
{
anchors = (
{
name = bottom;
position = "{232, 0}";
},
{
name = center;
position = "{456, 617}";
},
{
name = top;
position = "{359, 723}";
},
{
name = topright;
position = "{578, 526}";
}
);
background = {
anchors = (
{
name = center;
position = "{456, 617}";
},
{
name = topright;
position = "{367, 433}";
}
);
};
layerId = "F2AF9F09-4B67-43C0-B796-5CA32800A179";
paths = (
{
closed = 1;
nodes = (
"263 -12 OFFCURVE",
"322 16 OFFCURVE",
"364 71 CURVE",
"370 71 LINE",
"370 0 LINE",
"435 0 LINE",
"562 723 LINE",
"474 723 LINE",
"429 466 LINE",
"423 466 LINE",
"396 512 OFFCURVE",
"349 538 OFFCURVE",
"273 538 CURVE SMOOTH",
"131 538 OFFCURVE",
"21 405 OFFCURVE",
"21 196 CURVE SMOOTH",
"21 50 OFFCURVE",
"89 -12 OFFCURVE",
"199 -12 CURVE SMOOTH"
);
},
{
closed = 1;
nodes = (
"149 61 OFFCURVE",
"113 96 OFFCURVE",
"113 192 CURVE SMOOTH",
"113 343 OFFCURVE",
"171 465 OFFCURVE",
"285 465 CURVE SMOOTH",
"367 465 OFFCURVE",
"400 421 OFFCURVE",
"400 341 CURVE SMOOTH",
"400 201 OFFCURVE",
"343 61 OFFCURVE",
"224 61 CURVE SMOOTH"
);
}
);
width = 556;
},
{
anchors = (
{
name = bottom;
position = "{241, 0}";
},
{
name = center;
position = "{466, 617}";
},
{
name = top;
position = "{368, 723}";
},
{
name = topright;
position = "{593, 526}";
}
);
layerId = "A5125C76-E837-47F7-9C8F-34BD6CC95EDD";
paths = (
{
closed = 1;
nodes = (
"264 -12 OFFCURVE",
"322 17 OFFCURVE",
"363 70 CURVE",
"370 70 LINE",
"370 0 LINE",
"450 0 LINE",
"577 723 LINE",
"474 723 LINE",
"429 466 LINE",
"423 466 LINE",
"394 512 OFFCURVE",
"347 538 OFFCURVE",
"270 538 CURVE SMOOTH",
"118 538 OFFCURVE",
"20 384 OFFCURVE",
"20 196 CURVE SMOOTH",
"20 51 OFFCURVE",
"89 -12 OFFCURVE",
"202 -12 CURVE SMOOTH"
);
},
{
closed = 1;
nodes = (
"161 75 OFFCURVE",
"127 110 OFFCURVE",
"127 196 CURVE SMOOTH",
"127 323 OFFCURVE",
"174 452 OFFCURVE",
"292 452 CURVE SMOOTH",
"367 452 OFFCURVE",
"399 411 OFFCURVE",
"399 335 CURVE SMOOTH",
"399 210 OFFCURVE",
"349 75 OFFCURVE",
"232 75 CURVE SMOOTH"
);
}
);
width = 573;
},
{
anchors = (
{
name = bottom;
position = "{250, 0}";
},
{
name = center;
position = "{477, 617}";
},
{
name = top;
position = "{377, 723}";
},
{
name = topright;
position = "{608, 526}";
}
);
layerId = "9D48804D-E8D2-4297-83C4-532547FA9139";
paths = (
{
closed = 1;
nodes = (
"266 -12 OFFCURVE",
"323 18 OFFCURVE",
"363 70 CURVE",
"369 70 LINE",
"369 0 LINE",
"466 0 LINE",
"593 723 LINE",
"473 723 LINE",
"428 465 LINE",
"422 465 LINE",
"391 512 OFFCURVE",
"344 538 OFFCURVE",
"266 538 CURVE SMOOTH",
"102 538 OFFCURVE",
"19 360 OFFCURVE",
"19 196 CURVE SMOOTH",
"19 51 OFFCURVE",
"89 -12 OFFCURVE",
"205 -12 CURVE SMOOTH"
);
},
{
closed = 1;
nodes = (
"174 91 OFFCURVE",
"144 125 OFFCURVE",
"144 200 CURVE SMOOTH",
"144 301 OFFCURVE",
"178 438 OFFCURVE",
"299 438 CURVE SMOOTH",
"366 438 OFFCURVE",
"399 400 OFFCURVE",
"399 329 CURVE SMOOTH",
"399 219 OFFCURVE",
"356 91 OFFCURVE",
"241 91 CURVE SMOOTH"
);
}
);
width = 592;
},
{
anchors = (
{
name = bottom;
position = "{260, 0}";
},
{
name = center;
position = "{490, 617}";
},
{
name = top;
position = "{387, 723}";
},
{
name = topright;
position = "{626, 526}";
}
);
background = {
paths = (
{
closed = 1;
nodes = (
"255 -12 OFFCURVE",
"319 15 OFFCURVE",
"362 69 CURVE",
"369 69 LINE",
"366 0 LINE",
"483 0 LINE",
"611 723 LINE",
"474 723 LINE",
"428 465 LINE",
"422 465 LINE",
"400 512 OFFCURVE",
"349 538 OFFCURVE",
"278 538 CURVE SMOOTH",
"162 538 OFFCURVE",
"60 453 OFFCURVE",
"27 264 CURVE SMOOTH",
"-6 73 OFFCURVE",
"59 -12 OFFCURVE",
"188 -12 CURVE SMOOTH"
);
},
{
closed = 1;
nodes = (
"169 107 OFFCURVE",
"150 159 OFFCURVE",
"166 254 CURVE SMOOTH",
"169 272 LINE SMOOTH",
"185 367 OFFCURVE",
"224 419 OFFCURVE",
"308 419 CURVE SMOOTH",
"386 419 OFFCURVE",
"412 365 OFFCURVE",
"394 270 CURVE SMOOTH",
"391 254 LINE SMOOTH",
"373 159 OFFCURVE",
"331 107 OFFCURVE",
"253 107 CURVE SMOOTH"
);
}
);
};
layerId = "C3F11B4E-1713-4D30-9530-E487AEA06E69";
paths = (
{
closed = 1;
nodes = (
"267 -12 OFFCURVE",
"323 19 OFFCURVE",
"362 69 CURVE",
"369 69 LINE",
"369 0 LINE",
"483 0 LINE",
"610 723 LINE",
"473 723 LINE",
"428 465 LINE",
"422 465 LINE",
"389 512 OFFCURVE",
"341 538 OFFCURVE",
"263 538 CURVE SMOOTH",
"87 538 OFFCURVE",
"18 336 OFFCURVE",
"18 196 CURVE SMOOTH",
"18 52 OFFCURVE",
"89 -12 OFFCURVE",
"208 -12 CURVE SMOOTH"
);
},
{
closed = 1;
nodes = (
"187 107 OFFCURVE",
"160 141 OFFCURVE",
"160 204 CURVE SMOOTH",
"160 279 OFFCURVE",
"182 423 OFFCURVE",
"307 423 CURVE SMOOTH",
"366 423 OFFCURVE",
"398 389 OFFCURVE",
"398 322 CURVE SMOOTH",
"398 229 OFFCURVE",
"363 107 OFFCURVE",
"250 107 CURVE SMOOTH"
);
}
);
width = 611;
}
);
leftKerningGroup = o;
note = d;
rightKerningGroup = l;
unicode = 0064;
},
{
glyphname = eth;
lastChange = "2018-07-30 00:30:15 +0000";
layers = (
{
layerId = "F2AF9F09-4B67-43C0-B796-5CA32800A179";
paths = (
{
closed = 1;
nodes = (
"445 -12 OFFCURVE",
"516 166 OFFCURVE",
"516 339 CURVE SMOOTH",
"516 445 OFFCURVE",
"477 541 OFFCURVE",
"417 619 CURVE",
"511 625 LINE",
"522 685 LINE",
"368 675 LINE",
"353 692 OFFCURVE",
"337 707 OFFCURVE",
"319 723 CURVE",
"221 723 LINE",
"219 719 LINE",
"239 701 OFFCURVE",
"260 685 OFFCURVE",
"278 668 CURVE",
"177 660 LINE",
"167 600 LINE",
"321 612 LINE",
"342 584 OFFCURVE",
"361 557 OFFCURVE",
"376 528 CURVE",
"374 526 LINE",
"351 534 OFFCURVE",
"325 538 OFFCURVE",
"297 538 CURVE SMOOTH",
"210 538 OFFCURVE",
"148 506 OFFCURVE",
"104 456 CURVE SMOOTH",
"45 388 OFFCURVE",
"21 286 OFFCURVE",
"21 185 CURVE SMOOTH",
"21 51 OFFCURVE",
"96 -12 OFFCURVE",
"240 -12 CURVE SMOOTH"
);
},
{
closed = 1;
nodes = (
"155 61 OFFCURVE",
"113 100 OFFCURVE",
"113 193 CURVE SMOOTH",
"113 223 OFFCURVE",
"115 254 OFFCURVE",
"121 284 CURVE SMOOTH",
"139 380 OFFCURVE",
"189 465 OFFCURVE",
"294 465 CURVE SMOOTH",
"382 465 OFFCURVE",
"424 425 OFFCURVE",
"424 331 CURVE SMOOTH",
"424 299 OFFCURVE",
"421 265 OFFCURVE",
"415 233 CURVE SMOOTH",
"396 140 OFFCURVE",
"345 61 OFFCURVE",
"243 61 CURVE SMOOTH"
);
}
);
width = 556;
},
{
layerId = "A5125C76-E837-47F7-9C8F-34BD6CC95EDD";
paths = (
{
closed = 1;
nodes = (
"460 -12 OFFCURVE",
"533 160 OFFCURVE",
"533 342 CURVE SMOOTH",
"533 445 OFFCURVE",
"496 538 OFFCURVE",
"440 615 CURVE",
"536 621 LINE",
"548 685 LINE",
"389 675 LINE",
"374 692 OFFCURVE",
"358 707 OFFCURVE",
"340 723 CURVE",
"225 723 LINE",
"222 719 LINE",
"241 701 OFFCURVE",
"262 684 OFFCURVE",
"280 666 CURVE",
"178 659 LINE",
"167 595 LINE",
"326 607 LINE",
"346 579 OFFCURVE",
"364 552 OFFCURVE",
"378 523 CURVE",
"375 521 LINE",
"349 530 OFFCURVE",
"320 535 OFFCURVE",
"289 535 CURVE SMOOTH",
"210 535 OFFCURVE",
"150 506 OFFCURVE",
"106 458 CURVE SMOOTH",
"47 393 OFFCURVE",
"20 293 OFFCURVE",
"20 187 CURVE SMOOTH",
"20 51 OFFCURVE",
"97 -12 OFFCURVE",
"248 -12 CURVE SMOOTH"
);
},
{
closed = 1;
nodes = (
"166 73 OFFCURVE",
"127 110 OFFCURVE",
"127 195 CURVE SMOOTH",
"127 221 OFFCURVE",
"129 247 OFFCURVE",
"135 279 CURVE SMOOTH",
"153 375 OFFCURVE",
"201 450 OFFCURVE",
"302 450 CURVE SMOOTH",
"386 450 OFFCURVE",
"425 412 OFFCURVE",
"425 327 CURVE SMOOTH",
"425 300 OFFCURVE",
"422 271 OFFCURVE",
"416 239 CURVE SMOOTH",
"397 144 OFFCURVE",
"349 73 OFFCURVE",
"249 73 CURVE SMOOTH"
);
}
);
width = 573;
},
{
layerId = "9D48804D-E8D2-4297-83C4-532547FA9139";
paths = (
{
closed = 1;
nodes = (
"476 -12 OFFCURVE",
"551 152 OFFCURVE",
"551 345 CURVE SMOOTH",
"551 444 OFFCURVE",
"518 535 OFFCURVE",
"465 611 CURVE",
"565 617 LINE",
"578 686 LINE",
"412 674 LINE",
"399 691 OFFCURVE",
"382 707 OFFCURVE",
"365 723 CURVE",
"229 723 LINE",
"225 718 LINE",
"244 700 OFFCURVE",
"264 683 OFFCURVE",
"281 665 CURVE",
"179 657 LINE",
"168 589 LINE",
"331 601 LINE",
"351 573 OFFCURVE",
"368 546 OFFCURVE",
"380 518 CURVE",
"376 515 LINE",
"348 526 OFFCURVE",
"315 531 OFFCURVE",
"279 531 CURVE SMOOTH",
"210 531 OFFCURVE",
"151 506 OFFCURVE",
"109 461 CURVE SMOOTH",
"50 399 OFFCURVE",
"19 301 OFFCURVE",
"19 190 CURVE SMOOTH",
"19 52 OFFCURVE",
"98 -12 OFFCURVE",
"256 -12 CURVE SMOOTH"
);
},
{
closed = 1;
nodes = (
"178 86 OFFCURVE",
"144 122 OFFCURVE",
"144 197 CURVE SMOOTH",
"144 218 OFFCURVE",
"146 240 OFFCURVE",
"152 273 CURVE SMOOTH",
"169 370 OFFCURVE",
"214 433 OFFCURVE",
"311 433 CURVE SMOOTH",
"390 433 OFFCURVE",
"425 397 OFFCURVE",
"425 322 CURVE SMOOTH",
"425 301 OFFCURVE",
"423 278 OFFCURVE",
"417 245 CURVE SMOOTH",
"399 148 OFFCURVE",
"353 86 OFFCURVE",
"257 86 CURVE SMOOTH"
);
}
);
width = 592;
},
{
background = {
paths = (
{
closed = 1;
nodes = (
"424 -12 OFFCURVE",
"528 73 OFFCURVE",
"561 259 CURVE SMOOTH",
"585 394 OFFCURVE",
"567 507 OFFCURVE",
"501 606 CURVE",
"594 613 LINE",
"607 686 LINE",
"446 674 LINE",
"431 691 OFFCURVE",
"414 707 OFFCURVE",
"395 723 CURVE",
"234 723 LINE",
"229 718 LINE",
"248 700 OFFCURVE",
"267 682 OFFCURVE",
"283 663 CURVE",
"181 656 LINE",
"168 583 LINE",
"336 595 LINE",
"354 567 OFFCURVE",
"370 540 OFFCURVE",
"383 513 CURVE",
"377 509 LINE",
"352 521 OFFCURVE",
"321 528 OFFCURVE",
"290 528 CURVE SMOOTH",
"147 528 OFFCURVE",
"55 424 OFFCURVE",
"26 259 CURVE SMOOTH",
"-7 73 OFFCURVE",
"67 -12 OFFCURVE",
"245 -12 CURVE SMOOTH"
);
},
{
closed = 1;
nodes = (
"174 100 OFFCURVE",
"154 152 OFFCURVE",
"166 251 CURVE SMOOTH",
"168 267 LINE SMOOTH",
"180 365 OFFCURVE",
"230 416 OFFCURVE",
"321 416 CURVE SMOOTH",
"413 416 OFFCURVE",
"433 365 OFFCURVE",
"421 267 CURVE SMOOTH",
"419 251 LINE SMOOTH",
"407 152 OFFCURVE",
"357 100 OFFCURVE",
"265 100 CURVE SMOOTH"
);
}
);
};
layerId = "C3F11B4E-1713-4D30-9530-E487AEA06E69";
paths = (
{
closed = 1;
nodes = (
"493 -12 OFFCURVE",
"570 145 OFFCURVE",
"570 348 CURVE SMOOTH",
"570 444 OFFCURVE",
"540 532 OFFCURVE",
"491 606 CURVE",
"594 613 LINE",
"607 686 LINE",
"436 674 LINE",
"423 691 OFFCURVE",
"406 707 OFFCURVE",
"389 723 CURVE",
"233 723 LINE",
"228 718 LINE",
"247 700 OFFCURVE",
"266 682 OFFCURVE",
"283 663 CURVE",
"180 656 LINE",
"168 583 LINE",
"336 595 LINE",
"356 567 OFFCURVE",
"371 540 OFFCURVE",
"382 513 CURVE",
"377 509 LINE",
"346 521 OFFCURVE",
"309 528 OFFCURVE",
"270 528 CURVE SMOOTH",
"210 528 OFFCURVE",
"153 506 OFFCURVE",
"111 464 CURVE SMOOTH",
"52 405 OFFCURVE",
"18 309 OFFCURVE",
"18 192 CURVE SMOOTH",
"18 52 OFFCURVE",
"99 -12 OFFCURVE",
"265 -12 CURVE SMOOTH"
);
},
{
closed = 1;
nodes = (
"190 100 OFFCURVE",
"160 134 OFFCURVE",
"160 199 CURVE SMOOTH",
"160 215 OFFCURVE",
"162 232 OFFCURVE",
"168 267 CURVE SMOOTH",
"185 364 OFFCURVE",
"228 416 OFFCURVE",
"320 416 CURVE SMOOTH",
"395 416 OFFCURVE",
"426 382 OFFCURVE",
"426 317 CURVE SMOOTH",
"426 302 OFFCURVE",
"424 285 OFFCURVE",
"418 251 CURVE SMOOTH",
"400 153 OFFCURVE",
"357 100 OFFCURVE",
"264 100 CURVE SMOOTH"
);
}
);
width = 611;
}
);
leftKerningGroup = o;
note = eth;
rightKerningGroup = o;
unicode = 00F0;
},
{
glyphname = dcaron;
lastChange = "2018-07-29 23:24:57 +0000";
layers = (
{
background = {
paths = (
{
closed = 1;
nodes = (
"263 -12 OFFCURVE",
"322 16 OFFCURVE",
"364 71 CURVE",
"370 71 LINE",
"370 0 LINE",
"435 0 LINE",
"562 723 LINE",
"474 723 LINE",
"429 466 LINE",
"423 466 LINE",
"396 512 OFFCURVE",
"349 538 OFFCURVE",
"273 538 CURVE SMOOTH",
"131 538 OFFCURVE",
"21 405 OFFCURVE",
"21 196 CURVE SMOOTH",
"21 50 OFFCURVE",
"89 -12 OFFCURVE",
"199 -12 CURVE SMOOTH"
);
},
{
closed = 1;
nodes = (
"149 61 OFFCURVE",
"113 96 OFFCURVE",
"113 192 CURVE SMOOTH",
"113 343 OFFCURVE",
"171 465 OFFCURVE",
"285 465 CURVE SMOOTH",
"367 465 OFFCURVE",
"400 421 OFFCURVE",
"400 341 CURVE SMOOTH",
"400 201 OFFCURVE",
"343 61 OFFCURVE",
"224 61 CURVE SMOOTH"
);
},
{
closed = 1;
nodes = (
"633 490 LINE",
"692 602 LINE",
"706 686 LINE",
"621 686 LINE",
"606 595 LINE",
"640 595 LINE",
"589 490 LINE"
);
}
);
};
components = (
{
name = d;
},
{
name = caroncomb.alt;
transform = "{1, 0, 0, 1, 531, 0}";
}
);
layerId = "F2AF9F09-4B67-43C0-B796-5CA32800A179";
width = 556;
},
{
background = {
paths = (
{
closed = 1;
nodes = (
"264 -12 OFFCURVE",
"322 17 OFFCURVE",
"363 70 CURVE",
"370 70 LINE",
"370 0 LINE",
"450 0 LINE",
"577 723 LINE",
"474 723 LINE",
"429 466 LINE",
"423 466 LINE",
"394 512 OFFCURVE",
"347 538 OFFCURVE",
"270 538 CURVE SMOOTH",
"118 538 OFFCURVE",
"20 384 OFFCURVE",
"20 196 CURVE SMOOTH",
"20 51 OFFCURVE",
"89 -12 OFFCURVE",
"202 -12 CURVE SMOOTH"
);
},
{
closed = 1;
nodes = (
"161 75 OFFCURVE",
"127 110 OFFCURVE",
"127 196 CURVE SMOOTH",
"127 323 OFFCURVE",
"174 452 OFFCURVE",
"292 452 CURVE SMOOTH",
"367 452 OFFCURVE",
"399 411 OFFCURVE",
"399 335 CURVE SMOOTH",
"399 210 OFFCURVE",
"349 75 OFFCURVE",
"232 75 CURVE SMOOTH"
);
},
{
closed = 1;
nodes = (
"653 474 LINE",
"720 591 LINE",
"735 685 LINE",
"634 685 LINE",
"618 583 LINE",
"658 583 LINE",
"600 474 LINE"
);
}
);
};
components = (
{
name = d;
},
{
name = caroncomb.alt;
transform = "{1, 0, 0, 1, 546, 0}";
}
);
layerId = "A5125C76-E837-47F7-9C8F-34BD6CC95EDD";
width = 573;
},
{
background = {
paths = (
{
closed = 1;
nodes = (
"266 -12 OFFCURVE",
"323 18 OFFCURVE",
"363 70 CURVE",
"369 70 LINE",
"369 0 LINE",
"466 0 LINE",
"593 723 LINE",
"473 723 LINE",
"428 465 LINE",
"422 465 LINE",
"391 512 OFFCURVE",
"344 538 OFFCURVE",
"266 538 CURVE SMOOTH",
"102 538 OFFCURVE",
"19 360 OFFCURVE",
"19 196 CURVE SMOOTH",
"19 51 OFFCURVE",
"89 -12 OFFCURVE",
"205 -12 CURVE SMOOTH"
);
},
{
closed = 1;
nodes = (
"174 91 OFFCURVE",
"144 125 OFFCURVE",
"144 200 CURVE SMOOTH",
"144 301 OFFCURVE",
"178 438 OFFCURVE",
"299 438 CURVE SMOOTH",
"366 438 OFFCURVE",
"399 400 OFFCURVE",
"399 329 CURVE SMOOTH",
"399 219 OFFCURVE",
"356 91 OFFCURVE",
"241 91 CURVE SMOOTH"
);
},
{
closed = 1;
nodes = (
"678 458 LINE",
"755 582 LINE",
"771 686 LINE",
"651 686 LINE",
"633 571 LINE",
"681 571 LINE",
"615 458 LINE"
);
}
);
};
components = (
{
name = d;
},
{
name = caroncomb.alt;
transform = "{1, 0, 0, 1, 561, 0}";
}
);
layerId = "9D48804D-E8D2-4297-83C4-532547FA9139";
width = 592;
},
{
background = {
paths = (
{
closed = 1;
nodes = (
"267 -12 OFFCURVE",
"323 19 OFFCURVE",
"362 69 CURVE",
"369 69 LINE",
"369 0 LINE",
"483 0 LINE",
"610 723 LINE",
"473 723 LINE",
"428 465 LINE",
"422 465 LINE",
"389 512 OFFCURVE",
"341 538 OFFCURVE",
"263 538 CURVE SMOOTH",
"87 538 OFFCURVE",
"18 336 OFFCURVE",
"18 196 CURVE SMOOTH",
"18 52 OFFCURVE",
"89 -12 OFFCURVE",
"208 -12 CURVE SMOOTH"
);
},
{
closed = 1;
nodes = (
"187 107 OFFCURVE",
"160 141 OFFCURVE",
"160 204 CURVE SMOOTH",
"160 279 OFFCURVE",
"182 423 OFFCURVE",
"307 423 CURVE SMOOTH",
"366 423 OFFCURVE",
"398 389 OFFCURVE",
"398 322 CURVE SMOOTH",
"398 229 OFFCURVE",
"363 107 OFFCURVE",
"250 107 CURVE SMOOTH"
);
},
{
closed = 1;
nodes = (
"698 442 LINE",
"784 571 LINE",
"802 686 LINE",
"664 686 LINE",
"644 559 LINE",
"699 559 LINE",
"626 442 LINE"
);
}
);
};
components = (
{
name = d;
},
{
name = caroncomb.alt;
transform = "{1, 0, 0, 1, 579, 0}";
}
);
layerId = "C3F11B4E-1713-4D30-9530-E487AEA06E69";
width = 611;
}
);
leftKerningGroup = o;
note = dcaron;
rightKerningGroup = dcaron;
unicode = 010F;
},
{
glyphname = dcroat;
lastChange = "2018-07-29 23:24:57 +0000";
layers = (
{
anchors = (
{
name = _center;
position = "{456, 617}";
}
);
background = {
paths = (
{
closed = 1;
nodes = (
"307 656 LINE",
"295 578 LINE",
"605 578 LINE",
"617 656 LINE"
);
}
);
};
components = (
{
name = d;
}
);
layerId = "F2AF9F09-4B67-43C0-B796-5CA32800A179";
paths = (
{
closed = 1;
nodes = (
"607 596 LINE",
"617 658 LINE",
"308 658 LINE",
"298 596 LINE"
);
}
);
width = 556;
},
{
anchors = (
{
name = _center;
position = "{466, 617}";
}
);
background = {
paths = (
{
closed = 1;
nodes = (
"318 663 LINE",
"304 571 LINE",
"614 571 LINE",
"628 663 LINE"
);
}
);
};
components = (
{
name = d;
}
);
layerId = "A5125C76-E837-47F7-9C8F-34BD6CC95EDD";
paths = (
{
closed = 1;
nodes = (
"618 593 LINE",
"628 658 LINE",
"317 658 LINE",
"307 593 LINE"
);
}
);
width = 573;
},
{
anchors = (
{
name = _center;
position = "{477, 617}";
}
);
background = {
paths = (
{
closed = 1;
nodes = (
"325 668 LINE",
"309 566 LINE",
"629 566 LINE",
"645 668 LINE"
);
}
);
};
components = (
{
name = d;
}
);
layerId = "9D48804D-E8D2-4297-83C4-532547FA9139";
paths = (
{
closed = 1;
nodes = (
"633 590 LINE",
"643 658 LINE",
"313 658 LINE",
"303 590 LINE"
);
}
);
width = 592;
},
{
anchors = (
{
name = _center;
position = "{490, 617}";
}
);
background = {
paths = (
{
closed = 1;
nodes = (
"327 671 LINE",
"309 563 LINE",
"653 563 LINE",
"671 671 LINE"
);
}
);
};
components = (
{
name = d;
}
);
layerId = "C3F11B4E-1713-4D30-9530-E487AEA06E69";
paths = (
{
closed = 1;
nodes = (
"657 587 LINE",
"669 658 LINE",
"320 658 LINE",
"308 587 LINE"
);
}
);
width = 611;
}
);
leftKerningGroup = op;
note = dcroat;
rightKerningGroup = l;
unicode = 0111;
},
{
glyphname = e;
lastChange = "2018-07-29 23:24:57 +0000";
layers = (
{
anchors = (
{
name = bottom;
position = "{227, 0}";
},
{
name = ogonek;
position = "{333, 0}";
},
{
name = top;
position = "{306, 526}";
}
);
layerId = "F2AF9F09-4B67-43C0-B796-5CA32800A179";
paths = (
{
closed = 1;
nodes = (
"366 -12 OFFCURVE",
"464 51 OFFCURVE",
"485 179 CURVE",
"399 179 LINE",
"385 94 OFFCURVE",
"321 61 OFFCURVE",
"251 61 CURVE SMOOTH",
"156 61 OFFCURVE",
"111 106 OFFCURVE",
"111 201 CURVE SMOOTH",
"111 213 OFFCURVE",
"111 225 OFFCURVE",
"114 239 CURVE",
"495 239 LINE",
"503 283 LINE SMOOTH",
"508 310 OFFCURVE",
"511 334 OFFCURVE",
"511 357 CURVE SMOOTH",
"511 476 OFFCURVE",
"437 538 OFFCURVE",
"305 538 CURVE SMOOTH",
"105 538 OFFCURVE",
"21 383 OFFCURVE",
"21 196 CURVE SMOOTH",
"21 54 OFFCURVE",
"98 -12 OFFCURVE",
"253 -12 CURVE SMOOTH"
);
},
{
closed = 1;
nodes = (
"151 410 OFFCURVE",
"210 465 OFFCURVE",
"302 465 CURVE SMOOTH",
"374 465 OFFCURVE",
"422 433 OFFCURVE",
"422 351 CURVE SMOOTH",
"422 339 OFFCURVE",
"422 326 OFFCURVE",
"418 312 CURVE",
"127 312 LINE"
);
}
);
width = 556;
},
{
anchors = (
{
name = bottom;
position = "{228, 0}";
},
{
name = ogonek;
position = "{336, 0}";
},
{
name = top;
position = "{306, 526}";
}
);
layerId = "A5125C76-E837-47F7-9C8F-34BD6CC95EDD";
paths = (
{
closed = 1;
nodes = (
"370 -12 OFFCURVE",
"468 50 OFFCURVE",
"489 181 CURVE",
"388 181 LINE",
"375 103 OFFCURVE",
"319 71 OFFCURVE",
"251 71 CURVE SMOOTH",
"164 71 OFFCURVE",
"124 112 OFFCURVE",
"124 196 CURVE SMOOTH",
"124 209 OFFCURVE",
"125 222 OFFCURVE",
"128 237 CURVE",
"498 237 LINE",
"505 277 LINE",
"511 304 OFFCURVE",
"513 329 OFFCURVE",
"513 352 CURVE SMOOTH",
"513 476 OFFCURVE",
"440 538 OFFCURVE",
"304 538 CURVE SMOOTH",
"101 538 OFFCURVE",
"20 376 OFFCURVE",
"20 193 CURVE SMOOTH",
"20 53 OFFCURVE",
"97 -12 OFFCURVE",
"253 -12 CURVE SMOOTH"
);
},
{
closed = 1;
nodes = (
"165 405 OFFCURVE",
"218 455 OFFCURVE",
"304 455 CURVE SMOOTH",
"368 455 OFFCURVE",
"410 426 OFFCURVE",
"410 353 CURVE SMOOTH",
"410 341 OFFCURVE",
"409 328 OFFCURVE",
"406 315 CURVE",
"142 315 LINE"
);
}
);
width = 556;
},
{
anchors = (
{
name = bottom;
position = "{230, 0}";
},
{
name = ogonek;
position = "{340, 0}";
},
{
name = top;
position = "{303, 526}";
}
);
layerId = "9D48804D-E8D2-4297-83C4-532547FA9139";
paths = (
{
closed = 1;
nodes = (
"375 -12 OFFCURVE",
"472 50 OFFCURVE",
"493 184 CURVE",
"375 184 LINE",
"363 114 OFFCURVE",
"316 83 OFFCURVE",
"250 83 CURVE SMOOTH",
"173 83 OFFCURVE",
"140 118 OFFCURVE",
"140 191 CURVE SMOOTH",
"140 204 OFFCURVE",
"140 218 OFFCURVE",
"143 234 CURVE",
"502 234 LINE",
"508 270 LINE",
"514 298 OFFCURVE",
"516 323 OFFCURVE",
"516 347 CURVE SMOOTH",
"516 476 OFFCURVE",
"444 538 OFFCURVE",
"302 538 CURVE SMOOTH",
"97 538 OFFCURVE",
"18 368 OFFCURVE",
"18 190 CURVE SMOOTH",
"18 52 OFFCURVE",
"97 -12 OFFCURVE",
"254 -12 CURVE SMOOTH"
);
},
{
closed = 1;
nodes = (
"182 400 OFFCURVE",
"228 443 OFFCURVE",
"305 443 CURVE SMOOTH",
"360 443 OFFCURVE",
"396 417 OFFCURVE",
"396 354 CURVE SMOOTH",
"396 344 OFFCURVE",
"395 331 OFFCURVE",
"393 319 CURVE",
"160 319 LINE"
);
}
);
width = 556;
},
{
anchors = (
{
name = bottom;
position = "{225, 0}";
},
{
name = ogonek;
position = "{342, 0}";
},
{
name = top;
position = "{304, 526}";
}
);
background = {
components = (
{
name = c;
}
);
};
layerId = "C3F11B4E-1713-4D30-9530-E487AEA06E69";
paths = (
{
closed = 1;
nodes = (
"380 -12 OFFCURVE",
"476 49 OFFCURVE",
"497 186 CURVE",
"362 186 LINE",
"351 125 OFFCURVE",
"313 94 OFFCURVE",
"250 94 CURVE SMOOTH",
"182 94 OFFCURVE",
"155 125 OFFCURVE",
"155 185 CURVE SMOOTH",
"155 199 OFFCURVE",
"156 214 OFFCURVE",
"159 231 CURVE",
"505 231 LINE",
"511 263 LINE SMOOTH",
"517 291 OFFCURVE",
"519 317 OFFCURVE",
"519 341 CURVE SMOOTH",
"519 476 OFFCURVE",
"447 538 OFFCURVE",
"301 538 CURVE SMOOTH",
"92 538 OFFCURVE",
"17 360 OFFCURVE",
"17 187 CURVE SMOOTH",
"17 51 OFFCURVE",
"96 -12 OFFCURVE",
"254 -12 CURVE SMOOTH"
);
},
{
closed = 1;
nodes = (
"198 394 OFFCURVE",
"237 431 OFFCURVE",
"307 431 CURVE SMOOTH",
"353 431 OFFCURVE",
"382 409 OFFCURVE",
"382 356 CURVE SMOOTH",
"382 346 OFFCURVE",
"381 334 OFFCURVE",
"379 322 CURVE",
"177 322 LINE"
);
}
);
width = 556;
}
);
leftKerningGroup = o;
note = e;
rightKerningGroup = e;
unicode = 0065;
},
{
glyphname = f;
lastChange = "2018-07-29 23:24:57 +0000";
layers = (
{
layerId = "F2AF9F09-4B67-43C0-B796-5CA32800A179";
paths = (
{
closed = 1;
nodes = (
"70 -182 OFFCURVE",
"96 -121 OFFCURVE",
"106 -61 CURVE SMOOTH",
"197 453 LINE",
"298 453 LINE",
"311 526 LINE",
"210 526 LINE",
"225 610 LINE SMOOTH",
"230 641 OFFCURVE",
"249 658 OFFCURVE",
"282 658 CURVE SMOOTH",
"334 658 LINE",
"345 719 LINE",
"328 726 OFFCURVE",
"299 731 OFFCURVE",
"272 731 CURVE SMOOTH",
"174 731 OFFCURVE",
"147 670 OFFCURVE",
"137 610 CURVE SMOOTH",
"122 526 LINE",
"45 526 LINE",
"32 453 LINE",
"109 453 LINE",
"18 -61 LINE SMOOTH",
"13 -92 OFFCURVE",
"-6 -109 OFFCURVE",
"-38 -109 CURVE SMOOTH",
"-90 -109 LINE",
"-101 -170 LINE",
"-84 -177 OFFCURVE",
"-55 -182 OFFCURVE",
"-28 -182 CURVE SMOOTH"
);
}
);
width = 278;
},
{
layerId = "A5125C76-E837-47F7-9C8F-34BD6CC95EDD";
paths = (
{
closed = 1;
nodes = (
"79 -182 OFFCURVE",
"110 -117 OFFCURVE",
"121 -54 CURVE SMOOTH",
"208 441 LINE",
"307 441 LINE",
"322 526 LINE",
"223 526 LINE",
"237 600 LINE SMOOTH",
"242 630 OFFCURVE",
"260 646 OFFCURVE",
"291 646 CURVE SMOOTH",
"343 646 LINE",
"356 718 LINE",
"337 725 OFFCURVE",
"305 731 OFFCURVE",
"276 731 CURVE SMOOTH",
"176 731 OFFCURVE",
"145 666 OFFCURVE",
"134 603 CURVE SMOOTH",
"120 526 LINE",
"44 526 LINE",
"29 441 LINE",
"105 441 LINE",
"18 -51 LINE SMOOTH",
"13 -81 OFFCURVE",
"-5 -97 OFFCURVE",
"-36 -97 CURVE SMOOTH",
"-87 -97 LINE",
"-100 -169 LINE",
"-82 -176 OFFCURVE",
"-49 -182 OFFCURVE",
"-20 -182 CURVE SMOOTH"
);
}
);
width = 295;
},
{
layerId = "9D48804D-E8D2-4297-83C4-532547FA9139";
paths = (
{
closed = 1;
nodes = (
"90 -182 OFFCURVE",
"127 -113 OFFCURVE",
"138 -45 CURVE SMOOTH",
"221 428 LINE",
"317 428 LINE",
"335 526 LINE",
"239 526 LINE",
"250 588 LINE SMOOTH",
"255 617 OFFCURVE",
"273 633 OFFCURVE",
"302 633 CURVE SMOOTH",
"353 633 LINE",
"368 716 LINE",
"348 724 OFFCURVE",
"311 731 OFFCURVE",
"280 731 CURVE SMOOTH",
"179 731 OFFCURVE",
"142 662 OFFCURVE",
"130 594 CURVE SMOOTH",
"119 526 LINE",
"43 526 LINE",
"25 428 LINE",
"101 428 LINE",
"19 -39 LINE SMOOTH",
"14 -68 OFFCURVE",
"-4 -84 OFFCURVE",
"-33 -84 CURVE SMOOTH",
"-84 -84 LINE",
"-99 -167 LINE",
"-79 -175 OFFCURVE",
"-42 -182 OFFCURVE",
"-12 -182 CURVE SMOOTH"
);
}
);
width = 314;
},
{
layerId = "C3F11B4E-1713-4D30-9530-E487AEA06E69";
paths = (
{
closed = 1;
nodes = (
"100 -182 OFFCURVE",
"143 -109 OFFCURVE",
"155 -37 CURVE SMOOTH",
"234 414 LINE",
"327 414 LINE",
"347 526 LINE",
"254 526 LINE",
"263 576 LINE SMOOTH",
"268 604 OFFCURVE",
"285 619 OFFCURVE",
"313 619 CURVE SMOOTH",
"363 619 LINE",
"380 715 LINE",
"359 723 OFFCURVE",
"317 731 OFFCURVE",
"285 731 CURVE SMOOTH",
"182 731 OFFCURVE",
"139 658 OFFCURVE",
"127 586 CURVE SMOOTH",
"117 526 LINE",
"42 526 LINE",
"22 414 LINE",
"97 414 LINE",
"19 -27 LINE SMOOTH",
"14 -55 OFFCURVE",
"-3 -70 OFFCURVE",
"-31 -70 CURVE SMOOTH",
"-81 -70 LINE",
"-98 -166 LINE",
"-77 -174 OFFCURVE",
"-35 -182 OFFCURVE",
"-3 -182 CURVE SMOOTH"
);
}
);
width = 333;
}
);
leftKerningGroup = f;
note = f;
rightKerningGroup = f;
unicode = 0066;
},
{
glyphname = g;
lastChange = "2018-08-11 19:20:49 +0000";
layers = (
{
anchors = (
{
name = top;
position = "{299, 526}";
}
);
layerId = "F2AF9F09-4B67-43C0-B796-5CA32800A179";
paths = (
{
closed = 1;
nodes = (
"333 -182 OFFCURVE",
"415 -101 OFFCURVE",
"444 63 CURVE SMOOTH",
"526 526 LINE",
"460 526 LINE",
"437 455 LINE",
"431 455 LINE",
"403 510 OFFCURVE",
"345 538 OFFCURVE",
"272 538 CURVE SMOOTH",
"123 538 OFFCURVE",
"21 398 OFFCURVE",
"21 189 CURVE SMOOTH",
"21 64 OFFCURVE",
"87 8 OFFCURVE",
"191 8 CURVE SMOOTH",
"261 8 OFFCURVE",
"313 35 OFFCURVE",
"354 80 CURVE",
"360 80 LINE",
"356 59 LINE SMOOTH",
"334 -55 OFFCURVE",
"276 -110 OFFCURVE",
"188 -110 CURVE SMOOTH",
"124 -110 OFFCURVE",
"84 -86 OFFCURVE",
"82 -25 CURVE",
"-4 -25 LINE",
"-4 -35 LINE SMOOTH",
"-4 -133 OFFCURVE",
"73 -182 OFFCURVE",
"190 -182 CURVE SMOOTH"
);
},
{
closed = 1;
nodes = (
"147 81 OFFCURVE",
"112 111 OFFCURVE",
"112 192 CURVE SMOOTH",
"112 342 OFFCURVE",
"170 465 OFFCURVE",
"291 465 CURVE SMOOTH",
"367 465 OFFCURVE",
"399 422 OFFCURVE",
"399 342 CURVE SMOOTH",
"399 212 OFFCURVE",
"340 81 OFFCURVE",
"224 81 CURVE SMOOTH"
);
}
);
width = 556;
},
{
anchors = (
{
name = top;
position = "{299, 526}";
}
);
layerId = "A5125C76-E837-47F7-9C8F-34BD6CC95EDD";
paths = (
{
closed = 1;
nodes = (
"348 -182 OFFCURVE",
"430 -101 OFFCURVE",
"459 63 CURVE SMOOTH",
"541 526 LINE",
"459 526 LINE",
"437 456 LINE",
"431 456 LINE",
"403 510 OFFCURVE",
"346 538 OFFCURVE",
"273 538 CURVE SMOOTH",
"115 538 OFFCURVE",
"21 386 OFFCURVE",
"21 197 CURVE SMOOTH",
"21 68 OFFCURVE",
"93 11 OFFCURVE",
"195 11 CURVE SMOOTH",
"265 11 OFFCURVE",
"315 38 OFFCURVE",
"355 83 CURVE",
"361 83 LINE",
"356 59 LINE SMOOTH",
"336 -47 OFFCURVE",
"282 -98 OFFCURVE",
"198 -98 CURVE SMOOTH",
"137 -98 OFFCURVE",
"100 -77 OFFCURVE",
"97 -25 CURVE",
"-3 -25 LINE",
"-3 -35 LINE SMOOTH",
"-2 -133 OFFCURVE",
"78 -182 OFFCURVE",
"198 -182 CURVE SMOOTH"
);
},
{
closed = 1;
nodes = (
"160 98 OFFCURVE",
"128 128 OFFCURVE",
"128 202 CURVE SMOOTH",
"128 329 OFFCURVE",
"176 451 OFFCURVE",
"297 451 CURVE SMOOTH",
"368 451 OFFCURVE",
"400 412 OFFCURVE",
"400 338 CURVE SMOOTH",
"400 224 OFFCURVE",
"348 98 OFFCURVE",
"233 98 CURVE SMOOTH"
);
}
);
width = 573;
},
{
anchors = (
{
name = top;
position = "{302, 526}";
}
);
layerId = "9D48804D-E8D2-4297-83C4-532547FA9139";
paths = (
{
closed = 1;
nodes = (
"365 -182 OFFCURVE",
"447 -101 OFFCURVE",
"476 63 CURVE SMOOTH",
"558 526 LINE",
"459 526 LINE",
"437 456 LINE",
"430 456 LINE",
"403 511 OFFCURVE",
"346 538 OFFCURVE",
"274 538 CURVE SMOOTH",
"106 538 OFFCURVE",
"22 373 OFFCURVE",
"22 207 CURVE SMOOTH",
"22 73 OFFCURVE",
"99 15 OFFCURVE",
"199 15 CURVE SMOOTH",
"269 15 OFFCURVE",
"318 42 OFFCURVE",
"355 87 CURVE",
"361 87 LINE",
"356 59 LINE SMOOTH",
"338 -37 OFFCURVE",
"288 -84 OFFCURVE",
"210 -84 CURVE SMOOTH",
"152 -84 OFFCURVE",
"119 -68 OFFCURVE",
"115 -25 CURVE",
"-2 -25 LINE",
"-2 -35 LINE SMOOTH",
"-1 -133 OFFCURVE",
"83 -182 OFFCURVE",
"207 -182 CURVE SMOOTH"
);
},
{
closed = 1;
nodes = (
"175 118 OFFCURVE",
"146 148 OFFCURVE",
"146 213 CURVE SMOOTH",
"146 313 OFFCURVE",
"183 435 OFFCURVE",
"303 435 CURVE SMOOTH",
"368 435 OFFCURVE",
"400 400 OFFCURVE",
"400 334 CURVE SMOOTH",
"400 238 OFFCURVE",
"357 118 OFFCURVE",
"243 118 CURVE SMOOTH"
);
}
);
width = 592;
},
{
anchors = (
{
name = top;
position = "{305, 526}";
}
);
layerId = "C3F11B4E-1713-4D30-9530-E487AEA06E69";
paths = (
{
closed = 1;
nodes = (
"382 -182 OFFCURVE",
"464 -101 OFFCURVE",
"493 63 CURVE SMOOTH",
"575 526 LINE",
"458 526 LINE",
"437 457 LINE",
"430 457 LINE",
"403 511 OFFCURVE",
"347 538 OFFCURVE",
"275 538 CURVE SMOOTH",
"97 538 OFFCURVE",
"22 359 OFFCURVE",
"22 216 CURVE SMOOTH",
"22 78 OFFCURVE",
"105 18 OFFCURVE",
"204 18 CURVE SMOOTH",
"274 18 OFFCURVE",
"320 45 OFFCURVE",
"356 91 CURVE",
"362 91 LINE",
"356 59 LINE SMOOTH",
"340 -28 OFFCURVE",
"295 -70 OFFCURVE",
"221 -70 CURVE SMOOTH",
"167 -70 OFFCURVE",
"137 -58 OFFCURVE",
"132 -25 CURVE",
"-1 -25 LINE",
"-1 -35 LINE SMOOTH",
"1 -133 OFFCURVE",
"89 -182 OFFCURVE",
"216 -182 CURVE SMOOTH"
);
},
{
closed = 1;
nodes = (
"190 137 OFFCURVE",
"164 167 OFFCURVE",
"164 224 CURVE SMOOTH",
"164 298 OFFCURVE",
"190 419 OFFCURVE",
"310 419 CURVE SMOOTH",
"369 419 OFFCURVE",
"401 389 OFFCURVE",
"401 329 CURVE SMOOTH",
"401 252 OFFCURVE",
"366 137 OFFCURVE",
"253 137 CURVE SMOOTH"
);
}
);
width = 611;
}
);
leftKerningGroup = o;
note = g;
rightKerningGroup = g;
unicode = 0067;
},
{
glyphname = h;
lastChange = "2018-07-29 23:24:57 +0000";
layers = (
{
anchors = (
{
name = bottom;
position = "{224, 0}";
},
{
name = center;
position = "{210, 627}";
},
{
name = top;
position = "{179, 699}";
}
);
layerId = "F2AF9F09-4B67-43C0-B796-5CA32800A179";
paths = (
{
closed = 1;
nodes = (
"101 0 LINE",
"154 301 LINE SMOOTH",
"172 404 OFFCURVE",
"257 465 OFFCURVE",
"337 465 CURVE SMOOTH",
"382 465 OFFCURVE",
"415 450 OFFCURVE",
"415 396 CURVE SMOOTH",
"415 382 OFFCURVE",
"413 363 OFFCURVE",
"410 343 CURVE SMOOTH",
"350 0 LINE",
"438 0 LINE",
"499 349 LINE SMOOTH",
"503 372 OFFCURVE",
"506 396 OFFCURVE",
"506 414 CURVE SMOOTH",
"506 504 OFFCURVE",
"446 538 OFFCURVE",
"349 538 CURVE SMOOTH",
"290 538 OFFCURVE",
"228 509 OFFCURVE",
"187 467 CURVE",
"183 467 LINE",
"228 723 LINE",
"140 723 LINE",
"13 0 LINE"
);
}
);
width = 556;
},
{
anchors = (
{
name = bottom;
position = "{235, 0}";
},
{
name = center;
position = "{221, 627}";
},
{
name = top;
position = "{189, 698}";
}
);
layerId = "A5125C76-E837-47F7-9C8F-34BD6CC95EDD";
paths = (
{
closed = 1;
nodes = (
"117 0 LINE",
"169 293 LINE SMOOTH",
"187 393 OFFCURVE",
"263 450 OFFCURVE",
"339 450 CURVE SMOOTH",
"384 450 OFFCURVE",
"414 434 OFFCURVE",
"414 383 CURVE SMOOTH",
"414 368 OFFCURVE",
"412 350 OFFCURVE",
"409 331 CURVE SMOOTH",
"351 0 LINE",
"454 0 LINE",
"513 338 LINE SMOOTH",
"518 364 OFFCURVE",
"521 389 OFFCURVE",
"521 409 CURVE SMOOTH",
"521 503 OFFCURVE",
"458 538 OFFCURVE",
"366 538 CURVE SMOOTH",
"305 538 OFFCURVE",
"244 508 OFFCURVE",
"204 466 CURVE",
"199 466 LINE",
"244 723 LINE",
"141 723 LINE",
"14 0 LINE"
);
}
);
width = 573;
},
{
anchors = (
{
name = bottom;
position = "{239, 0}";
},
{
name = center;
position = "{225, 627}";
},
{
name = top;
position = "{193, 698}";
}
);
layerId = "9D48804D-E8D2-4297-83C4-532547FA9139";
paths = (
{
closed = 1;
nodes = (
"136 0 LINE",
"186 283 LINE SMOOTH",
"203 380 OFFCURVE",
"269 434 OFFCURVE",
"342 434 CURVE SMOOTH",
"385 434 OFFCURVE",
"413 417 OFFCURVE",
"413 367 CURVE SMOOTH",
"413 353 OFFCURVE",
"410 336 OFFCURVE",
"407 318 CURVE SMOOTH",
"351 0 LINE",
"471 0 LINE",
"529 325 LINE SMOOTH",
"534 354 OFFCURVE",
"538 380 OFFCURVE",
"538 404 CURVE SMOOTH",
"538 501 OFFCURVE",
"471 538 OFFCURVE",
"386 538 CURVE SMOOTH",
"322 538 OFFCURVE",
"262 506 OFFCURVE",
"224 466 CURVE",
"218 466 LINE",
"263 723 LINE",
"143 723 LINE",
"16 0 LINE"
);
}
);
width = 592;
},
{
anchors = (
{
name = bottom;
position = "{245, 0}";
},
{
name = center;
position = "{231, 627}";
},
{
name = top;
position = "{210, 698}";
}
);
layerId = "C3F11B4E-1713-4D30-9530-E487AEA06E69";
paths = (
{
closed = 1;
nodes = (
"154 0 LINE",
"203 274 LINE SMOOTH",
"220 368 OFFCURVE",
"276 417 OFFCURVE",
"345 417 CURVE SMOOTH",
"387 417 OFFCURVE",
"412 399 OFFCURVE",
"412 352 CURVE SMOOTH",
"412 337 OFFCURVE",
"409 322 OFFCURVE",
"406 304 CURVE SMOOTH",
"352 0 LINE",
"489 0 LINE",
"545 313 LINE SMOOTH",
"551 345 OFFCURVE",
"555 372 OFFCURVE",
"555 398 CURVE SMOOTH",
"555 500 OFFCURVE",
"485 538 OFFCURVE",
"405 538 CURVE SMOOTH",
"339 538 OFFCURVE",
"280 505 OFFCURVE",
"243 465 CURVE",
"236 465 LINE",
"281 723 LINE",
"144 723 LINE",
"17 0 LINE"
);
}
);
width = 611;
}
);
leftKerningGroup = l;
note = h;
rightKerningGroup = n;
rightMetricsKey = n;
unicode = 0068;
},
{
glyphname = hbar;
lastChange = "2018-07-30 00:30:15 +0000";
layers = (
{
components = (
{
name = h;
}
);
layerId = "F2AF9F09-4B67-43C0-B796-5CA32800A179";
paths = (
{
closed = 1;
nodes = (
"369 596 LINE",
"379 658 LINE",
"70 658 LINE",
"60 596 LINE"
);
}
);
width = 556;
},
{
components = (
{
name = h;
}
);
layerId = "A5125C76-E837-47F7-9C8F-34BD6CC95EDD";
paths = (
{
closed = 1;
nodes = (
"369 593 LINE",
"381 658 LINE",
"70 658 LINE",
"58 593 LINE"
);
}
);
width = 573;
},
{
components = (
{
name = h;
}
);
layerId = "9D48804D-E8D2-4297-83C4-532547FA9139";
paths = (
{
closed = 1;
nodes = (
"388 590 LINE",
"400 658 LINE",
"70 658 LINE",
"58 590 LINE"
);
}
);
width = 592;
},
{
components = (
{
name = h;
}
);
layerId = "C3F11B4E-1713-4D30-9530-E487AEA06E69";
paths = (
{
closed = 1;
nodes = (
"407 587 LINE",
"419 658 LINE",
"70 658 LINE",
"58 587 LINE"
);
}
);
width = 611;
}
);
leftKerningGroup = hbar;
rightKerningGroup = hbar;
unicode = 0127;
},
{
glyphname = i;
lastChange = "2018-07-29 23:24:57 +0000";
layers = (
{
background = {
paths = (
{
closed = 1;
nodes = (
"101 0 LINE",
"194 526 LINE",
"106 526 LINE",
"13 0 LINE"
);
},
{
closed = 1;
nodes = (
"211 625 LINE",
"228 723 LINE",
"140 723 LINE",
"123 625 LINE"
);
}
);
};
components = (
{
name = idotless;
}
);
layerId = "F2AF9F09-4B67-43C0-B796-5CA32800A179";
paths = (
{
closed = 1;
nodes = (
"210 628 LINE",
"227 723 LINE",
"140 723 LINE",
"123 628 LINE"
);
}
);
width = 222;
},
{
background = {
paths = (
{
closed = 1;
nodes = (
"116 0 LINE",
"209 526 LINE",
"106 526 LINE",
"13 0 LINE"
);
},
{
closed = 1;
nodes = (
"224 617 LINE",
"243 723 LINE",
"140 723 LINE",
"121 617 LINE"
);
}
);
};
components = (
{
name = idotless;
}
);
layerId = "A5125C76-E837-47F7-9C8F-34BD6CC95EDD";
paths = (
{
closed = 1;
nodes = (
"224 618 LINE",
"242 723 LINE",
"139 723 LINE",
"121 618 LINE"
);
}
);
width = 239;
},
{
background = {
paths = (
{
closed = 1;
nodes = (
"133 0 LINE",
"226 526 LINE",
"106 526 LINE",
"13 0 LINE"
);
},
{
closed = 1;
nodes = (
"240 608 LINE",
"260 723 LINE",
"140 723 LINE",
"120 608 LINE"
);
}
);
};
components = (
{
name = idotless;
}
);
layerId = "9D48804D-E8D2-4297-83C4-532547FA9139";
paths = (
{
closed = 1;
nodes = (
"237 606 LINE",
"258 723 LINE",
"140 723 LINE",
"119 606 LINE"
);
}
);
width = 259;
},
{
background = {
paths = (
{
closed = 1;
nodes = (
"150 0 LINE",
"243 526 LINE",
"106 526 LINE",
"13 0 LINE"
);
},
{
closed = 1;
nodes = (
"255 599 LINE",
"277 723 LINE",
"140 723 LINE",
"118 599 LINE"
);
}
);
};
components = (
{
name = idotless;
}
);
layerId = "C3F11B4E-1713-4D30-9530-E487AEA06E69";
paths = (
{
closed = 1;
nodes = (
"251 594 LINE",
"274 723 LINE",
"137 723 LINE",
"114 594 LINE"
);
}
);
width = 278;
}
);
leftKerningGroup = i;
note = i;
rightKerningGroup = i;
unicode = 0069;
},
{
glyphname = idotless;
lastChange = "2018-07-29 23:24:57 +0000";
layers = (
{
anchors = (
{
name = bottom;
position = "{58, 0}";
},
{
name = ogonek;
position = "{92, 0}";
},
{
name = top;
position = "{149, 526}";
}
);
layerId = "F2AF9F09-4B67-43C0-B796-5CA32800A179";
paths = (
{
closed = 1;
nodes = (
"101 0 LINE",
"194 526 LINE",
"106 526 LINE",
"13 0 LINE"
);
}
);
width = 222;
},
{
anchors = (
{
name = bottom;
position = "{66, 0}";
},
{
name = ogonek;
position = "{103, 0}";
},
{
name = top;
position = "{156, 526}";
}
);
layerId = "A5125C76-E837-47F7-9C8F-34BD6CC95EDD";
paths = (
{
closed = 1;
nodes = (
"116 0 LINE",
"209 526 LINE",
"106 526 LINE",
"13 0 LINE"
);
}
);
width = 239;
},
{
anchors = (
{
name = bottom;
position = "{75, 0}";
},
{
name = ogonek;
position = "{115, 0}";
},
{
name = top;
position = "{162, 526}";
}
);
layerId = "9D48804D-E8D2-4297-83C4-532547FA9139";
paths = (
{
closed = 1;
nodes = (
"133 0 LINE",
"226 526 LINE",
"106 526 LINE",
"13 0 LINE"
);
}
);
width = 259;
},
{
anchors = (
{
name = bottom;
position = "{82, 0}";
},
{
name = ogonek;
position = "{127, 0}";
},
{
name = top;
position = "{174, 526}";
}
);
layerId = "C3F11B4E-1713-4D30-9530-E487AEA06E69";
paths = (
{
closed = 1;
nodes = (
"150 0 LINE",
"243 526 LINE",
"106 526 LINE",
"13 0 LINE"
);
}
);
width = 278;
}
);
leftKerningGroup = i;
note = dotlessi;
rightKerningGroup = i;
unicode = 0131;
},
{
glyphname = j;
lastChange = "2018-07-29 23:24:57 +0000";
layers = (
{
layerId = "F2AF9F09-4B67-43C0-B796-5CA32800A179";
paths = (
{
closed = 1;
nodes = (
"55 -182 OFFCURVE",
"79 -121 OFFCURVE",
"90 -61 CURVE SMOOTH",
"194 526 LINE",
"106 526 LINE",
"1 -65 LINE SMOOTH",
"-4 -96 OFFCURVE",
"-22 -113 OFFCURVE",
"-53 -113 CURVE SMOOTH",
"-97 -113 LINE",
"-107 -170 LINE",
"-91 -176 OFFCURVE",
"-64 -182 OFFCURVE",
"-40 -182 CURVE SMOOTH"
);
},
{
closed = 1;
nodes = (
"211 625 LINE",
"228 723 LINE",
"140 723 LINE",
"123 625 LINE"
);
}
);
width = 222;
},
{
layerId = "A5125C76-E837-47F7-9C8F-34BD6CC95EDD";
paths = (
{
closed = 1;
nodes = (
"66 -182 OFFCURVE",
"95 -118 OFFCURVE",
"106 -55 CURVE SMOOTH",
"209 526 LINE",
"106 526 LINE",
"3 -53 LINE SMOOTH",
"-2 -83 OFFCURVE",
"-20 -100 OFFCURVE",
"-50 -100 CURVE SMOOTH",
"-96 -100 LINE",
"-108 -169 LINE",
"-90 -175 OFFCURVE",
"-58 -182 OFFCURVE",
"-31 -182 CURVE SMOOTH"
);
},
{
closed = 1;
nodes = (
"224 617 LINE",
"243 723 LINE",
"140 723 LINE",
"121 617 LINE"
);
}
);
width = 239;
},
{
layerId = "9D48804D-E8D2-4297-83C4-532547FA9139";
paths = (
{
closed = 1;
nodes = (
"78 -182 OFFCURVE",
"113 -114 OFFCURVE",
"125 -48 CURVE SMOOTH",
"226 526 LINE",
"106 526 LINE",
"6 -40 LINE SMOOTH",
"1 -69 OFFCURVE",
"-17 -85 OFFCURVE",
"-46 -85 CURVE SMOOTH",
"-95 -85 LINE",
"-109 -167 LINE",
"-89 -175 OFFCURVE",
"-50 -182 OFFCURVE",
"-20 -182 CURVE SMOOTH"
);
},
{
closed = 1;
nodes = (
"240 608 LINE",
"260 723 LINE",
"140 723 LINE",
"120 608 LINE"
);
}
);
width = 259;
},
{
layerId = "C3F11B4E-1713-4D30-9530-E487AEA06E69";
paths = (
{
closed = 1;
nodes = (
"90 -182 OFFCURVE",
"131 -111 OFFCURVE",
"143 -41 CURVE SMOOTH",
"243 526 LINE",
"106 526 LINE",
"8 -27 LINE SMOOTH",
"3 -55 OFFCURVE",
"-14 -70 OFFCURVE",
"-42 -70 CURVE SMOOTH",
"-94 -70 LINE",
"-110 -166 LINE",
"-88 -174 OFFCURVE",
"-43 -182 OFFCURVE",
"-9 -182 CURVE SMOOTH"
);
},
{
closed = 1;
nodes = (
"255 599 LINE",
"277 723 LINE",
"140 723 LINE",
"118 599 LINE"
);
}
);
width = 278;
}
);
leftKerningGroup = j;
note = j;
rightKerningGroup = i;
unicode = 006A;
},
{
glyphname = jdotless;
lastChange = "2018-07-29 23:24:57 +0000";
layers = (
{
anchors = (
{
name = top;
position = "{149, 526}";
}
);
layerId = "F2AF9F09-4B67-43C0-B796-5CA32800A179";
paths = (
{
closed = 1;
nodes = (
"55 -182 OFFCURVE",
"79 -121 OFFCURVE",
"90 -61 CURVE SMOOTH",
"194 526 LINE",
"106 526 LINE",
"1 -65 LINE SMOOTH",
"-4 -96 OFFCURVE",
"-22 -113 OFFCURVE",
"-53 -113 CURVE SMOOTH",
"-97 -113 LINE",
"-107 -170 LINE",
"-91 -176 OFFCURVE",
"-64 -182 OFFCURVE",
"-40 -182 CURVE SMOOTH"
);
}
);
width = 222;
},
{
anchors = (
{
name = top;
position = "{154, 526}";
}
);
layerId = "A5125C76-E837-47F7-9C8F-34BD6CC95EDD";
paths = (
{
closed = 1;
nodes = (
"66 -182 OFFCURVE",
"95 -118 OFFCURVE",
"106 -55 CURVE SMOOTH",
"209 526 LINE",
"106 526 LINE",
"3 -53 LINE SMOOTH",
"-2 -83 OFFCURVE",
"-20 -100 OFFCURVE",
"-50 -100 CURVE SMOOTH",
"-96 -100 LINE",
"-108 -169 LINE",
"-90 -175 OFFCURVE",
"-58 -182 OFFCURVE",
"-31 -182 CURVE SMOOTH"
);
}
);
width = 239;
},
{
anchors = (
{
name = top;
position = "{162, 526}";
}
);
layerId = "9D48804D-E8D2-4297-83C4-532547FA9139";
paths = (
{
closed = 1;
nodes = (
"78 -182 OFFCURVE",
"113 -114 OFFCURVE",
"125 -48 CURVE SMOOTH",
"226 526 LINE",
"106 526 LINE",
"6 -40 LINE SMOOTH",
"1 -69 OFFCURVE",
"-17 -85 OFFCURVE",
"-46 -85 CURVE SMOOTH",
"-95 -85 LINE",
"-109 -167 LINE",
"-89 -175 OFFCURVE",
"-50 -182 OFFCURVE",
"-20 -182 CURVE SMOOTH"
);
}
);
width = 259;
},
{
anchors = (
{
name = top;
position = "{170, 526}";
}
);
layerId = "C3F11B4E-1713-4D30-9530-E487AEA06E69";
paths = (
{
closed = 1;
nodes = (
"90 -182 OFFCURVE",
"131 -111 OFFCURVE",
"143 -41 CURVE SMOOTH",
"243 526 LINE",
"106 526 LINE",
"8 -27 LINE SMOOTH",
"3 -55 OFFCURVE",
"-14 -70 OFFCURVE",
"-42 -70 CURVE SMOOTH",
"-94 -70 LINE",
"-110 -166 LINE",
"-88 -174 OFFCURVE",
"-43 -182 OFFCURVE",
"-9 -182 CURVE SMOOTH"
);
}
);
width = 278;
}
);
leftKerningGroup = j;
note = uni0237;
rightKerningGroup = i;
unicode = 0237;
},
{
glyphname = jacute;
lastChange = "2018-08-03 01:09:54 +0000";
layers = (
{
background = {
paths = (
{
closed = 1;
nodes = (
"277 -182 OFFCURVE",
"301 -121 OFFCURVE",
"312 -61 CURVE SMOOTH",
"416 526 LINE",
"328 526 LINE",
"223 -65 LINE SMOOTH",
"218 -96 OFFCURVE",
"200 -113 OFFCURVE",
"169 -113 CURVE SMOOTH",
"125 -113 LINE",
"115 -170 LINE",
"131 -176 OFFCURVE",
"158 -182 OFFCURVE",
"182 -182 CURVE SMOOTH"
);
},
{
closed = 1;
nodes = (
"101 0 LINE",
"194 526 LINE",
"106 526 LINE",
"13 0 LINE"
);
},
{
closed = 1;
nodes = (
"204 591 LINE",
"328 720 LINE",
"327 723 LINE",
"226 723 LINE",
"118 591 LINE"
);
},
{
closed = 1;
nodes = (
"423 591 LINE",
"547 720 LINE",
"546 723 LINE",
"445 723 LINE",
"337 591 LINE"
);
}
);
};
components = (
{
name = idotless;
},
{
name = acutecomb;
transform = "{1, 0, 0, 1, 57, 0}";
},
{
name = jdotless;
transform = "{1, 0, 0, 1, 222, 0}";
},
{
name = acutecomb;
transform = "{1, 0, 0, 1, 279, 0}";
}
);
layerId = "F2AF9F09-4B67-43C0-B796-5CA32800A179";
width = 444;
},
{
background = {
paths = (
{
closed = 1;
nodes = (
"305 -182 OFFCURVE",
"334 -118 OFFCURVE",
"345 -55 CURVE SMOOTH",
"448 526 LINE",
"345 526 LINE",
"242 -53 LINE SMOOTH",
"237 -83 OFFCURVE",
"219 -100 OFFCURVE",
"189 -100 CURVE SMOOTH",
"143 -100 LINE",
"131 -169 LINE",
"149 -175 OFFCURVE",
"181 -182 OFFCURVE",
"208 -182 CURVE SMOOTH"
);
},
{
closed = 1;
nodes = (
"116 0 LINE",
"209 526 LINE",
"106 526 LINE",
"13 0 LINE"
);
},
{
closed = 1;
nodes = (
"209 591 LINE",
"335 720 LINE",
"334 723 LINE",
"222 723 LINE",
"115 591 LINE"
);
},
{
closed = 1;
nodes = (
"443 591 LINE",
"569 720 LINE",
"568 723 LINE",
"456 723 LINE",
"349 591 LINE"
);
}
);
};
components = (
{
name = idotless;
},
{
name = acutecomb;
transform = "{1, 0, 0, 1, 54, 0}";
},
{
name = jdotless;
transform = "{1, 0, 0, 1, 239, 0}";
},
{
name = acutecomb;
transform = "{1, 0, 0, 1, 291, 0}";
}
);
layerId = "A5125C76-E837-47F7-9C8F-34BD6CC95EDD";
width = 478;
},
{
background = {
paths = (
{
closed = 1;
nodes = (
"337 -182 OFFCURVE",
"372 -114 OFFCURVE",
"384 -48 CURVE SMOOTH",
"485 526 LINE",
"365 526 LINE",
"265 -40 LINE SMOOTH",
"260 -69 OFFCURVE",
"242 -85 OFFCURVE",
"213 -85 CURVE SMOOTH",
"164 -85 LINE",
"150 -167 LINE",
"170 -175 OFFCURVE",
"209 -182 OFFCURVE",
"239 -182 CURVE SMOOTH"
);
},
{
closed = 1;
nodes = (
"133 0 LINE",
"226 526 LINE",
"106 526 LINE",
"13 0 LINE"
);
},
{
closed = 1;
nodes = (
"219 591 LINE",
"348 720 LINE",
"347 723 LINE",
"222 723 LINE",
"118 591 LINE"
);
},
{
closed = 1;
nodes = (
"474 591 LINE",
"603 720 LINE",
"602 723 LINE",
"477 723 LINE",
"373 591 LINE"
);
}
);
};
components = (
{
name = idotless;
},
{
name = acutecomb;
transform = "{1, 0, 0, 1, 56, 0}";
},
{
name = jdotless;
transform = "{1, 0, 0, 1, 259, 0}";
},
{
name = acutecomb;
transform = "{1, 0, 0, 1, 315, 0}";
}
);
layerId = "9D48804D-E8D2-4297-83C4-532547FA9139";
width = 518;
},
{
background = {
paths = (
{
closed = 1;
nodes = (
"368 -182 OFFCURVE",
"409 -111 OFFCURVE",
"421 -41 CURVE SMOOTH",
"521 526 LINE",
"384 526 LINE",
"286 -27 LINE SMOOTH",
"281 -55 OFFCURVE",
"264 -70 OFFCURVE",
"236 -70 CURVE SMOOTH",
"184 -70 LINE",
"168 -166 LINE",
"190 -174 OFFCURVE",
"235 -182 OFFCURVE",
"269 -182 CURVE SMOOTH"
);
},
{
closed = 1;
nodes = (
"150 0 LINE",
"243 526 LINE",
"106 526 LINE",
"13 0 LINE"
);
},
{
closed = 1;
nodes = (
"227 591 LINE",
"358 720 LINE",
"357 723 LINE",
"219 723 LINE",
"117 591 LINE"
);
},
{
closed = 1;
nodes = (
"505 591 LINE",
"636 720 LINE",
"635 723 LINE",
"497 723 LINE",
"395 591 LINE"
);
}
);
};
components = (
{
name = idotless;
},
{
name = acutecomb;
transform = "{1, 0, 0, 1, 63, 0}";
},
{
name = jdotless;
transform = "{1, 0, 0, 1, 278, 0}";
},
{
name = acutecomb;
transform = "{1, 0, 0, 1, 337, 0}";
}
);
layerId = "C3F11B4E-1713-4D30-9530-E487AEA06E69";
width = 556;
}
);
leftKerningGroup = i;
rightKerningGroup = i;
},
{
glyphname = k;
lastChange = "2018-07-29 23:24:57 +0000";
layers = (
{
anchors = (
{
name = bottom;
position = "{211, 0}";
}
);
layerId = "F2AF9F09-4B67-43C0-B796-5CA32800A179";
paths = (
{
closed = 1;
nodes = (
"101 0 LINE",
"130 165 LINE",
"246 259 LINE",
"346 0 LINE",
"443 0 LINE",
"308 319 LINE",
"526 526 LINE",
"417 526 LINE",
"149 273 LINE",
"228 723 LINE",
"140 723 LINE",
"13 0 LINE"
);
}
);
width = 500;
},
{
anchors = (
{
name = bottom;
position = "{220, 0}";
}
);
layerId = "A5125C76-E837-47F7-9C8F-34BD6CC95EDD";
paths = (
{
closed = 1;
nodes = (
"116 0 LINE",
"144 161 LINE",
"253 248 LINE",
"346 0 LINE",
"458 0 LINE",
"326 319 LINE",
"541 526 LINE",
"417 526 LINE",
"166 286 LINE",
"243 723 LINE",
"140 723 LINE",
"13 0 LINE"
);
}
);
width = 517;
},
{
anchors = (
{
name = bottom;
position = "{230, 0}";
}
);
layerId = "9D48804D-E8D2-4297-83C4-532547FA9139";
paths = (
{
closed = 1;
nodes = (
"133 0 LINE",
"161 157 LINE",
"260 235 LINE",
"345 0 LINE",
"475 0 LINE",
"346 319 LINE",
"558 526 LINE",
"417 526 LINE",
"186 300 LINE",
"260 723 LINE",
"140 723 LINE",
"13 0 LINE"
);
}
);
width = 537;
},
{
anchors = (
{
name = bottom;
position = "{239, 0}";
}
);
layerId = "C3F11B4E-1713-4D30-9530-E487AEA06E69";
paths = (
{
closed = 1;
nodes = (
"150 0 LINE",
"177 152 LINE",
"268 222 LINE",
"345 0 LINE",
"492 0 LINE",
"366 319 LINE",
"575 526 LINE",
"417 526 LINE",
"205 315 LINE",
"277 723 LINE",
"140 723 LINE",
"13 0 LINE"
);
}
);
width = 556;
}
);
leftKerningGroup = l;
note = k;
rightKerningGroup = k;
unicode = 006B;
},
{
glyphname = kgreenlandic;
lastChange = "2018-07-29 23:24:57 +0000";
layers = (
{
layerId = "F2AF9F09-4B67-43C0-B796-5CA32800A179";
paths = (
{
closed = 1;
nodes = (
"101 0 LINE",
"130 165 LINE",
"246 259 LINE",
"346 0 LINE",
"443 0 LINE",
"308 319 LINE",
"526 526 LINE",
"417 526 LINE",
"149 273 LINE",
"193 526 LINE",
"105 526 LINE",
"13 0 LINE"
);
}
);
width = 500;
},
{
layerId = "A5125C76-E837-47F7-9C8F-34BD6CC95EDD";
paths = (
{
closed = 1;
nodes = (
"116 0 LINE",
"144 161 LINE",
"253 248 LINE",
"346 0 LINE",
"458 0 LINE",
"326 319 LINE",
"541 526 LINE",
"417 526 LINE",
"166 286 LINE",
"208 526 LINE",
"105 526 LINE",
"13 0 LINE"
);
}
);
width = 517;
},
{
layerId = "9D48804D-E8D2-4297-83C4-532547FA9139";
paths = (
{
closed = 1;
nodes = (
"133 0 LINE",
"161 157 LINE",
"260 235 LINE",
"345 0 LINE",
"475 0 LINE",
"346 319 LINE",
"558 526 LINE",
"417 526 LINE",
"186 300 LINE",
"225 526 LINE",
"105 526 LINE",
"13 0 LINE"
);
}
);
width = 537;
},
{
layerId = "C3F11B4E-1713-4D30-9530-E487AEA06E69";
paths = (
{
closed = 1;
nodes = (
"150 0 LINE",
"177 152 LINE",
"268 222 LINE",
"345 0 LINE",
"492 0 LINE",
"366 319 LINE",
"575 526 LINE",
"417 526 LINE",
"205 315 LINE",
"242 526 LINE",
"105 526 LINE",
"13 0 LINE"
);
}
);
width = 556;
}
);
leftKerningGroup = n;
note = kgreenlandic;
rightKerningGroup = k;
unicode = 0138;
},
{
glyphname = l;
lastChange = "2018-07-29 23:24:57 +0000";
layers = (
{
anchors = (
{
name = bottom;
position = "{59, 0}";
},
{
name = center;
position = "{264, 360}";
},
{
name = top;
position = "{181, 700}";
},
{
name = topright;
position = "{243, 526}";
}
);
layerId = "F2AF9F09-4B67-43C0-B796-5CA32800A179";
paths = (
{
closed = 1;
nodes = (
"101 0 LINE",
"228 723 LINE",
"140 723 LINE",
"13 0 LINE"
);
}
);
width = 222;
},
{
anchors = (
{
name = bottom;
position = "{64, 0}";
},
{
name = center;
position = "{287, 360}";
},
{
name = top;
position = "{187, 700}";
},
{
name = topright;
position = "{259, 526}";
}
);
layerId = "A5125C76-E837-47F7-9C8F-34BD6CC95EDD";
paths = (
{
closed = 1;
nodes = (
"116 0 LINE",
"243 723 LINE",
"140 723 LINE",
"13 0 LINE"
);
}
);
width = 239;
},
{
anchors = (
{
name = bottom;
position = "{76, 0}";
},
{
name = center;
position = "{307, 360}";
},
{
name = top;
position = "{197, 700}";
},
{
name = topright;
position = "{286, 526}";
}
);
layerId = "9D48804D-E8D2-4297-83C4-532547FA9139";
paths = (
{
closed = 1;
nodes = (
"133 0 LINE",
"260 723 LINE",
"140 723 LINE",
"13 0 LINE"
);
}
);
width = 259;
},
{
anchors = (
{
name = bottom;
position = "{83, 0}";
},
{
name = center;
position = "{327, 360}";
},
{
name = top;
position = "{205, 700}";
},
{
name = topright;
position = "{303, 526}";
}
);
layerId = "C3F11B4E-1713-4D30-9530-E487AEA06E69";
paths = (
{
closed = 1;
nodes = (
"150 0 LINE",
"277 723 LINE",
"140 723 LINE",
"13 0 LINE"
);
}
);
width = 278;
}
);
leftKerningGroup = l;
note = l;
rightKerningGroup = l;
unicode = 006C;
},
{
glyphname = lcaron;
lastChange = "2018-07-29 23:24:57 +0000";
layers = (
{
background = {
paths = (
{
closed = 1;
nodes = (
"101 0 LINE",
"228 723 LINE",
"140 723 LINE",
"13 0 LINE"
);
},
{
closed = 1;
nodes = (
"296 490 LINE",
"352 602 LINE",
"366 686 LINE",
"281 686 LINE",
"266 595 LINE",
"297 595 LINE",
"249 490 LINE"
);
}
);
};
components = (
{
name = l;
},
{
name = caroncomb.alt;
transform = "{1, 0, 0, 1, 196, 0}";
}
);
layerId = "F2AF9F09-4B67-43C0-B796-5CA32800A179";
width = 222;
},
{
background = {
paths = (
{
closed = 1;
nodes = (
"116 0 LINE",
"243 723 LINE",
"140 723 LINE",
"13 0 LINE"
);
},
{
closed = 1;
nodes = (
"319 474 LINE",
"383 591 LINE",
"398 685 LINE",
"297 685 LINE",
"281 583 LINE",
"318 583 LINE",
"263 474 LINE"
);
}
);
};
components = (
{
name = l;
},
{
name = caroncomb.alt;
transform = "{1, 0, 0, 1, 212, 0}";
}
);
layerId = "A5125C76-E837-47F7-9C8F-34BD6CC95EDD";
width = 239;
},
{
background = {
paths = (
{
closed = 1;
nodes = (
"133 0 LINE",
"260 723 LINE",
"140 723 LINE",
"13 0 LINE"
);
},
{
closed = 1;
nodes = (
"344 459 LINE",
"418 583 LINE",
"434 687 LINE",
"314 687 LINE",
"296 572 LINE",
"340 572 LINE",
"278 459 LINE"
);
}
);
};
components = (
{
name = l;
},
{
name = caroncomb.alt;
transform = "{1, 0, 0, 1, 239, 0}";
}
);
layerId = "9D48804D-E8D2-4297-83C4-532547FA9139";
width = 259;
},
{
background = {
paths = (
{
closed = 1;
nodes = (
"150 0 LINE",
"277 723 LINE",
"140 723 LINE",
"13 0 LINE"
);
},
{
closed = 1;
nodes = (
"369 442 LINE",
"450 571 LINE",
"468 686 LINE",
"330 686 LINE",
"310 559 LINE",
"361 559 LINE",
"292 442 LINE"
);
}
);
};
components = (
{
name = l;
},
{
name = caroncomb.alt;
transform = "{1, 0, 0, 1, 256, 0}";
}
);
layerId = "C3F11B4E-1713-4D30-9530-E487AEA06E69";
width = 278;
}
);
leftKerningGroup = h;
note = lcaron;
rightKerningGroup = dcaron;
unicode = 013E;
},
{
glyphname = ldot;
lastChange = "2018-07-29 23:24:57 +0000";
layers = (
{
background = {
paths = (
{
closed = 1;
nodes = (
"101 0 LINE",
"228 723 LINE",
"140 723 LINE",
"13 0 LINE"
);
},
{
closed = 1;
nodes = (
"312 333 LINE",
"332 441 LINE",
"232 441 LINE",
"212 333 LINE"
);
}
);
};
components = (
{
name = l;
},
{
name = periodcentered.loclCAT;
transform = "{1, 0, 0, 1, 177, 3}";
}
);
layerId = "F2AF9F09-4B67-43C0-B796-5CA32800A179";
width = 222;
},
{
background = {
paths = (
{
closed = 1;
nodes = (
"116 0 LINE",
"243 723 LINE",
"140 723 LINE",
"13 0 LINE"
);
},
{
closed = 1;
nodes = (
"336 329 LINE",
"358 446 LINE",
"246 446 LINE",
"224 329 LINE"
);
}
);
};
components = (
{
name = l;
},
{
name = periodcentered.loclCAT;
transform = "{1, 0, 0, 1, 194, 2}";
}
);
layerId = "A5125C76-E837-47F7-9C8F-34BD6CC95EDD";
width = 239;
},
{
background = {
paths = (
{
closed = 1;
nodes = (
"133 0 LINE",
"260 723 LINE",
"140 723 LINE",
"13 0 LINE"
);
},
{
closed = 1;
nodes = (
"366 324 LINE",
"390 451 LINE",
"265 451 LINE",
"241 324 LINE"
);
}
);
};
components = (
{
name = l;
},
{
name = periodcentered.loclCAT;
transform = "{1, 0, 0, 1, 208, 4}";
}
);
layerId = "9D48804D-E8D2-4297-83C4-532547FA9139";
width = 259;
},
{
background = {
paths = (
{
closed = 1;
nodes = (
"150 0 LINE",
"277 723 LINE",
"140 723 LINE",
"13 0 LINE"
);
},
{
closed = 1;
nodes = (
"396 319 LINE",
"422 456 LINE",
"284 456 LINE",
"258 319 LINE"
);
}
);
};
components = (
{
name = l;
},
{
name = periodcentered.loclCAT;
transform = "{1, 0, 0, 1, 220, 3}";
}
);
layerId = "C3F11B4E-1713-4D30-9530-E487AEA06E69";
width = 278;
}
);
leftKerningGroup = h;
note = ldot;
rightKerningGroup = ldot;
unicode = 0140;
},
{
glyphname = lslash;
lastChange = "2018-07-29 23:24:57 +0000";
layers = (
{
components = (
{
name = l;
}
);
layerId = "F2AF9F09-4B67-43C0-B796-5CA32800A179";
paths = (
{
closed = 1;
nodes = (
"239 407 LINE",
"254 490 LINE",
"1 312 LINE",
"-14 229 LINE"
);
}
);
width = 222;
},
{
components = (
{
name = l;
}
);
layerId = "A5125C76-E837-47F7-9C8F-34BD6CC95EDD";
paths = (
{
closed = 1;
nodes = (
"257 407 LINE",
"272 495 LINE",
"2 312 LINE",
"-14 224 LINE"
);
}
);
width = 239;
},
{
components = (
{
name = l;
}
);
layerId = "9D48804D-E8D2-4297-83C4-532547FA9139";
paths = (
{
closed = 1;
nodes = (
"274 401 LINE",
"292 499 LINE",
"1 316 LINE",
"-16 218 LINE"
);
}
);
width = 259;
},
{
components = (
{
name = l;
}
);
layerId = "C3F11B4E-1713-4D30-9530-E487AEA06E69";
paths = (
{
closed = 1;
nodes = (
"290 397 LINE",
"309 505 LINE",
"-2 321 LINE",
"-21 213 LINE"
);
}
);
width = 278;
}
);
leftKerningGroup = l;
note = lslash;
rightKerningGroup = l;
unicode = 0142;
},
